RobotoAvar2-XOPQ2.ufo
<glyph name="quotedbl" format="2">
  <advance width="414"/>
  <unicode hex="0022"/>
  <outline>
    <contour>
      <point x="100" y="966" type="line"/>
      <point x="100" y="1320" type="line"/>
      <point x="100" y="1456" type="line"/>
      <point x="107" y="1456" type="line"/>
      <point x="107" y="1320" type="line"/>
      <point x="107" y="966" type="line"/>
    </contour>
    <contour>
      <point x="307" y="966" type="line"/>
      <point x="307" y="1320" type="line"/>
      <point x="307" y="1456" type="line"/>
      <point x="314" y="1456" type="line"/>
      <point x="314" y="1320" type="line"/>
      <point x="314" y="966" type="line"/>
    </contour>
  </outline>
</glyph>
<glyph name="ampersand" format="2">
  <advance width="1006"/>
  <unicode hex="0026"/>
  <outline>
    <contour>
      <point x="80" y="380" type="qcurve" smooth="yes"/>
      <point x="80" y="540"/>
      <point x="169" y="798"/>
      <point x="308" y="884" type="qcurve" smooth="yes"/>
      <point x="397" y="939" type="line" smooth="yes"/>
      <point x="498" y="1001"/>
      <point x="570" y="1100"/>
      <point x="570" y="1174" type="qcurve" smooth="yes"/>
      <point x="570" y="1240"/>
      <point x="480" y="1334"/>
      <point x="395" y="1334" type="qcurve" smooth="yes"/>
      <point x="310" y="1334"/>
      <point x="212" y="1230"/>
      <point x="212" y="1128" type="qcurve" smooth="yes"/>
      <point x="212" y="1030"/>
      <point x="258" y="870"/>
      <point x="328" y="785" type="qcurve" smooth="yes"/>
      <point x="970" y="0" type="line"/>
      <point x="964" y="0" type="line"/>
      <point x="325" y="783" type="line" smooth="yes"/>
      <point x="254" y="869"/>
      <point x="208" y="1028"/>
      <point x="208" y="1128" type="qcurve" smooth="yes"/>
      <point x="208" y="1300"/>
      <point x="316" y="1486"/>
      <point x="396" y="1486" type="qcurve" smooth="yes"/>
      <point x="475" y="1486"/>
      <point x="574" y="1310"/>
      <point x="574" y="1174" type="qcurve" smooth="yes"/>
      <point x="574" y="1060"/>
      <point x="502" y="824"/>
      <point x="410" y="763" type="qcurve" smooth="yes"/>
      <point x="310" y="697" type="line" smooth="yes"/>
      <point x="172" y="606"/>
      <point x="84" y="490"/>
      <point x="84" y="380" type="qcurve" smooth="yes"/>
      <point x="84" y="270"/>
      <point x="240" y="132"/>
      <point x="370" y="132" type="qcurve" smooth="yes"/>
      <point x="550" y="132"/>
      <point x="810" y="420"/>
      <point x="810" y="674" type="qcurve"/>
      <point x="982" y="674" type="line"/>
      <point x="982" y="380"/>
      <point x="630" y="-20"/>
      <point x="370" y="-20" type="qcurve"/>
      <point x="263" y="-20"/>
      <point x="80" y="205"/>
    </contour>
  </outline>
</glyph>
<glyph name="quotesingle" format="2">
  <advance width="400"/>
  <unicode hex="0027"/>
  <outline>
    <contour>
      <point x="197" y="966" type="line"/>
      <point x="197" y="1320" type="line"/>
      <point x="197" y="1456" type="line"/>
      <point x="204" y="1456" type="line"/>
      <point x="204" y="1320" type="line"/>
      <point x="204" y="966" type="line"/>
    </contour>
  </outline>
</glyph>
<glyph name="parenright" format="2">
  <advance width="512"/>
  <unicode hex="0029"/>
  <outline>
    <contour>
      <point x="36" y="-436" type="qcurve"/>
      <point x="36" y="-429" type="line"/>
      <point x="160" y="-336"/>
      <point x="381" y="122"/>
      <point x="381" y="508" type="qcurve" smooth="yes"/>
      <point x="381" y="532" type="line" smooth="yes"/>
      <point x="381" y="936"/>
      <point x="160" y="1376"/>
      <point x="36" y="1469" type="qcurve"/>
      <point x="36" y="1476" type="line"/>
      <point x="168" y="1380"/>
      <point x="388" y="937"/>
      <point x="388" y="525" type="qcurve" smooth="yes"/>
      <point x="388" y="515" type="line" smooth="yes"/>
      <point x="388" y="120"/>
      <point x="168" y="-340"/>
    </contour>
  </outline>
</glyph>
<glyph name="asterisk" format="2">
  <advance width="1080"/>
  <unicode hex="002A"/>
  <outline>
    <contour>
      <point x="87" y="1144" type="line"/>
      <point x="89" y="1150" type="line"/>
      <point x="537" y="996" type="line"/>
      <point x="536" y="1476" type="line"/>
      <point x="544" y="1476" type="line"/>
      <point x="543" y="996" type="line"/>
      <point x="991" y="1150" type="line"/>
      <point x="993" y="1144" type="line"/>
      <point x="545" y="989" type="line"/>
      <point x="823" y="617" type="line"/>
      <point x="817" y="613" type="line"/>
      <point x="540" y="984" type="line"/>
      <point x="263" y="613" type="line"/>
      <point x="257" y="617" type="line"/>
      <point x="535" y="989" type="line"/>
    </contour>
  </outline>
</glyph>
<glyph name="plus" format="2">
	<unicode hex="002B"/>
	<advance width="1024"/>
	<outline>
		<contour>
			<point x="57" y="670" type="line"/>
			<point x="57" y="677" type="line"/>
			<point x="967" y="677" type="line"/>
			<point x="967" y="670" type="line"/>
		</contour>
		<contour>
			<point x="508" y="188" type="line"/>
			<point x="508" y="1160" type="line"/>
			<point x="515" y="1160" type="line"/>
			<point x="515" y="188" type="line"/>
		</contour>
	</outline>
</glyph>
<glyph name="comma" format="2">
  <advance width="580"/>
  <unicode hex="002C"/>
  <outline>
    <contour>
      <point x="158" y="-252" type="line"/>
      <point x="211" y="-193"/>
      <point x="294" y="-39"/>
      <point x="295" y="70" type="qcurve" smooth="yes"/>
      <point x="295" y="220" type="line"/>
      <point x="302" y="220" type="line"/>
      <point x="302" y="70" type="line" smooth="yes"/>
      <point x="302" y="-40"/>
      <point x="218" y="-195"/>
      <point x="163" y="-256" type="qcurve"/>
    </contour>
  </outline>
</glyph>
<glyph name="hyphen" format="2">
	<unicode hex="002D"/>
	<advance width="714"/>
	<outline>
		<contour>
			<point x="75" y="634" type="line"/>
			<point x="75" y="641" type="line"/>
			<point x="639" y="641" type="line"/>
			<point x="639" y="634" type="line"/>
		</contour>
	</outline>
</glyph>
<glyph name="period" format="2">
  <advance width="580"/>
  <unicode hex="002E"/>
  <outline>
    <contour>
      <point x="265" y="15" type="qcurve" smooth="yes"/>
      <point x="265" y="25"/>
      <point x="277" y="40"/>
      <point x="290" y="40" type="qcurve" smooth="yes"/>
      <point x="303" y="40"/>
      <point x="315" y="25"/>
      <point x="315" y="15" type="qcurve" smooth="yes"/>
      <point x="315" y="6"/>
      <point x="303" y="-9"/>
      <point x="290" y="-9" type="qcurve" smooth="yes"/>
      <point x="277" y="-9"/>
      <point x="265" y="6"/>
    </contour>
  </outline>
</glyph>
<glyph name="slash" format="2">
  <advance width="616"/>
  <unicode hex="002F"/>
  <outline>
    <contour>
      <point x="0" y="-125" type="line"/>
      <point x="608" y="1456" type="line"/>
      <point x="616" y="1456" type="line"/>
      <point x="8" y="-125" type="line"/>
    </contour>
  </outline>
</glyph>
<glyph name="zero" format="2">
  <advance width="956"/>
  <unicode hex="0030"/>
  <outline>
    <contour>
      <point x="110" y="460" type="qcurve" smooth="yes"/>
      <point x="110" y="996" type="line" smooth="yes"/>
      <point x="110" y="1232"/>
      <point x="300" y="1486"/>
      <point x="477" y="1486" type="qcurve" smooth="yes"/>
      <point x="655" y="1486"/>
      <point x="846" y="1232"/>
      <point x="846" y="996" type="qcurve" smooth="yes"/>
      <point x="846" y="460" type="line" smooth="yes"/>
      <point x="846" y="224"/>
      <point x="655" y="-30"/>
      <point x="477" y="-30" type="qcurve" smooth="yes"/>
      <point x="300" y="-30"/>
      <point x="110" y="224"/>
    </contour>
    <contour>
      <point x="117" y="450" type="line" smooth="yes"/>
      <point x="117" y="305"/>
      <point x="304" y="128"/>
      <point x="477" y="128" type="qcurve" smooth="yes"/>
      <point x="651" y="128"/>
      <point x="839" y="305"/>
      <point x="839" y="450" type="qcurve" smooth="yes"/>
      <point x="839" y="1006" type="line" smooth="yes"/>
      <point x="839" y="1151"/>
      <point x="651" y="1328"/>
      <point x="477" y="1328" type="qcurve" smooth="yes"/>
      <point x="304" y="1328"/>
      <point x="117" y="1151"/>
      <point x="117" y="1006" type="qcurve" smooth="yes"/>
    </contour>
  </outline>
</glyph>
<glyph name="one" format="2">
  <advance width="783"/>
  <unicode hex="0031"/>
  <outline>
    <contour>
      <point x="520" y="0" type="line"/>
      <point x="520" y="1317" type="line"/>
      <point x="112" y="1150" type="line"/>
      <point x="112" y="1336" type="line"/>
      <point x="494" y="1476" type="line"/>
      <point x="527" y="1476" type="line"/>
      <point x="527" y="0" type="line"/>
    </contour>
  </outline>
</glyph>
<glyph name="two" format="2">
  <advance width="956"/>
  <unicode hex="0032"/>
  <outline>
    <contour>
      <point x="75" y="0" type="line"/>
      <point x="75" y="13" type="line"/>
      <point x="554" y="521" type="line" smooth="yes"/>
      <point x="655" y="628"/>
      <point x="821" y="876"/>
      <point x="821" y="1060" type="qcurve" smooth="yes"/>
      <point x="821" y="1158"/>
      <point x="645" y="1328"/>
      <point x="498" y="1328" type="qcurve" smooth="yes"/>
      <point x="359" y="1328"/>
      <point x="113" y="1178"/>
      <point x="113" y="1030" type="qcurve" smooth="yes"/>
      <point x="113" y="1020" type="line"/>
      <point x="106" y="1020" type="line"/>
      <point x="106" y="1033" type="line" smooth="yes"/>
      <point x="106" y="1225"/>
      <point x="311" y="1486"/>
      <point x="498" y="1486" type="qcurve" smooth="yes"/>
      <point x="670" y="1486"/>
      <point x="828" y="1233"/>
      <point x="828" y="1060" type="qcurve" smooth="yes"/>
      <point x="828" y="871"/>
      <point x="665" y="629"/>
      <point x="561" y="519" type="qcurve" smooth="yes"/>
      <point x="79" y="7" type="line"/>
      <point x="858" y="7" type="line"/>
      <point x="858" y="0" type="line"/>
    </contour>
  </outline>
</glyph>
<glyph name="three" format="2">
  <advance width="783"/>
  <unicode hex="0033"/>
  <outline>
    <contour>
      <point x="85" y="380" type="qcurve" smooth="yes"/>
      <point x="85" y="390" type="line"/>
      <point x="92" y="390" type="line"/>
      <point x="92" y="380" type="line" smooth="yes"/>
      <point x="92" y="273"/>
      <point x="237" y="128"/>
      <point x="387" y="128" type="qcurve"/>
      <point x="535" y="128"/>
      <point x="681" y="278"/>
      <point x="681" y="400" type="qcurve" smooth="yes"/>
      <point x="681" y="551"/>
      <point x="519" y="682"/>
      <point x="337" y="682" type="qcurve" smooth="yes"/>
      <point x="233" y="682" type="line"/>
      <point x="233" y="836" type="line"/>
      <point x="336" y="836" type="line" smooth="yes"/>
      <point x="476" y="836"/>
      <point x="618" y="956"/>
      <point x="618" y="1100" type="qcurve" smooth="yes"/>
      <point x="618" y="1210"/>
      <point x="499" y="1328"/>
      <point x="380" y="1328" type="qcurve"/>
      <point x="282" y="1328"/>
      <point x="132" y="1209"/>
      <point x="132" y="1100" type="qcurve" smooth="yes"/>
      <point x="132" y="1090" type="line"/>
      <point x="125" y="1090" type="line"/>
      <point x="125" y="1100" type="line" smooth="yes"/>
      <point x="125" y="1274"/>
      <point x="278" y="1486"/>
      <point x="381" y="1486" type="qcurve"/>
      <point x="501" y="1486"/>
      <point x="625" y="1284"/>
      <point x="625" y="1100" type="qcurve" smooth="yes"/>
      <point x="625" y="984"/>
      <point x="489" y="785"/>
      <point x="368" y="765" type="qcurve"/>
      <point x="368" y="761" type="line"/>
      <point x="520" y="749"/>
      <point x="688" y="536"/>
      <point x="688" y="400" type="qcurve" smooth="yes"/>
      <point x="688" y="205"/>
      <point x="539" y="-30"/>
      <point x="387" y="-30" type="qcurve"/>
      <point x="234" y="-30"/>
      <point x="85" y="199"/>
    </contour>
  </outline>
</glyph>
<glyph name="four" format="2">
  <advance width="783"/>
  <unicode hex="0034"/>
  <outline>
    <contour>
      <point x="607" y="0" type="line"/>
      <point x="607" y="424" type="line"/>
      <point x="607" y="427" type="line"/>
      <point x="607" y="1182" type="line"/>
      <point x="595" y="1182" type="line"/>
      <point x="154" y="429" type="line"/>
      <point x="609" y="429" type="line"/>
      <point x="611" y="429" type="line"/>
      <point x="815" y="429" type="line"/>
      <point x="815" y="422" type="line"/>
      <point x="18" y="422" type="line"/>
      <point x="18" y="524" type="line"/>
      <point x="584" y="1456" type="line"/>
      <point x="614" y="1456" type="line"/>
      <point x="614" y="0" type="line"/>
    </contour>
  </outline>
</glyph>
<glyph name="five" format="2">
  <advance width="783"/>
  <unicode hex="0035"/>
  <outline>
    <contour>
      <point x="77" y="365" type="qcurve" smooth="yes"/>
      <point x="77" y="375" type="line"/>
      <point x="84" y="375" type="line"/>
      <point x="84" y="365" type="line" smooth="yes"/>
      <point x="84" y="255"/>
      <point x="252" y="128"/>
      <point x="375" y="128" type="qcurve" smooth="yes"/>
      <point x="512" y="128"/>
      <point x="671" y="300"/>
      <point x="671" y="465" type="qcurve" smooth="yes"/>
      <point x="671" y="630"/>
      <point x="497" y="793"/>
      <point x="374" y="793" type="qcurve" smooth="yes"/>
      <point x="313" y="793"/>
      <point x="199" y="765"/>
      <point x="125" y="728" type="qcurve"/>
      <point x="122" y="730" type="line"/>
      <point x="196" y="1456" type="line"/>
      <point x="605" y="1456" type="line"/>
      <point x="605" y="1286" type="line"/>
      <point x="186" y="1286" type="line"/>
      <point x="144" y="876" type="line"/>
      <point x="196" y="906"/>
      <point x="355" y="952"/>
      <point x="400" y="952" type="qcurve" smooth="yes"/>
      <point x="546" y="952"/>
      <point x="678" y="662"/>
      <point x="678" y="465" type="qcurve" smooth="yes"/>
      <point x="678" y="268"/>
      <point x="508" y="-30"/>
      <point x="375" y="-30" type="qcurve" smooth="yes"/>
      <point x="238" y="-30"/>
      <point x="77" y="193"/>
    </contour>
  </outline>
</glyph>
<glyph name="six" format="2">
  <advance width="783"/>
  <unicode hex="0036"/>
  <outline>
    <contour>
      <point x="88" y="614" type="qcurve" smooth="yes"/>
      <point x="88" y="644" type="line" smooth="yes"/>
      <point x="88" y="981"/>
      <point x="374" y="1487"/>
      <point x="587" y="1487" type="qcurve" smooth="yes"/>
      <point x="602" y="1487" type="line"/>
      <point x="602" y="1329" type="line"/>
      <point x="588" y="1329" type="line" smooth="yes"/>
      <point x="387" y="1329"/>
      <point x="95" y="973"/>
      <point x="95" y="644" type="qcurve" smooth="yes"/>
      <point x="95" y="614" type="line" smooth="yes"/>
      <point x="95" y="337"/>
      <point x="267" y="128"/>
      <point x="420" y="128" type="qcurve" smooth="yes"/>
      <point x="572" y="128"/>
      <point x="718" y="292"/>
      <point x="718" y="454" type="qcurve" smooth="yes"/>
      <point x="718" y="613"/>
      <point x="572" y="798"/>
      <point x="419" y="798" type="qcurve"/>
      <point x="277" y="798"/>
      <point x="100" y="609"/>
      <point x="101" y="458" type="qcurve"/>
      <point x="94" y="458" type="line"/>
      <point x="93" y="670"/>
      <point x="276" y="956"/>
      <point x="420" y="956" type="qcurve"/>
      <point x="573" y="956"/>
      <point x="725" y="681"/>
      <point x="725" y="454" type="qcurve" smooth="yes"/>
      <point x="725" y="228"/>
      <point x="572" y="-30"/>
      <point x="420" y="-30" type="qcurve" smooth="yes"/>
      <point x="264" y="-30"/>
      <point x="88" y="279"/>
    </contour>
  </outline>
</glyph>
<glyph name="seven" format="2">
  <advance width="833"/>
  <unicode hex="0037"/>
  <outline>
    <contour>
      <point x="195" y="0" type="line"/>
      <point x="817" y="1449" type="line"/>
      <point x="57" y="1449" type="line"/>
      <point x="57" y="1456" type="line"/>
      <point x="822" y="1456" type="line"/>
      <point x="822" y="1443" type="line"/>
      <point x="203" y="0" type="line"/>
    </contour>
  </outline>
</glyph>
<glyph name="eight" format="2">
  <advance width="956"/>
  <unicode hex="0038"/>
  <outline>
    <contour>
      <point x="100" y="386" type="qcurve" smooth="yes"/>
      <point x="100" y="514"/>
      <point x="264" y="727"/>
      <point x="397" y="746" type="qcurve"/>
      <point x="397" y="750" type="line"/>
      <point x="285" y="782"/>
      <point x="146" y="958"/>
      <point x="146" y="1087" type="qcurve" smooth="yes"/>
      <point x="146" y="1279"/>
      <point x="328" y="1486"/>
      <point x="480" y="1486" type="qcurve" smooth="yes"/>
      <point x="635" y="1486"/>
      <point x="816" y="1280"/>
      <point x="816" y="1087" type="qcurve" smooth="yes"/>
      <point x="816" y="958"/>
      <point x="676" y="782"/>
      <point x="563" y="750" type="qcurve"/>
      <point x="563" y="746" type="line"/>
      <point x="696" y="727"/>
      <point x="858" y="514"/>
      <point x="858" y="386" type="qcurve" smooth="yes"/>
      <point x="858" y="218"/>
      <point x="670" y="-30"/>
      <point x="480" y="-30" type="qcurve" smooth="yes"/>
      <point x="290" y="-30"/>
      <point x="100" y="218"/>
    </contour>
    <contour>
      <point x="107" y="386" type="qcurve" smooth="yes"/>
      <point x="107" y="271"/>
      <point x="360" y="128"/>
      <point x="480" y="128" type="qcurve" smooth="yes"/>
      <point x="600" y="128"/>
      <point x="851" y="271"/>
      <point x="851" y="386" type="qcurve" smooth="yes"/>
      <point x="851" y="529"/>
      <point x="642" y="666"/>
      <point x="480" y="666" type="qcurve" smooth="yes"/>
      <point x="316" y="666"/>
      <point x="107" y="529"/>
    </contour>
    <contour>
      <point x="153" y="1087" type="qcurve" smooth="yes"/>
      <point x="153" y="941"/>
      <point x="353" y="824"/>
      <point x="480" y="824" type="qcurve" smooth="yes"/>
      <point x="608" y="824"/>
      <point x="809" y="941"/>
      <point x="809" y="1087" type="qcurve" smooth="yes"/>
      <point x="809" y="1207"/>
      <point x="590" y="1328"/>
      <point x="480" y="1328" type="qcurve" smooth="yes"/>
      <point x="369" y="1328"/>
      <point x="153" y="1207"/>
    </contour>
  </outline>
</glyph>
<glyph name="nine" format="2">
  <advance width="783"/>
  <unicode hex="0039"/>
  <outline>
    <contour>
      <point x="76" y="1002" type="qcurve" smooth="yes"/>
      <point x="76" y="1228"/>
      <point x="267" y="1486"/>
      <point x="457" y="1486" type="qcurve" smooth="yes"/>
      <point x="652" y="1486"/>
      <point x="872" y="1177"/>
      <point x="872" y="842" type="qcurve" smooth="yes"/>
      <point x="872" y="812" type="line" smooth="yes"/>
      <point x="872" y="477"/>
      <point x="462" y="0"/>
      <point x="180" y="0" type="qcurve" smooth="yes"/>
      <point x="159" y="0" type="line"/>
      <point x="159" y="158" type="line"/>
      <point x="179" y="158" type="line" smooth="yes"/>
      <point x="459" y="158"/>
      <point x="865" y="479"/>
      <point x="865" y="812" type="qcurve" smooth="yes"/>
      <point x="865" y="842" type="line" smooth="yes"/>
      <point x="865" y="1119"/>
      <point x="649" y="1328"/>
      <point x="457" y="1328" type="qcurve" smooth="yes"/>
      <point x="267" y="1328"/>
      <point x="83" y="1164"/>
      <point x="83" y="1002" type="qcurve" smooth="yes"/>
      <point x="83" y="843"/>
      <point x="267" y="678"/>
      <point x="457" y="678" type="qcurve" smooth="yes"/>
      <point x="637" y="678"/>
      <point x="859" y="847"/>
      <point x="858" y="998" type="qcurve"/>
      <point x="865" y="998" type="line"/>
      <point x="866" y="786"/>
      <point x="600" y="520"/>
      <point x="417" y="520" type="qcurve" smooth="yes"/>
      <point x="228" y="520"/>
      <point x="76" y="775"/>
    </contour>
  </outline>
</glyph>
<glyph name="colon" format="2">
  <advance width="600"/>
  <unicode hex="003A"/>
  <outline>
    <contour>
      <point x="275" y="2" type="qcurve" smooth="yes"/>
      <point x="275" y="12"/>
      <point x="288" y="27"/>
      <point x="300" y="27" type="qcurve" smooth="yes"/>
      <point x="312" y="27"/>
      <point x="325" y="12"/>
      <point x="325" y="2" type="qcurve" smooth="yes"/>
      <point x="325" y="-8"/>
      <point x="312" y="-22"/>
      <point x="300" y="-22" type="qcurve" smooth="yes"/>
      <point x="288" y="-22"/>
      <point x="275" y="-8"/>
    </contour>
    <contour>
      <point x="275" y="1044" type="qcurve" smooth="yes"/>
      <point x="275" y="1054"/>
      <point x="288" y="1068"/>
      <point x="300" y="1068" type="qcurve" smooth="yes"/>
      <point x="312" y="1068"/>
      <point x="325" y="1054"/>
      <point x="325" y="1044" type="qcurve" smooth="yes"/>
      <point x="325" y="1034"/>
      <point x="312" y="1019"/>
      <point x="300" y="1019" type="qcurve" smooth="yes"/>
      <point x="288" y="1019"/>
      <point x="275" y="1034"/>
    </contour>
  </outline>
</glyph>
<glyph name="semicolon" format="2">
  <advance width="448"/>
  <unicode hex="003B"/>
  <outline>
    <contour>
      <point x="110" y="-252" type="line"/>
      <point x="163" y="-193"/>
      <point x="246" y="-39"/>
      <point x="247" y="70" type="qcurve" smooth="yes"/>
      <point x="247" y="220" type="line"/>
      <point x="254" y="220" type="line"/>
      <point x="254" y="70" type="line" smooth="yes"/>
      <point x="254" y="-40"/>
      <point x="170" y="-195"/>
      <point x="115" y="-256" type="qcurve"/>
    </contour>
    <contour>
      <point x="222" y="1044" type="qcurve" smooth="yes"/>
      <point x="222" y="1054"/>
      <point x="235" y="1068"/>
      <point x="247" y="1068" type="qcurve" smooth="yes"/>
      <point x="259" y="1068"/>
      <point x="272" y="1054"/>
      <point x="272" y="1044" type="qcurve" smooth="yes"/>
      <point x="272" y="1034"/>
      <point x="259" y="1019"/>
      <point x="247" y="1019" type="qcurve" smooth="yes"/>
      <point x="235" y="1019"/>
      <point x="222" y="1034"/>
    </contour>
  </outline>
</glyph>
<glyph name="less" format="2">
  <advance width="1024"/>
  <unicode hex="003C"/>
  <outline>
    <contour>
      <point x="918" y="286" type="line"/>
      <point x="100" y="672" type="line"/>
      <point x="100" y="684" type="line"/>
      <point x="918" y="1063" type="line"/>
      <point x="918" y="1055" type="line"/>
      <point x="104" y="678" type="line"/>
      <point x="918" y="294" type="line"/>
    </contour>
  </outline>
</glyph>
<glyph name="equal" format="2">
  <advance width="1024"/>
  <unicode hex="003D"/>
  <outline>
    <contour>
      <point x="57" y="542" type="line"/>
      <point x="57" y="549" type="line"/>
      <point x="967" y="549" type="line"/>
      <point x="967" y="542" type="line"/>
    </contour>
    <contour>
      <point x="57" y="777" type="line"/>
      <point x="57" y="784" type="line"/>
      <point x="967" y="784" type="line"/>
      <point x="967" y="777" type="line"/>
    </contour>
  </outline>
</glyph>
<glyph name="greater" format="2">
  <advance width="1024"/>
  <unicode hex="003E"/>
  <outline>
    <contour>
      <point x="106" y="286" type="line"/>
      <point x="106" y="294" type="line"/>
      <point x="920" y="678" type="line"/>
      <point x="106" y="1055" type="line"/>
      <point x="106" y="1063" type="line"/>
      <point x="924" y="684" type="line"/>
      <point x="924" y="672" type="line"/>
    </contour>
  </outline>
</glyph>
<glyph name="question" format="2">
  <advance width="605"/>
  <unicode hex="003F"/>
  <outline>
    <contour>
      <point x="235" y="15" type="qcurve" smooth="yes"/>
      <point x="235" y="25"/>
      <point x="248" y="39"/>
      <point x="260" y="39" type="qcurve" smooth="yes"/>
      <point x="272" y="39"/>
      <point x="285" y="25"/>
      <point x="285" y="15" type="qcurve" smooth="yes"/>
      <point x="285" y="5"/>
      <point x="272" y="-9"/>
      <point x="260" y="-9" type="qcurve" smooth="yes"/>
      <point x="248" y="-9"/>
      <point x="235" y="5"/>
    </contour>
    <contour>
      <point x="57" y="1095" type="line"/>
      <point x="57" y="1115" type="line" smooth="yes"/>
      <point x="57" y="1280"/>
      <point x="181" y="1476"/>
      <point x="287" y="1476" type="qcurve" smooth="yes"/>
      <point x="392" y="1476"/>
      <point x="514" y="1270"/>
      <point x="514" y="1100" type="qcurve" smooth="yes"/>
      <point x="514" y="968"/>
      <point x="448" y="836"/>
      <point x="367" y="755" type="qcurve" smooth="yes"/>
      <point x="298" y="686"/>
      <point x="257" y="569"/>
      <point x="257" y="480" type="qcurve" smooth="yes"/>
      <point x="257" y="410" type="line"/>
      <point x="250" y="410" type="line"/>
      <point x="250" y="480" type="line" smooth="yes"/>
      <point x="250" y="575"/>
      <point x="287" y="685"/>
      <point x="359" y="760" type="qcurve" smooth="yes"/>
      <point x="440" y="844"/>
      <point x="507" y="984"/>
      <point x="507" y="1100" type="qcurve" smooth="yes"/>
      <point x="507" y="1200"/>
      <point x="399" y="1314"/>
      <point x="289" y="1314" type="qcurve" smooth="yes"/>
      <point x="179" y="1314"/>
      <point x="64" y="1210"/>
      <point x="64" y="1115" type="qcurve" smooth="yes"/>
      <point x="64" y="1095" type="line"/>
    </contour>
  </outline>
</glyph>
<glyph name="at" format="2">
  <advance width="1393"/>
  <unicode hex="0040"/>
  <outline>
    <contour>
      <point x="437" y="400" type="qcurve" smooth="yes"/>
      <point x="437" y="652"/>
      <point x="613" y="1052"/>
      <point x="768" y="1052" type="qcurve" smooth="yes"/>
      <point x="809" y="1052"/>
      <point x="909" y="989"/>
      <point x="941" y="946" type="qcurve"/>
      <point x="942" y="946" type="line"/>
      <point x="816" y="350" type="line" smooth="yes"/>
      <point x="793" y="242"/>
      <point x="864" y="136"/>
      <point x="943" y="136" type="qcurve" smooth="yes"/>
      <point x="1112" y="136"/>
      <point x="1272" y="367"/>
      <point x="1272" y="650" type="qcurve" smooth="yes"/>
      <point x="1272" y="984"/>
      <point x="1011" y="1330"/>
      <point x="769" y="1330" type="qcurve" smooth="yes"/>
      <point x="539" y="1330"/>
      <point x="121" y="892"/>
      <point x="121" y="460" type="qcurve" smooth="yes"/>
      <point x="121" y="49"/>
      <point x="404" y="-290"/>
      <point x="588" y="-290" type="qcurve" smooth="yes"/>
      <point x="663" y="-290"/>
      <point x="769" y="-236"/>
      <point x="802" y="-200" type="qcurve"/>
      <point x="802" y="-356" type="line"/>
      <point x="765" y="-400"/>
      <point x="668" y="-446"/>
      <point x="588" y="-446" type="qcurve" smooth="yes"/>
      <point x="398" y="-446"/>
      <point x="114" y="40"/>
      <point x="114" y="460" type="qcurve" smooth="yes"/>
      <point x="114" y="906"/>
      <point x="521" y="1486"/>
      <point x="768" y="1486" type="qcurve" smooth="yes"/>
      <point x="1025" y="1486"/>
      <point x="1279" y="1000"/>
      <point x="1279" y="650" type="qcurve" smooth="yes"/>
      <point x="1279" y="360"/>
      <point x="1119" y="0"/>
      <point x="963" y="0" type="qcurve" smooth="yes"/>
      <point x="897" y="0"/>
      <point x="809" y="100"/>
      <point x="770" y="180" type="qcurve"/>
      <point x="719" y="100"/>
      <point x="624" y="0"/>
      <point x="586" y="0" type="qcurve" smooth="yes"/>
      <point x="510" y="0"/>
      <point x="437" y="220"/>
    </contour>
    <contour>
      <point x="444" y="400" type="qcurve" smooth="yes"/>
      <point x="444" y="280"/>
      <point x="557" y="156"/>
      <point x="640" y="156" type="qcurve" smooth="yes"/>
      <point x="704" y="156"/>
      <point x="789" y="256"/>
      <point x="817" y="389" type="qcurve" smooth="yes"/>
      <point x="909" y="823" type="line"/>
      <point x="884" y="868"/>
      <point x="810" y="912"/>
      <point x="768" y="912" type="qcurve" smooth="yes"/>
      <point x="580" y="912"/>
      <point x="444" y="633"/>
    </contour>
  </outline>
</glyph>
<glyph name="A" format="2">
  <advance width="848"/>
  <unicode hex="0041"/>
  <anchor x="416" y="0" name="bottom"/>
  <anchor x="844" y="0" name="ogonek"/>
  <anchor x="416" y="1456" name="top"/>
  <anchor x="-27" y="1074" name="tonos"/>
  <outline>
    <contour>
      <point x="0" y="0" type="line"/>
      <point x="412" y="1464" type="line"/>
      <point x="420" y="1464" type="line"/>
      <point x="848" y="0" type="line"/>
      <point x="841" y="0" type="line"/>
      <point x="447" y="1350" type="line" smooth="yes"/>
      <point x="438" y="1382"/>
      <point x="424" y="1433"/>
      <point x="421" y="1454" type="qcurve"/>
      <point x="411" y="1454" type="line"/>
      <point x="408" y="1433"/>
      <point x="395" y="1381"/>
      <point x="386" y="1348" type="qcurve" smooth="yes"/>
      <point x="7" y="0" type="line"/>
    </contour>
    <contour>
      <point x="110" y="380" type="line"/>
      <point x="155" y="538" type="line"/>
      <point x="687" y="538" type="line"/>
      <point x="733" y="380" type="line"/>
    </contour>
  </outline>
</glyph>
<glyph name="B" format="2">
  <advance width="896"/>
  <unicode hex="0042"/>
  <anchor x="434" y="0" name="bottom"/>
  <anchor x="434" y="1456" name="top"/>
  <outline>
    <contour>
      <point x="170" y="0" type="line"/>
      <point x="170" y="1456" type="line"/>
      <point x="439" y="1456" type="line" smooth="yes"/>
      <point x="597" y="1456"/>
      <point x="769" y="1270"/>
      <point x="769" y="1070" type="qcurve" smooth="yes"/>
      <point x="769" y="950"/>
      <point x="678" y="800"/>
      <point x="614" y="768" type="qcurve"/>
      <point x="614" y="764" type="line"/>
      <point x="693" y="732"/>
      <point x="796" y="560"/>
      <point x="796" y="420" type="qcurve" smooth="yes"/>
      <point x="796" y="220"/>
      <point x="633" y="0"/>
      <point x="478" y="0" type="qcurve" smooth="yes"/>
    </contour>
    <contour>
      <point x="177" y="158" type="line"/>
      <point x="486" y="158" type="line" smooth="yes"/>
      <point x="640" y="158"/>
      <point x="789" y="300"/>
      <point x="789" y="420" type="qcurve" smooth="yes"/>
      <point x="789" y="540"/>
      <point x="649" y="680"/>
      <point x="499" y="680" type="qcurve" smooth="yes"/>
      <point x="173" y="680" type="line"/>
      <point x="173" y="836" type="line"/>
      <point x="469" y="836" type="line" smooth="yes"/>
      <point x="619" y="836"/>
      <point x="762" y="960"/>
      <point x="762" y="1070" type="qcurve" smooth="yes"/>
      <point x="762" y="1180"/>
      <point x="619" y="1298"/>
      <point x="469" y="1298" type="qcurve" smooth="yes"/>
      <point x="177" y="1298" type="line"/>
    </contour>
  </outline>
</glyph>
<glyph name="C" format="2">
	<unicode hex="0043"/>
	<advance width="988"/>
	<outline>
		<contour>
			<point x="115" y="682" type="qcurve" smooth="yes"/>
			<point x="115" y="774" type="line" smooth="yes"/>
			<point x="115" y="1104"/>
			<point x="341" y="1486"/>
			<point x="534" y="1486" type="qcurve" smooth="yes"/>
			<point x="720" y="1486"/>
			<point x="904" y="1205"/>
			<point x="904" y="1000" type="qcurve" smooth="yes"/>
			<point x="904" y="990" type="line"/>
			<point x="897" y="990" type="line"/>
			<point x="897" y="1000" type="line" smooth="yes"/>
			<point x="897" y="1142"/>
			<point x="717" y="1322"/>
			<point x="534" y="1322" type="qcurve" smooth="yes"/>
			<point x="355" y="1322"/>
			<point x="123" y="1052"/>
			<point x="123" y="774" type="qcurve" smooth="yes"/>
			<point x="123" y="682" type="line" smooth="yes"/>
			<point x="123" y="425"/>
			<point x="354" y="134"/>
			<point x="534" y="134" type="qcurve" smooth="yes"/>
			<point x="704" y="134"/>
			<point x="897" y="318"/>
			<point x="897" y="456" type="qcurve" smooth="yes"/>
			<point x="897" y="466" type="line"/>
			<point x="904" y="466" type="line"/>
			<point x="904" y="456" type="line" smooth="yes"/>
			<point x="904" y="251"/>
			<point x="722" y="-30"/>
			<point x="534" y="-30" type="qcurve" smooth="yes"/>
			<point x="354" y="-30"/>
			<point x="115" y="354"/>
		</contour>
	</outline>
	<anchor name="bottom" x="524" y="0"/>
	<anchor name="top" x="534" y="1456"/>
</glyph>
<glyph name="D" format="2">
  <advance width="990"/>
  <unicode hex="0044"/>
  <anchor x="475" y="0" name="bottom"/>
  <anchor x="171" y="728" name="center"/>
  <anchor x="472" y="1456" name="top"/>
  <outline>
    <contour>
      <point x="170" y="0" type="line"/>
      <point x="170" y="1456" type="line"/>
      <point x="372" y="1456" type="line" smooth="yes"/>
      <point x="620" y="1456"/>
      <point x="875" y="1091"/>
      <point x="875" y="774" type="qcurve" smooth="yes"/>
      <point x="875" y="682" type="line" smooth="yes"/>
      <point x="875" y="370"/>
      <point x="631" y="0"/>
      <point x="372" y="0" type="qcurve" smooth="yes"/>
    </contour>
    <contour>
      <point x="174" y="158" type="line"/>
      <point x="372" y="158" type="line" smooth="yes"/>
      <point x="622" y="158"/>
      <point x="871" y="432"/>
      <point x="871" y="682" type="qcurve" smooth="yes"/>
      <point x="871" y="774" type="line" smooth="yes"/>
      <point x="871" y="1032"/>
      <point x="613" y="1298"/>
      <point x="372" y="1298" type="qcurve" smooth="yes"/>
      <point x="174" y="1298" type="line"/>
    </contour>
  </outline>
</glyph>
<glyph name="G" format="2">
  <advance width="1041"/>
  <unicode hex="0047"/>
  <anchor x="552" y="0" name="bottom"/>
  <anchor x="544" y="1456" name="top"/>
  <outline>
    <contour>
      <point x="115" y="682" type="qcurve" smooth="yes"/>
      <point x="115" y="774" type="line" smooth="yes"/>
      <point x="115" y="1106"/>
      <point x="343" y="1486"/>
      <point x="546" y="1486" type="qcurve" smooth="yes"/>
      <point x="717" y="1486"/>
      <point x="913" y="1218"/>
      <point x="913" y="1040" type="qcurve" smooth="yes"/>
      <point x="913" y="1030" type="line"/>
      <point x="906" y="1030" type="line"/>
      <point x="906" y="1040" type="line" smooth="yes"/>
      <point x="906" y="1151"/>
      <point x="714" y="1322"/>
      <point x="544" y="1322" type="qcurve" smooth="yes"/>
      <point x="354" y="1322"/>
      <point x="122" y="1032"/>
      <point x="122" y="774" type="qcurve" smooth="yes"/>
      <point x="122" y="682" type="line" smooth="yes"/>
      <point x="122" y="424"/>
      <point x="357" y="134"/>
      <point x="563" y="134" type="qcurve" smooth="yes"/>
      <point x="673" y="134"/>
      <point x="833" y="180"/>
      <point x="905" y="230" type="qcurve"/>
      <point x="905" y="570" type="line"/>
      <point x="543" y="570" type="line"/>
      <point x="543" y="728" type="line"/>
      <point x="912" y="728" type="line"/>
      <point x="912" y="160" type="line"/>
      <point x="844" y="90"/>
      <point x="673" y="-30"/>
      <point x="563" y="-30" type="qcurve" smooth="yes"/>
      <point x="346" y="-30"/>
      <point x="115" y="346"/>
    </contour>
  </outline>
</glyph>
<glyph name="H" format="2">
  <advance width="1082"/>
  <unicode hex="0048"/>
  <anchor x="729" y="0" name="bottom"/>
  <anchor x="729" y="1100" name="center"/>
  <anchor x="729" y="1456" name="top"/>
  <anchor x="909" y="0" name="cy_descender"/>
  <anchor x="-75" y="1074" name="tonos"/>
  <outline>
    <contour>
      <point x="170" y="0" type="line"/>
      <point x="170" y="1456" type="line"/>
      <point x="174" y="1456" type="line"/>
      <point x="174" y="0" type="line"/>
    </contour>
    <contour>
      <point x="172" y="672" type="line"/>
      <point x="172" y="830" type="line"/>
      <point x="909" y="830" type="line"/>
      <point x="909" y="672" type="line"/>
    </contour>
    <contour>
      <point x="908" y="0" type="line"/>
      <point x="908" y="1456" type="line"/>
      <point x="912" y="1456" type="line"/>
      <point x="912" y="0" type="line"/>
    </contour>
  </outline>
</glyph>
<glyph name="I" format="2">
  <advance width="357"/>
  <unicode hex="0049"/>
  <anchor x="179" y="0" name="bottom"/>
  <anchor x="180" y="0" name="ogonek"/>
  <anchor x="179" y="1456" name="top"/>
  <anchor x="34" y="1074" name="tonos"/>
  <anchor x="179" y="750" name="yu_dash"/>
  <outline>
    <contour>
      <point x="175" y="0" type="line"/>
      <point x="175" y="1456" type="line"/>
      <point x="182" y="1456" type="line"/>
      <point x="182" y="0" type="line"/>
    </contour>
  </outline>
</glyph>
<glyph name="K" format="2">
	<unicode hex="004B"/>
	<advance width="1047"/>
	<outline>
		<contour>
			<point x="170" y="0" type="line"/>
			<point x="170" y="1456" type="line"/>
			<point x="177" y="1456" type="line"/>
			<point x="177" y="0" type="line"/>
		</contour>
		<contour>
			<point x="997" y="0" type="line"/>
			<point x="403" y="783" type="line"/>
			<point x="408" y="788" type="line"/>
			<point x="1006" y="0" type="line"/>
		</contour>
		<contour>
			<point x="173" y="476" type="line"/>
			<point x="173" y="716" type="line"/>
			<point x="835" y="1456" type="line"/>
			<point x="1067" y="1456" type="line"/>
		</contour>
	</outline>
	<anchor name="bottom" x="558" y="0"/>
	<anchor name="top" x="558" y="1456"/>
</glyph>
<glyph name="L" format="2">
	<unicode hex="004C"/>
	<advance width="736"/>
	<outline>
		<contour>
			<point x="170" y="0" type="line"/>
			<point x="170" y="1456" type="line"/>
			<point x="177" y="1456" type="line"/>
			<point x="177" y="158" type="line"/>
			<point x="682" y="158" type="line"/>
			<point x="682" y="0" type="line"/>
		</contour>
	</outline>
	<anchor name="bottom" x="430" y="0"/>
	<anchor name="center" x="538" y="728"/>
	<anchor name="top" x="174" y="1456"/>
	<anchor name="topright" x="427" y="1052"/>
</glyph>
<glyph name="M" format="2">
  <advance width="1224"/>
  <unicode hex="004D"/>
  <anchor x="612" y="0" name="bottom"/>
  <anchor x="612" y="1456" name="top"/>
  <outline>
    <contour>
      <point x="170" y="0" type="line"/>
      <point x="170" y="1456" type="line"/>
      <point x="177" y="1456" type="line"/>
      <point x="572" y="143" type="line" smooth="yes"/>
      <point x="581" y="112"/>
      <point x="600" y="48"/>
      <point x="608" y="18" type="qcurve"/>
      <point x="616" y="18" type="line"/>
      <point x="624" y="48"/>
      <point x="644" y="115"/>
      <point x="653" y="146" type="qcurve" smooth="yes"/>
      <point x="1047" y="1456" type="line"/>
      <point x="1054" y="1456" type="line"/>
      <point x="1054" y="0" type="line"/>
      <point x="1047" y="0" type="line"/>
      <point x="1047" y="1304" type="line" smooth="yes"/>
      <point x="1047" y="1334"/>
      <point x="1047" y="1383"/>
      <point x="1047" y="1412" type="qcurve"/>
      <point x="1039" y="1412" type="line"/>
      <point x="1034" y="1389"/>
      <point x="1019" y="1338"/>
      <point x="1010" y="1307" type="qcurve" smooth="yes"/>
      <point x="615" y="0" type="line"/>
      <point x="609" y="0" type="line"/>
      <point x="223" y="1280" type="line" smooth="yes"/>
      <point x="213" y="1312"/>
      <point x="192" y="1384"/>
      <point x="185" y="1414" type="qcurve"/>
      <point x="177" y="1414" type="line"/>
      <point x="177" y="1383"/>
      <point x="177" y="1309"/>
      <point x="177" y="1279" type="qcurve" smooth="yes"/>
      <point x="177" y="0" type="line"/>
    </contour>
  </outline>
</glyph>
<glyph name="N" format="2">
  <advance width="1038"/>
  <unicode hex="004E"/>
  <anchor x="520" y="0" name="bottom"/>
  <anchor x="519" y="1456" name="top"/>
  <anchor x="864" y="0" name="engtail"/>
  <outline>
    <contour>
      <point x="170" y="0" type="line"/>
      <point x="170" y="1456" type="line"/>
      <point x="186" y="1456" type="line"/>
      <point x="802" y="122" type="line" smooth="yes"/>
      <point x="820" y="83"/>
      <point x="844" y="32"/>
      <point x="855" y="7" type="qcurve"/>
      <point x="862" y="7" type="line"/>
      <point x="861" y="37"/>
      <point x="861" y="112"/>
      <point x="861" y="142" type="qcurve" smooth="yes"/>
      <point x="861" y="1456" type="line"/>
      <point x="868" y="1456" type="line"/>
      <point x="868" y="0" type="line"/>
      <point x="851" y="0" type="line"/>
      <point x="235" y="1335" type="line" smooth="yes"/>
      <point x="217" y="1374"/>
      <point x="193" y="1425"/>
      <point x="182" y="1450" type="qcurve"/>
      <point x="175" y="1450" type="line"/>
      <point x="176" y="1420"/>
      <point x="177" y="1345"/>
      <point x="177" y="1315" type="qcurve" smooth="yes"/>
      <point x="177" y="0" type="line"/>
    </contour>
  </outline>
</glyph>
<glyph name="P" format="2">
	<unicode hex="0050"/>
	<advance width="830"/>
	<outline>
		<contour>
			<point x="170" y="0" type="line"/>
			<point x="170" y="1456" type="line"/>
			<point x="467" y="1456" type="line" smooth="yes"/>
			<point x="621" y="1456"/>
			<point x="780" y="1216"/>
			<point x="780" y="1015" type="qcurve" smooth="yes"/>
			<point x="780" y="815"/>
			<point x="620" y="570"/>
			<point x="467" y="570" type="qcurve" smooth="yes"/>
			<point x="174" y="570" type="line"/>
			<point x="174" y="728" type="line"/>
			<point x="467" y="728" type="line" smooth="yes"/>
			<point x="637" y="728"/>
			<point x="773" y="894"/>
			<point x="773" y="1015" type="qcurve" smooth="yes"/>
			<point x="773" y="1135"/>
			<point x="636" y="1298"/>
			<point x="467" y="1298" type="qcurve" smooth="yes"/>
			<point x="177" y="1298" type="line"/>
			<point x="177" y="0" type="line"/>
		</contour>
	</outline>
	<anchor name="bottom" x="415" y="0"/>
	<anchor name="top" x="415" y="1456"/>
</glyph>
<glyph name="R" format="2">
	<unicode hex="0052"/>
	<advance width="876"/>
	<outline>
		<contour>
			<point x="167" y="0" type="line"/>
			<point x="167" y="1456" type="line"/>
			<point x="456" y="1456" type="line" smooth="yes"/>
			<point x="604" y="1456"/>
			<point x="759" y="1222"/>
			<point x="759" y="1028" type="qcurve" smooth="yes"/>
			<point x="759" y="834"/>
			<point x="605" y="594"/>
			<point x="456" y="594" type="qcurve" smooth="yes"/>
			<point x="171" y="594" type="line"/>
			<point x="171" y="750" type="line"/>
			<point x="456" y="750" type="line" smooth="yes"/>
			<point x="625" y="750"/>
			<point x="752" y="910"/>
			<point x="752" y="1028" type="qcurve" smooth="yes"/>
			<point x="752" y="1160"/>
			<point x="626" y="1300"/>
			<point x="456" y="1300" type="qcurve" smooth="yes"/>
			<point x="174" y="1300" type="line"/>
			<point x="174" y="0" type="line"/>
		</contour>
		<contour>
			<point x="828" y="0" type="line"/>
			<point x="471" y="673" type="line"/>
			<point x="478" y="674" type="line"/>
			<point x="836" y="0" type="line"/>
		</contour>
	</outline>
	<anchor name="bottom" x="419" y="0"/>
	<anchor name="top" x="418" y="1456"/>
</glyph>
<glyph name="S" format="2">
  <advance width="852"/>
  <unicode hex="0053"/>
  <anchor x="237" y="0" name="bottom"/>
  <anchor x="237" y="1456" name="top"/>
  <outline>
    <contour>
      <point x="90" y="398" type="qcurve" smooth="yes"/>
      <point x="90" y="410" type="line"/>
      <point x="97" y="410" type="line"/>
      <point x="97" y="398" type="line" smooth="yes"/>
      <point x="97" y="266"/>
      <point x="286" y="134"/>
      <point x="435" y="134" type="qcurve" smooth="yes"/>
      <point x="584" y="134"/>
      <point x="765" y="261"/>
      <point x="765" y="371" type="qcurve" smooth="yes"/>
      <point x="765" y="532"/>
      <point x="573" y="710"/>
      <point x="399" y="762" type="qcurve" smooth="yes"/>
      <point x="218" y="816"/>
      <point x="118" y="977"/>
      <point x="118" y="1090" type="qcurve" smooth="yes"/>
      <point x="118" y="1233"/>
      <point x="233" y="1486"/>
      <point x="425" y="1486" type="qcurve" smooth="yes"/>
      <point x="617" y="1486"/>
      <point x="742" y="1248"/>
      <point x="742" y="1064" type="qcurve" smooth="yes"/>
      <point x="742" y="1052" type="line"/>
      <point x="735" y="1052" type="line"/>
      <point x="735" y="1064" type="line" smooth="yes"/>
      <point x="735" y="1180"/>
      <point x="579" y="1322"/>
      <point x="425" y="1322" type="qcurve" smooth="yes"/>
      <point x="271" y="1322"/>
      <point x="125" y="1200"/>
      <point x="125" y="1095" type="qcurve" smooth="yes"/>
      <point x="125" y="987"/>
      <point x="220" y="824"/>
      <point x="402" y="769" type="qcurve" smooth="yes"/>
      <point x="575" y="717"/>
      <point x="772" y="535"/>
      <point x="772" y="371" type="qcurve" smooth="yes"/>
      <point x="772" y="183"/>
      <point x="618" y="-30"/>
      <point x="435" y="-30" type="qcurve" smooth="yes"/>
      <point x="242" y="-30"/>
      <point x="90" y="200"/>
    </contour>
  </outline>
</glyph>
<glyph name="T" format="2">
	<unicode hex="0054"/>
	<advance width="810"/>
	<outline>
		<contour>
			<point x="401" y="0" type="line"/>
			<point x="401" y="1377" type="line"/>
			<point x="408" y="1377" type="line"/>
			<point x="408" y="0" type="line"/>
		</contour>
		<contour>
			<point x="24" y="1298" type="line"/>
			<point x="24" y="1456" type="line"/>
			<point x="786" y="1456" type="line"/>
			<point x="786" y="1298" type="line"/>
		</contour>
	</outline>
	<anchor name="bottom" x="401" y="0"/>
	<anchor name="center" x="404" y="728"/>
	<anchor name="top" x="404" y="1456"/>
	<anchor name="cy_descender" x="404" y="0"/>
</glyph>
<glyph name="U" format="2">
  <advance width="1176"/>
  <unicode hex="0055"/>
  <anchor x="588" y="0" name="bottom"/>
  <anchor x="750" y="0" name="ogonek"/>
  <anchor x="494" y="1456" name="top"/>
  <anchor x="929" y="1456" name="topright"/>
  <outline>
    <contour>
      <point x="152" y="470" type="qcurve" smooth="yes"/>
      <point x="152" y="1456" type="line"/>
      <point x="159" y="1456" type="line"/>
      <point x="159" y="470" type="line" smooth="yes"/>
      <point x="159" y="300"/>
      <point x="344" y="134"/>
      <point x="494" y="134" type="qcurve" smooth="yes"/>
      <point x="644" y="134"/>
      <point x="829" y="300"/>
      <point x="829" y="470" type="qcurve" smooth="yes"/>
      <point x="829" y="1456" type="line"/>
      <point x="836" y="1456" type="line"/>
      <point x="836" y="470" type="line" smooth="yes"/>
      <point x="836" y="220"/>
      <point x="637" y="-30"/>
      <point x="494" y="-30" type="qcurve" smooth="yes"/>
      <point x="351" y="-30"/>
      <point x="152" y="220"/>
    </contour>
  </outline>
</glyph>
<glyph name="V" format="2">
  <advance width="1180"/>
  <unicode hex="0056"/>
  <anchor x="530" y="0" name="bottom"/>
  <anchor x="530" y="1456" name="top"/>
  <anchor x="550" y="0" name="bottom"/>
  <anchor x="550" y="1456" name="top"/>
  <outline>
    <contour>
      <point x="0" y="1456" type="line"/>
      <point x="4" y="1456" type="line"/>
      <point x="479" y="176" type="line" smooth="yes"/>
      <point x="484" y="164"/>
      <point x="494" y="137"/>
      <point x="497" y="128" type="qcurve"/>
      <point x="503" y="128" type="line"/>
      <point x="506" y="137"/>
      <point x="516" y="164"/>
      <point x="520" y="176" type="qcurve" smooth="yes"/>
      <point x="984" y="1456" type="line"/>
      <point x="1180" y="1456" type="line"/>
      <point x="636" y="-10" type="line"/>
      <point x="544" y="-10" type="line"/>
    </contour>
  </outline>
</glyph>
<glyph name="W" format="2">
  <advance width="1404"/>
  <unicode hex="0057"/>
  <anchor x="701" y="0" name="bottom"/>
  <anchor x="701" y="1456" name="top"/>
  <outline>
    <contour>
      <point x="348" y="-10" type="line"/>
      <point x="50" y="1456" type="line"/>
      <point x="57" y="1456" type="line"/>
      <point x="332" y="108" type="line" smooth="yes"/>
      <point x="339" y="74"/>
      <point x="346" y="33"/>
      <point x="352" y="0" type="qcurve"/>
      <point x="363" y="0" type="line"/>
      <point x="370" y="33"/>
      <point x="379" y="74"/>
      <point x="387" y="108" type="qcurve" smooth="yes"/>
      <point x="694" y="1456" type="line"/>
      <point x="708" y="1456" type="line"/>
      <point x="1028" y="107" type="line" smooth="yes"/>
      <point x="1036" y="74"/>
      <point x="1046" y="33"/>
      <point x="1052" y="0" type="qcurve"/>
      <point x="1062" y="0" type="line"/>
      <point x="1066" y="33"/>
      <point x="1074" y="73"/>
      <point x="1081" y="107" type="qcurve" smooth="yes"/>
      <point x="1347" y="1456" type="line"/>
      <point x="1354" y="1456" type="line"/>
      <point x="1063" y="-10" type="line"/>
      <point x="1050" y="-10" type="line"/>
      <point x="734" y="1318" type="line" smooth="yes"/>
      <point x="726" y="1352"/>
      <point x="712" y="1413"/>
      <point x="705" y="1446" type="qcurve"/>
      <point x="697" y="1446" type="line"/>
      <point x="690" y="1413"/>
      <point x="677" y="1352"/>
      <point x="669" y="1318" type="qcurve" smooth="yes"/>
      <point x="365" y="-10" type="line"/>
    </contour>
  </outline>
</glyph>
<glyph name="X" format="2">
  <advance width="723"/>
  <unicode hex="0058"/>
  <anchor x="361" y="0" name="bottom"/>
  <anchor x="361" y="1456" name="top"/>
  <anchor x="833" y="0" name="cy_descender"/>
  <outline>
    <contour>
      <point x="25" y="0" type="line"/>
      <point x="379" y="806" type="line"/>
      <point x="379" y="806" type="line"/>
      <point x="670" y="1456" type="line"/>
      <point x="678" y="1456" type="line"/>
      <point x="325" y="670" type="line"/>
      <point x="325" y="670" type="line"/>
      <point x="33" y="0" type="line"/>
    </contour>
    <contour>
      <point x="44" y="1456" type="line"/>
      <point x="52" y="1456" type="line"/>
      <point x="343" y="806" type="line"/>
      <point x="343" y="806" type="line"/>
      <point x="698" y="0" type="line"/>
      <point x="690" y="0" type="line"/>
      <point x="397" y="670" type="line"/>
      <point x="397" y="670" type="line"/>
    </contour>
  </outline>
</glyph>
<glyph name="Y" format="2">
  <advance width="785"/>
  <unicode hex="0059"/>
  <anchor x="391" y="0" name="bottom"/>
  <anchor x="391" y="1456" name="top"/>
  <anchor x="-316" y="1074" name="tonos"/>
  <outline>
    <contour>
      <point x="387" y="0" type="line"/>
      <point x="387" y="544" type="line"/>
      <point x="15" y="1456" type="line"/>
      <point x="22" y="1456" type="line"/>
      <point x="343" y="668" type="line" smooth="yes"/>
      <point x="356" y="637"/>
      <point x="375" y="588"/>
      <point x="388" y="551" type="qcurve"/>
      <point x="394" y="551" type="line"/>
      <point x="406" y="588"/>
      <point x="425" y="635"/>
      <point x="439" y="668" type="qcurve" smooth="yes"/>
      <point x="763" y="1456" type="line"/>
      <point x="770" y="1456" type="line"/>
      <point x="394" y="544" type="line"/>
      <point x="394" y="0" type="line"/>
    </contour>
  </outline>
</glyph>
<glyph name="Z" format="2">
	<unicode hex="005A"/>
	<advance width="988"/>
	<outline>
		<contour>
			<point x="65" y="0" type="line"/>
			<point x="65" y="138" type="line"/>
			<point x="866" y="1298" type="line"/>
			<point x="87" y="1298" type="line"/>
			<point x="87" y="1456" type="line"/>
			<point x="890" y="1456" type="line"/>
			<point x="890" y="1316" type="line"/>
			<point x="89" y="158" type="line"/>
			<point x="922" y="158" type="line"/>
			<point x="922" y="0" type="line"/>
		</contour>
	</outline>
	<anchor name="bottom" x="463" y="0"/>
	<anchor name="top" x="494" y="1456"/>
</glyph>
<glyph name="bracketleft" format="2">
  <advance width="519"/>
  <unicode hex="005B"/>
  <outline>
    <contour>
      <point x="144" y="-310" type="line"/>
      <point x="144" y="1456" type="line"/>
      <point x="439" y="1456" type="line"/>
      <point x="439" y="1296" type="line"/>
      <point x="151" y="1296" type="line"/>
      <point x="151" y="-150" type="line"/>
      <point x="439" y="-150" type="line"/>
      <point x="439" y="-310" type="line"/>
    </contour>
  </outline>
</glyph>
<glyph name="backslash" format="2">
  <advance width="516"/>
  <unicode hex="005C"/>
  <outline>
    <contour>
      <point x="0" y="1456" type="line"/>
      <point x="8" y="1456" type="line"/>
      <point x="616" y="-125" type="line"/>
      <point x="608" y="-125" type="line"/>
    </contour>
  </outline>
</glyph>
<glyph name="asciicircum" format="2">
  <advance width="1004"/>
  <unicode hex="005E"/>
  <outline>
    <contour>
      <point x="25" y="720" type="line"/>
      <point x="500" y="1456" type="line"/>
      <point x="508" y="1456" type="line"/>
      <point x="979" y="720" type="line"/>
      <point x="970" y="720" type="line"/>
      <point x="504" y="1450" type="line"/>
      <point x="33" y="720" type="line"/>
    </contour>
  </outline>
</glyph>
<glyph name="a" format="2">
  <advance width="748"/>
  <unicode hex="0061"/>
  <anchor x="318" y="0" name="bottom"/>
  <anchor x="644" y="0" name="ogonek"/>
  <anchor x="381" y="1052" name="top"/>
  <outline>
    <contour>
      <point x="287" y="-20" type="qcurve" smooth="yes"/>
      <point x="201" y="-20"/>
      <point x="90" y="170"/>
      <point x="90" y="310" type="qcurve" smooth="yes"/>
      <point x="90" y="470"/>
      <point x="205" y="648"/>
      <point x="361" y="648" type="qcurve" smooth="yes"/>
      <point x="602" y="648" type="line"/>
      <point x="602" y="516" type="line"/>
      <point x="381" y="516" type="line" smooth="yes"/>
      <point x="241" y="516"/>
      <point x="97" y="410"/>
      <point x="97" y="310" type="qcurve" smooth="yes"/>
      <point x="97" y="220"/>
      <point x="201" y="128"/>
      <point x="311" y="128" type="qcurve" smooth="yes"/>
      <point x="424" y="128"/>
      <point x="599" y="283"/>
      <point x="599" y="365" type="qcurve"/>
      <point x="599" y="720" type="line" smooth="yes"/>
      <point x="599" y="818"/>
      <point x="501" y="934"/>
      <point x="381" y="934" type="qcurve" smooth="yes"/>
      <point x="261" y="934"/>
      <point x="158" y="835"/>
      <point x="158" y="770" type="qcurve" smooth="yes"/>
      <point x="158" y="765" type="line"/>
      <point x="151" y="765" type="line"/>
      <point x="151" y="770" type="line" smooth="yes"/>
      <point x="151" y="940"/>
      <point x="267" y="1082"/>
      <point x="387" y="1082" type="qcurve" smooth="yes"/>
      <point x="501" y="1082"/>
      <point x="606" y="933"/>
      <point x="606" y="720" type="qcurve" smooth="yes"/>
      <point x="606" y="240" type="line" smooth="yes"/>
      <point x="606" y="152"/>
      <point x="623" y="62"/>
      <point x="644" y="11" type="qcurve"/>
      <point x="644" y="0" type="line"/>
      <point x="643" y="0" type="line"/>
      <point x="629" y="25"/>
      <point x="606" y="105"/>
      <point x="603" y="145" type="qcurve"/>
      <point x="575" y="89"/>
      <point x="422" y="-20"/>
    </contour>
  </outline>
</glyph>
<glyph name="b" format="2">
  <advance width="808"/>
  <unicode hex="0062"/>
  <anchor x="375" y="0" name="bottom"/>
  <anchor x="352" y="1536" name="top"/>
  <outline>
    <contour>
      <point x="148" y="0" type="line"/>
      <point x="148" y="1536" type="line"/>
      <point x="155" y="1536" type="line"/>
      <point x="155" y="137" type="line"/>
      <point x="155" y="137" type="line"/>
      <point x="155" y="0" type="line"/>
    </contour>
    <contour>
      <point x="433" y="132" type="qcurve" smooth="yes"/>
      <point x="548" y="129"/>
      <point x="716" y="340"/>
      <point x="716" y="510" type="qcurve" smooth="yes"/>
      <point x="716" y="542" type="line" smooth="yes"/>
      <point x="716" y="726"/>
      <point x="579" y="920"/>
      <point x="435" y="920" type="qcurve" smooth="yes"/>
      <point x="308" y="920"/>
      <point x="155" y="710"/>
      <point x="155" y="549" type="qcurve" smooth="yes"/>
      <point x="155" y="521" type="line" smooth="yes"/>
      <point x="155" y="353"/>
      <point x="307" y="135"/>
    </contour>
    <contour>
      <point x="438" y="-20" type="qcurve" smooth="yes"/>
      <point x="296" y="-20"/>
      <point x="148" y="244"/>
      <point x="148" y="520" type="qcurve" smooth="yes"/>
      <point x="148" y="554" type="line" smooth="yes"/>
      <point x="148" y="777"/>
      <point x="296" y="1072"/>
      <point x="444" y="1072" type="qcurve" smooth="yes"/>
      <point x="583" y="1072"/>
      <point x="723" y="799"/>
      <point x="723" y="542" type="qcurve" smooth="yes"/>
      <point x="723" y="510" type="line" smooth="yes"/>
      <point x="723" y="283"/>
      <point x="579" y="-20"/>
    </contour>
  </outline>
</glyph>
<glyph name="c" format="2">
  <advance width="712"/>
  <unicode hex="0063"/>
  <anchor x="376" y="0" name="bottom"/>
  <anchor x="381" y="1052" name="top"/>
  <outline>
    <contour>
      <point x="85" y="510" type="qcurve" smooth="yes"/>
      <point x="85" y="542" type="line" smooth="yes"/>
      <point x="85" y="780"/>
      <point x="244" y="1082"/>
      <point x="381" y="1082" type="qcurve" smooth="yes"/>
      <point x="508" y="1082"/>
      <point x="643" y="883"/>
      <point x="643" y="715" type="qcurve" smooth="yes"/>
      <point x="643" y="710" type="line"/>
      <point x="636" y="710" type="line"/>
      <point x="636" y="715" type="line" smooth="yes"/>
      <point x="636" y="800"/>
      <point x="505" y="930"/>
      <point x="388" y="930" type="qcurve" smooth="yes"/>
      <point x="236" y="930"/>
      <point x="92" y="705"/>
      <point x="92" y="542" type="qcurve" smooth="yes"/>
      <point x="92" y="510" type="line" smooth="yes"/>
      <point x="92" y="347"/>
      <point x="236" y="122"/>
      <point x="388" y="122" type="qcurve" smooth="yes"/>
      <point x="518" y="122"/>
      <point x="634" y="252"/>
      <point x="634" y="337" type="qcurve" smooth="yes"/>
      <point x="634" y="342" type="line"/>
      <point x="641" y="342" type="line"/>
      <point x="641" y="337" type="line" smooth="yes"/>
      <point x="641" y="167"/>
      <point x="511" y="-30"/>
      <point x="381" y="-30" type="qcurve" smooth="yes"/>
      <point x="234" y="-30"/>
      <point x="85" y="272"/>
    </contour>
  </outline>
</glyph>
<glyph name="d" format="2">
  <advance width="809"/>
  <unicode hex="0064"/>
  <anchor x="399.0" y="0" name="bottom"/>
  <anchor x="656.0" y="1313" name="center"/>
  <anchor x="359.0" y="1536" name="top"/>
  <anchor x="732.0" y="1052" name="topright"/>
  <outline>
    <contour>
      <point x="654" y="1536" type="line"/>
      <point x="661" y="1536" type="line"/>
      <point x="661" y="0" type="line"/>
      <point x="654" y="0" type="line"/>
      <point x="654" y="367" type="line"/>
      <point x="654" y="367" type="line"/>
    </contour>
    <contour>
      <point x="373" y="920" type="qcurve"/>
      <point x="209" y="920"/>
      <point x="92" y="703"/>
      <point x="92" y="542" type="qcurve" smooth="yes"/>
      <point x="92" y="510" type="line" smooth="yes"/>
      <point x="92" y="350"/>
      <point x="242" y="132"/>
      <point x="375" y="132" type="qcurve" smooth="yes"/>
      <point x="501" y="132"/>
      <point x="653" y="337"/>
      <point x="653" y="521" type="qcurve" smooth="yes"/>
      <point x="653" y="549" type="line" smooth="yes"/>
      <point x="653" y="710"/>
      <point x="500" y="920"/>
    </contour>
    <contour>
      <point x="338" y="1072" type="qcurve"/>
      <point x="516" y="1072"/>
      <point x="660" y="761"/>
      <point x="660" y="554" type="qcurve" smooth="yes"/>
      <point x="660" y="520" type="line" smooth="yes"/>
      <point x="660" y="270"/>
      <point x="510" y="-20"/>
      <point x="338" y="-20" type="qcurve"/>
      <point x="238" y="-20"/>
      <point x="85" y="273"/>
      <point x="85" y="510" type="qcurve" smooth="yes"/>
      <point x="85" y="542" type="line" smooth="yes"/>
      <point x="85" y="799"/>
      <point x="240" y="1072"/>
    </contour>
  </outline>
</glyph>
<glyph name="e" format="2">
  <advance width="1093"/>
  <unicode hex="0065"/>
  <anchor x="389" y="0" name="bottom"/>
  <anchor x="500" y="0" name="ogonek"/>
  <anchor x="374" y="1052" name="top"/>
  <outline>
    <contour>
      <point x="269" y="510" type="qcurve" smooth="yes"/>
      <point x="269" y="542" type="line" smooth="yes"/>
      <point x="269" y="780"/>
      <point x="425" y="1082"/>
      <point x="560" y="1082" type="qcurve" smooth="yes"/>
      <point x="695" y="1082"/>
      <point x="832" y="840"/>
      <point x="832" y="560" type="qcurve" smooth="yes"/>
      <point x="832" y="484" type="line"/>
      <point x="272" y="484" type="line"/>
      <point x="272" y="632" type="line"/>
      <point x="823" y="632" type="line"/>
      <point x="823" y="656" type="line" smooth="yes"/>
      <point x="823" y="770"/>
      <point x="691" y="930"/>
      <point x="569" y="930" type="qcurve" smooth="yes"/>
      <point x="421" y="930"/>
      <point x="275" y="705"/>
      <point x="275" y="542" type="qcurve" smooth="yes"/>
      <point x="275" y="510" type="line" smooth="yes"/>
      <point x="275" y="347"/>
      <point x="429" y="122"/>
      <point x="577" y="122" type="qcurve" smooth="yes"/>
      <point x="678" y="122"/>
      <point x="792" y="178"/>
      <point x="840" y="270" type="qcurve"/>
      <point x="845" y="268" type="line"/>
      <point x="827" y="125"/>
      <point x="703" y="-30"/>
      <point x="582" y="-30" type="qcurve" smooth="yes"/>
      <point x="425" y="-30"/>
      <point x="269" y="272"/>
    </contour>
  </outline>
</glyph>
<glyph name="f" format="2">
	<unicode hex="0066"/>
	<advance width="418"/>
	<outline>
		<contour>
			<point x="196" y="0" type="line"/>
			<point x="196" y="1227" type="line" smooth="yes"/>
			<point x="196" y="1414"/>
			<point x="300" y="1556"/>
			<point x="381" y="1556" type="qcurve" smooth="yes"/>
			<point x="406" y="1556"/>
			<point x="471" y="1547"/>
			<point x="496" y="1540" type="qcurve"/>
			<point x="486" y="1392" type="line"/>
			<point x="464" y="1396"/>
			<point x="414" y="1402"/>
			<point x="388" y="1402" type="qcurve" smooth="yes"/>
			<point x="306" y="1402"/>
			<point x="203" y="1332"/>
			<point x="203" y="1227" type="qcurve" smooth="yes"/>
			<point x="203" y="992" type="line"/>
			<point x="203" y="970" type="line"/>
			<point x="203" y="0" type="line"/>
		</contour>
		<contour>
			<point x="25" y="910" type="line"/>
			<point x="25" y="1052" type="line"/>
			<point x="197" y="1052" type="line"/>
			<point x="199" y="1052" type="line"/>
			<point x="428" y="1052" type="line"/>
			<point x="428" y="910" type="line"/>
		</contour>
	</outline>
	<anchor name="bottom" x="198" y="0"/>
	<anchor name="top" x="208" y="1536"/>
</glyph>
<glyph name="g" format="2">
  <advance width="803"/>
  <unicode hex="0067"/>
  <anchor x="389" y="-416" name="bottom"/>
  <anchor x="376" y="1052" name="top"/>
  <outline>
    <contour>
      <point x="383" y="-436" type="qcurve" smooth="yes"/>
      <point x="276" y="-436"/>
      <point x="135" y="-330"/>
      <point x="101" y="-222" type="qcurve"/>
      <point x="140" y="-183" type="line"/>
      <point x="178" y="-219"/>
      <point x="293" y="-274"/>
      <point x="385" y="-274" type="qcurve"/>
      <point x="508" y="-274"/>
      <point x="651" y="-120"/>
      <point x="651" y="20" type="qcurve" smooth="yes"/>
      <point x="651" y="915" type="line"/>
      <point x="651" y="915" type="line"/>
      <point x="651" y="1052" type="line"/>
      <point x="655" y="1052" type="line"/>
      <point x="655" y="20" type="line" smooth="yes"/>
      <point x="655" y="-230"/>
      <point x="496" y="-436"/>
    </contour>
    <contour>
      <point x="377" y="136" type="qcurve" smooth="yes"/>
      <point x="490" y="136"/>
      <point x="650" y="298"/>
      <point x="650" y="507" type="qcurve" smooth="yes"/>
      <point x="650" y="535" type="line" smooth="yes"/>
      <point x="650" y="768"/>
      <point x="495" y="924"/>
      <point x="366" y="924" type="qcurve" smooth="yes"/>
      <point x="219" y="924"/>
      <point x="89" y="706"/>
      <point x="89" y="546" type="qcurve" smooth="yes"/>
      <point x="89" y="514" type="line" smooth="yes"/>
      <point x="89" y="354"/>
      <point x="220" y="136"/>
    </contour>
    <contour>
      <point x="365" y="-20" type="qcurve" smooth="yes"/>
      <point x="232" y="-20"/>
      <point x="85" y="230"/>
      <point x="85" y="510" type="qcurve" smooth="yes"/>
      <point x="85" y="542" type="line" smooth="yes"/>
      <point x="85" y="772"/>
      <point x="234" y="1072"/>
      <point x="367" y="1072" type="qcurve" smooth="yes"/>
      <point x="489" y="1072"/>
      <point x="653" y="769"/>
      <point x="653" y="531" type="qcurve" smooth="yes"/>
      <point x="653" y="505" type="line" smooth="yes"/>
      <point x="653" y="282"/>
      <point x="490" y="-20"/>
    </contour>
  </outline>
</glyph>
<glyph name="h" format="2">
  <advance width="780"/>
  <unicode hex="0068"/>
  <anchor x="390" y="0" name="bottom"/>
  <anchor x="151" y="1327" name="center"/>
  <anchor x="153" y="1536" name="top"/>
  <anchor x="638" y="0" name="engtail"/>
  <outline>
    <contour>
      <point x="155" y="0" type="line"/>
      <point x="148" y="0" type="line"/>
      <point x="148" y="1536" type="line"/>
      <point x="155" y="1536" type="line"/>
    </contour>
    <contour>
      <point x="152" y="916" type="line"/>
      <point x="204" y="986"/>
      <point x="355" y="1072"/>
      <point x="442" y="1072" type="qcurve" smooth="yes"/>
      <point x="550" y="1072"/>
      <point x="642" y="933"/>
      <point x="642" y="706" type="qcurve" smooth="yes"/>
      <point x="642" y="0" type="line"/>
      <point x="635" y="0" type="line"/>
      <point x="635" y="707" type="line" smooth="yes"/>
      <point x="635" y="815"/>
      <point x="515" y="916"/>
      <point x="411" y="916" type="qcurve" smooth="yes"/>
      <point x="329" y="916"/>
      <point x="193" y="818"/>
      <point x="152" y="744" type="qcurve"/>
    </contour>
  </outline>
</glyph>
<glyph name="k" format="2">
  <advance width="681"/>
  <unicode hex="006B"/>
  <anchor x="423" y="0" name="bottom"/>
  <anchor x="367" y="1456" name="top"/>
  <outline>
    <contour>
      <point x="148" y="0" type="line"/>
      <point x="148" y="1456" type="line"/>
      <point x="155" y="1456" type="line"/>
      <point x="155" y="0" type="line"/>
    </contour>
    <contour>
      <point x="688" y="0" type="line"/>
      <point x="278" y="608" type="line"/>
      <point x="283" y="613" type="line"/>
      <point x="697" y="0" type="line"/>
    </contour>
    <contour>
      <point x="152" y="460" type="line"/>
      <point x="152" y="470" type="line"/>
      <point x="667" y="1052" type="line"/>
      <point x="674" y="1052" type="line"/>
    </contour>
  </outline>
</glyph>
<glyph name="l" format="2">
	<unicode hex="006C"/>
	<advance width="319"/>
	<outline>
		<contour>
			<point x="156" y="0" type="line"/>
			<point x="156" y="1536" type="line"/>
			<point x="163" y="1536" type="line"/>
			<point x="163" y="0" type="line"/>
		</contour>
	</outline>
	<anchor name="bottom" x="159" y="0"/>
	<anchor name="center" x="159" y="791"/>
	<anchor name="top" x="159" y="1536"/>
	<anchor name="topright" x="362" y="1052"/>
	<anchor name="yu_dash" x="159" y="542"/>
</glyph>
<glyph name="m" format="2">
  <advance width="1211"/>
  <unicode hex="006D"/>
  <anchor x="615" y="0" name="bottom"/>
  <anchor x="615" y="1052" name="top"/>
  <outline>
    <contour>
      <point x="148" y="0" type="line"/>
      <point x="148" y="1052" type="line"/>
      <point x="155" y="1052" type="line"/>
      <point x="155" y="839" type="line"/>
      <point x="155" y="0" type="line"/>
    </contour>
    <contour>
      <point x="614" y="706" type="qcurve" smooth="yes"/>
      <point x="614" y="0" type="line"/>
      <point x="607" y="0" type="line"/>
      <point x="607" y="707" type="line" smooth="yes"/>
      <point x="607" y="830"/>
      <point x="497" y="916"/>
      <point x="391" y="916" type="qcurve" smooth="yes"/>
      <point x="298" y="916"/>
      <point x="206" y="839"/>
      <point x="152" y="744" type="qcurve"/>
      <point x="152" y="916" type="line"/>
      <point x="197" y="970"/>
      <point x="348" y="1072"/>
      <point x="435" y="1072" type="qcurve" smooth="yes"/>
      <point x="516" y="1072"/>
      <point x="614" y="953"/>
    </contour>
    <contour>
      <point x="610" y="835" type="line"/>
      <point x="659" y="988"/>
      <point x="806" y="1072"/>
      <point x="897" y="1072" type="qcurve"/>
      <point x="997" y="1072"/>
      <point x="1073" y="929"/>
      <point x="1073" y="706" type="qcurve" smooth="yes"/>
      <point x="1073" y="0" type="line"/>
      <point x="1066" y="0" type="line"/>
      <point x="1066" y="707" type="line" smooth="yes"/>
      <point x="1066" y="812"/>
      <point x="972" y="916"/>
      <point x="877" y="916" type="qcurve"/>
      <point x="797" y="916"/>
      <point x="690" y="857"/>
      <point x="610" y="691" type="qcurve"/>
    </contour>
  </outline>
</glyph>
<glyph name="n" format="2">
  <advance width="780"/>
  <unicode hex="006E"/>
  <anchor x="410" y="0" name="bottom"/>
  <anchor x="418" y="1052" name="top"/>
  <anchor x="638" y="0" name="engtail"/>
  <outline>
    <contour>
      <point x="148" y="0" type="line"/>
      <point x="148" y="1052" type="line"/>
      <point x="155" y="1052" type="line"/>
      <point x="155" y="843" type="line"/>
      <point x="155" y="0" type="line"/>
    </contour>
    <contour>
      <point x="152" y="744" type="qcurve"/>
      <point x="152" y="916" type="line"/>
      <point x="241" y="1006"/>
      <point x="368" y="1072"/>
      <point x="459" y="1072" type="qcurve"/>
      <point x="549" y="1072"/>
      <point x="642" y="929"/>
      <point x="642" y="706" type="qcurve" smooth="yes"/>
      <point x="642" y="0" type="line"/>
      <point x="635" y="0" type="line"/>
      <point x="635" y="707" type="line" smooth="yes"/>
      <point x="635" y="801"/>
      <point x="523" y="916"/>
      <point x="418" y="916" type="qcurve"/>
      <point x="348" y="916"/>
      <point x="242" y="865"/>
    </contour>
  </outline>
</glyph>
<glyph name="o" format="2">
  <advance width="790"/>
  <unicode hex="006F"/>
  <anchor x="393" y="0" name="bottom"/>
  <anchor x="393" y="526" name="center"/>
  <anchor x="510" y="0" name="ogonek"/>
  <anchor x="393" y="1052" name="top"/>
  <anchor x="509" y="1052" name="topright"/>
  <anchor x="86" y="536" name="yu_dash"/>
  <outline>
    <contour>
      <point x="85" y="510" type="qcurve" smooth="yes"/>
      <point x="85" y="542" type="line" smooth="yes"/>
      <point x="85" y="779"/>
      <point x="244" y="1082"/>
      <point x="395" y="1082" type="qcurve" smooth="yes"/>
      <point x="546" y="1082"/>
      <point x="705" y="777"/>
      <point x="705" y="542" type="qcurve" smooth="yes"/>
      <point x="705" y="510" type="line" smooth="yes"/>
      <point x="705" y="269"/>
      <point x="545" y="-30"/>
      <point x="395" y="-30" type="qcurve" smooth="yes"/>
      <point x="246" y="-30"/>
      <point x="85" y="269"/>
    </contour>
    <contour>
      <point x="89" y="542" type="qcurve" smooth="yes"/>
      <point x="89" y="510" type="line" smooth="yes"/>
      <point x="89" y="347"/>
      <point x="243" y="122"/>
      <point x="395" y="122" type="qcurve" smooth="yes"/>
      <point x="547" y="122"/>
      <point x="701" y="347"/>
      <point x="701" y="510" type="qcurve" smooth="yes"/>
      <point x="701" y="542" type="line" smooth="yes"/>
      <point x="701" y="705"/>
      <point x="547" y="930"/>
      <point x="395" y="930" type="qcurve" smooth="yes"/>
      <point x="243" y="930"/>
      <point x="89" y="705"/>
    </contour>
  </outline>
</glyph>
<glyph name="p" format="2">
  <advance width="808"/>
  <unicode hex="0070"/>
  <anchor x="361" y="0" name="bottom"/>
  <anchor x="361" y="1052" name="top"/>
  <outline>
    <contour>
      <point x="148" y="-416" type="line"/>
      <point x="148" y="1052" type="line"/>
      <point x="155" y="1052" type="line"/>
      <point x="155" y="915" type="line"/>
      <point x="155" y="915" type="line"/>
      <point x="155" y="-416" type="line"/>
    </contour>
    <contour>
      <point x="424" y="132" type="qcurve" smooth="yes"/>
      <point x="566" y="132"/>
      <point x="716" y="350"/>
      <point x="716" y="510" type="qcurve" smooth="yes"/>
      <point x="716" y="542" type="line" smooth="yes"/>
      <point x="716" y="703"/>
      <point x="591" y="920"/>
      <point x="427" y="920" type="qcurve"/>
      <point x="300" y="920"/>
      <point x="155" y="720"/>
      <point x="155" y="559" type="qcurve" smooth="yes"/>
      <point x="155" y="511" type="line" smooth="yes"/>
      <point x="155" y="307"/>
      <point x="307" y="132"/>
    </contour>
    <contour>
      <point x="464" y="-20" type="qcurve" smooth="yes"/>
      <point x="306" y="-20"/>
      <point x="148" y="237"/>
      <point x="148" y="510" type="qcurve" smooth="yes"/>
      <point x="148" y="564" type="line" smooth="yes"/>
      <point x="148" y="763"/>
      <point x="296" y="1072"/>
      <point x="464" y="1072" type="qcurve" smooth="yes"/>
      <point x="568" y="1072"/>
      <point x="723" y="779"/>
      <point x="723" y="542" type="qcurve" smooth="yes"/>
      <point x="723" y="510" type="line" smooth="yes"/>
      <point x="723" y="293"/>
      <point x="570" y="-20"/>
    </contour>
  </outline>
</glyph>
<glyph name="q" format="2">
  <advance width="805"/>
  <unicode hex="0071"/>
  <anchor x="375" y="0" name="bottom"/>
  <anchor x="375" y="1052" name="top"/>
  <outline>
    <contour>
      <point x="653" y="-416" type="line"/>
      <point x="653" y="628" type="line"/>
      <point x="653" y="628" type="line"/>
      <point x="653" y="1052" type="line"/>
      <point x="660" y="1052" type="line"/>
      <point x="660" y="-416" type="line"/>
    </contour>
    <contour>
      <point x="375" y="132" type="qcurve" smooth="yes"/>
      <point x="501" y="132"/>
      <point x="653" y="337"/>
      <point x="653" y="521" type="qcurve" smooth="yes"/>
      <point x="653" y="549" type="line" smooth="yes"/>
      <point x="653" y="710"/>
      <point x="500" y="920"/>
      <point x="373" y="920" type="qcurve"/>
      <point x="209" y="920"/>
      <point x="92" y="703"/>
      <point x="92" y="542" type="qcurve" smooth="yes"/>
      <point x="92" y="510" type="line" smooth="yes"/>
      <point x="92" y="350"/>
      <point x="242" y="132"/>
    </contour>
    <contour>
      <point x="338" y="-20" type="qcurve"/>
      <point x="238" y="-20"/>
      <point x="85" y="273"/>
      <point x="85" y="510" type="qcurve" smooth="yes"/>
      <point x="85" y="542" type="line" smooth="yes"/>
      <point x="85" y="799"/>
      <point x="240" y="1072"/>
      <point x="338" y="1072" type="qcurve"/>
      <point x="507" y="1072"/>
      <point x="660" y="761"/>
      <point x="660" y="554" type="qcurve" smooth="yes"/>
      <point x="660" y="520" type="line" smooth="yes"/>
      <point x="660" y="262"/>
      <point x="510" y="-20"/>
    </contour>
  </outline>
</glyph>
<glyph name="r" format="2">
  <advance width="519"/>
  <unicode hex="0072"/>
  <anchor x="238" y="0" name="bottom"/>
  <anchor x="319" y="1052" name="top"/>
  <outline>
    <contour>
      <point x="148" y="0" type="line"/>
      <point x="148" y="1052" type="line"/>
      <point x="155" y="1052" type="line"/>
      <point x="155" y="829" type="line"/>
      <point x="155" y="0" type="line"/>
    </contour>
    <contour>
      <point x="151" y="736" type="qcurve"/>
      <point x="151" y="921" type="line"/>
      <point x="195" y="1000"/>
      <point x="328" y="1082"/>
      <point x="409" y="1082" type="qcurve" smooth="yes"/>
      <point x="431" y="1082"/>
      <point x="479" y="1072"/>
      <point x="489" y="1068" type="qcurve"/>
      <point x="489" y="896" type="line"/>
      <point x="469" y="900"/>
      <point x="425" y="904"/>
      <point x="399" y="904" type="qcurve" smooth="yes"/>
      <point x="310" y="904"/>
      <point x="185" y="811"/>
    </contour>
  </outline>
</glyph>
<glyph name="s" format="2">
  <advance width="655"/>
  <unicode hex="0073"/>
  <anchor x="332" y="0" name="bottom"/>
  <anchor x="321" y="1052" name="top"/>
  <outline>
    <contour>
      <point x="80" y="310" type="line"/>
      <point x="87" y="310" type="line"/>
      <point x="87" y="305" type="line" smooth="yes"/>
      <point x="87" y="214"/>
      <point x="221" y="122"/>
      <point x="331" y="122" type="qcurve" smooth="yes"/>
      <point x="441" y="122"/>
      <point x="568" y="210"/>
      <point x="568" y="280" type="qcurve" smooth="yes"/>
      <point x="568" y="382"/>
      <point x="478" y="514"/>
      <point x="348" y="551" type="qcurve" smooth="yes"/>
      <point x="225" y="586"/>
      <point x="103" y="690"/>
      <point x="103" y="790" type="qcurve" smooth="yes"/>
      <point x="103" y="923"/>
      <point x="217" y="1082"/>
      <point x="324" y="1082" type="qcurve" smooth="yes"/>
      <point x="430" y="1082"/>
      <point x="543" y="914"/>
      <point x="543" y="769" type="qcurve" smooth="yes"/>
      <point x="543" y="760" type="line"/>
      <point x="536" y="760" type="line"/>
      <point x="536" y="769" type="line" smooth="yes"/>
      <point x="536" y="844"/>
      <point x="433" y="930"/>
      <point x="321" y="930" type="qcurve" smooth="yes"/>
      <point x="212" y="930"/>
      <point x="110" y="850"/>
      <point x="110" y="790" type="qcurve" smooth="yes"/>
      <point x="110" y="700"/>
      <point x="229" y="593"/>
      <point x="350" y="558" type="qcurve" smooth="yes"/>
      <point x="484" y="519"/>
      <point x="575" y="385"/>
      <point x="575" y="280" type="qcurve" smooth="yes"/>
      <point x="575" y="154"/>
      <point x="461" y="-30"/>
      <point x="331" y="-30" type="qcurve" smooth="yes"/>
      <point x="219" y="-30"/>
      <point x="80" y="130"/>
      <point x="80" y="305" type="qcurve" smooth="yes"/>
    </contour>
  </outline>
</glyph>
<glyph name="t" format="2">
  <advance width="468"/>
  <unicode hex="0074"/>
  <anchor x="309" y="0" name="bottom"/>
  <anchor x="197" y="619" name="center"/>
  <anchor x="191" y="1312" name="top"/>
  <anchor x="518" y="1052" name="topright"/>
  <outline>
    <contour>
      <point x="0" y="910" type="line"/>
      <point x="0" y="1052" type="line"/>
      <point x="418" y="1052" type="line"/>
      <point x="418" y="910" type="line"/>
    </contour>
    <contour>
      <point x="188" y="260" type="qcurve" smooth="yes"/>
      <point x="188" y="966" type="line"/>
      <point x="188" y="996" type="line"/>
      <point x="188" y="1312" type="line"/>
      <point x="195" y="1312" type="line"/>
      <point x="195" y="260" type="line" smooth="yes"/>
      <point x="195" y="190"/>
      <point x="244" y="130"/>
      <point x="302" y="130" type="qcurve" smooth="yes"/>
      <point x="330" y="130"/>
      <point x="390" y="142"/>
      <point x="418" y="152" type="qcurve"/>
      <point x="418" y="0" type="line"/>
      <point x="392" y="-12"/>
      <point x="333" y="-29"/>
      <point x="302" y="-30" type="qcurve"/>
      <point x="243" y="-30"/>
      <point x="188" y="110"/>
    </contour>
  </outline>
</glyph>
<glyph name="u" format="2">
	<unicode hex="0075"/>
	<advance width="780"/>
	<outline>
		<contour>
			<point x="321" y="-20" type="qcurve"/>
			<point x="231" y="-20"/>
			<point x="138" y="123"/>
			<point x="138" y="346" type="qcurve" smooth="yes"/>
			<point x="138" y="1052" type="line"/>
			<point x="145" y="1052" type="line"/>
			<point x="145" y="345" type="line" smooth="yes"/>
			<point x="145" y="251"/>
			<point x="257" y="136"/>
			<point x="362" y="136" type="qcurve"/>
			<point x="452" y="136"/>
			<point x="587" y="234"/>
			<point x="628" y="308" type="qcurve"/>
			<point x="628" y="136" type="line"/>
			<point x="573" y="63"/>
			<point x="412" y="-20"/>
		</contour>
		<contour>
			<point x="625" y="0" type="line"/>
			<point x="625" y="310" type="line"/>
			<point x="625" y="1052" type="line"/>
			<point x="632" y="1052" type="line"/>
			<point x="632" y="0" type="line"/>
		</contour>
	</outline>
	<anchor name="bottom" x="392" y="0"/>
	<anchor name="ogonek" x="629" y="0"/>
	<anchor name="top" x="386" y="1052"/>
	<anchor name="topright" x="628" y="1052"/>
	<anchor name="cy_descender" x="627" y="0"/>
</glyph>
<glyph name="v" format="2">
  <advance width="660"/>
  <unicode hex="0076"/>
  <anchor x="334" y="0" name="bottom"/>
  <anchor x="334" y="1052" name="top"/>
  <outline>
    <contour>
      <point x="0" y="1052" type="line"/>
      <point x="7" y="1052" type="line"/>
      <point x="293" y="137" type="line" smooth="yes"/>
      <point x="307" y="92"/>
      <point x="327" y="27"/>
      <point x="331" y="7" type="qcurve"/>
      <point x="337" y="7" type="line"/>
      <point x="341" y="27"/>
      <point x="359" y="92"/>
      <point x="373" y="137" type="qcurve" smooth="yes"/>
      <point x="653" y="1052" type="line"/>
      <point x="660" y="1052" type="line"/>
      <point x="340" y="0" type="line"/>
      <point x="327" y="0" type="line"/>
    </contour>
  </outline>
</glyph>
<glyph name="w" format="2">
  <advance width="1168"/>
  <unicode hex="0077"/>
  <anchor x="584" y="0" name="bottom"/>
  <anchor x="584" y="1052" name="top"/>
  <outline>
    <contour>
      <point x="25" y="1052" type="line"/>
      <point x="32" y="1052" type="line"/>
      <point x="248" y="141" type="line" smooth="yes"/>
      <point x="258" y="101"/>
      <point x="270" y="47"/>
      <point x="278" y="7" type="qcurve"/>
      <point x="284" y="7" type="line"/>
      <point x="294" y="47"/>
      <point x="308" y="101"/>
      <point x="319" y="141" type="qcurve" smooth="yes"/>
      <point x="567" y="1052" type="line"/>
      <point x="581" y="1052" type="line"/>
      <point x="837" y="141" type="line" smooth="yes"/>
      <point x="848" y="101"/>
      <point x="863" y="47"/>
      <point x="872" y="7" type="qcurve"/>
      <point x="878" y="7" type="line"/>
      <point x="885" y="47"/>
      <point x="899" y="100"/>
      <point x="909" y="141" type="qcurve" smooth="yes"/>
      <point x="1136" y="1052" type="line"/>
      <point x="1143" y="1052" type="line"/>
      <point x="881" y="0" type="line"/>
      <point x="869" y="0" type="line"/>
      <point x="619" y="889" type="line" smooth="yes"/>
      <point x="608" y="929"/>
      <point x="587" y="1006"/>
      <point x="577" y="1046" type="qcurve"/>
      <point x="571" y="1046" type="line"/>
      <point x="561" y="1006"/>
      <point x="541" y="929"/>
      <point x="530" y="889" type="qcurve" smooth="yes"/>
      <point x="288" y="0" type="line"/>
      <point x="274" y="0" type="line"/>
    </contour>
  </outline>
</glyph>
<glyph name="x" format="2">
  <advance width="776"/>
  <unicode hex="0078"/>
  <anchor x="384" y="0" name="bottom"/>
  <anchor x="384" y="1052" name="top"/>
  <anchor x="750" y="0" name="cy_descender"/>
  <outline>
    <contour>
      <point x="21" y="0" type="line"/>
      <point x="415" y="584" type="line"/>
      <point x="415" y="584" type="line"/>
      <point x="731" y="1052" type="line"/>
      <point x="738" y="1052" type="line"/>
      <point x="354" y="484" type="line"/>
      <point x="354" y="484" type="line"/>
      <point x="27" y="0" type="line"/>
    </contour>
    <contour>
      <point x="43" y="1052" type="line"/>
      <point x="51" y="1052" type="line"/>
      <point x="360" y="583" type="line"/>
      <point x="360" y="583" type="line"/>
      <point x="755" y="0" type="line"/>
      <point x="747" y="0" type="line"/>
      <point x="419" y="484" type="line"/>
      <point x="419" y="484" type="line"/>
    </contour>
  </outline>
</glyph>
<glyph name="y" format="2">
  <advance width="742"/>
  <unicode hex="0079"/>
  <anchor x="678" y="0" name="bottom"/>
  <anchor x="377" y="1052" name="top"/>
  <outline>
    <contour>
      <point x="-34" y="-416" type="qcurve"/>
      <point x="-34" y="-258" type="line"/>
      <point x="-15" y="-266"/>
      <point x="56" y="-276"/>
      <point x="95" y="-276" type="qcurve" smooth="yes"/>
      <point x="160" y="-276"/>
      <point x="322" y="-155"/>
      <point x="389" y="42" type="qcurve"/>
      <point x="388" y="42" type="line"/>
      <point x="10" y="1052" type="line"/>
      <point x="17" y="1052" type="line"/>
      <point x="338" y="203" type="line" smooth="yes"/>
      <point x="353" y="163"/>
      <point x="376" y="103"/>
      <point x="390" y="63" type="qcurve"/>
      <point x="395" y="63" type="line"/>
      <point x="408" y="103"/>
      <point x="428" y="163"/>
      <point x="442" y="203" type="qcurve" smooth="yes"/>
      <point x="735" y="1052" type="line"/>
      <point x="742" y="1052" type="line"/>
      <point x="397" y="42" type="line" smooth="yes"/>
      <point x="287" y="-280"/>
      <point x="169" y="-436"/>
      <point x="96" y="-436" type="qcurve" smooth="yes"/>
      <point x="56" y="-436"/>
      <point x="-6" y="-426"/>
    </contour>
  </outline>
</glyph>
<glyph name="z" format="2">
  <advance width="670"/>
  <unicode hex="007A"/>
  <anchor x="329" y="0" name="bottom"/>
  <anchor x="329" y="1052" name="top"/>
  <outline>
    <contour>
      <point x="70" y="0" type="line"/>
      <point x="70" y="5" type="line"/>
      <point x="571" y="1045" type="line"/>
      <point x="78" y="1045" type="line"/>
      <point x="78" y="1052" type="line"/>
      <point x="580" y="1052" type="line"/>
      <point x="580" y="1047" type="line"/>
      <point x="79" y="7" type="line"/>
      <point x="606" y="7" type="line"/>
      <point x="606" y="0" type="line"/>
    </contour>
  </outline>
</glyph>
<glyph name="braceleft" format="2">
  <advance width="519"/>
  <unicode hex="007B"/>
  <outline>
    <contour>
      <point x="489" y="-312" type="line"/>
      <point x="263" y="-312"/>
      <point x="189" y="-32"/>
      <point x="226" y="123" type="qcurve" smooth="yes"/>
      <point x="276" y="334" type="line" smooth="yes"/>
      <point x="301" y="441"/>
      <point x="176" y="508"/>
      <point x="64" y="508" type="qcurve"/>
      <point x="64" y="640" type="line"/>
      <point x="176" y="640"/>
      <point x="301" y="707"/>
      <point x="276" y="814" type="qcurve" smooth="yes"/>
      <point x="226" y="1025" type="line" smooth="yes"/>
      <point x="189" y="1180"/>
      <point x="263" y="1460"/>
      <point x="489" y="1460" type="qcurve"/>
      <point x="489" y="1314" type="line"/>
      <point x="341" y="1314"/>
      <point x="204" y="1146"/>
      <point x="233" y="1025" type="qcurve" smooth="yes"/>
      <point x="283" y="814" type="line" smooth="yes"/>
      <point x="303" y="730"/>
      <point x="229" y="600"/>
      <point x="131" y="574" type="qcurve"/>
      <point x="229" y="548"/>
      <point x="303" y="418"/>
      <point x="283" y="334" type="qcurve" smooth="yes"/>
      <point x="233" y="123" type="line" smooth="yes"/>
      <point x="204" y="2"/>
      <point x="341" y="-166"/>
      <point x="489" y="-166" type="qcurve"/>
    </contour>
  </outline>
</glyph>
<glyph name="braceright" format="2">
  <advance width="519"/>
  <unicode hex="007D"/>
  <outline>
    <contour>
      <point x="30" y="-312" type="qcurve"/>
      <point x="30" y="-166" type="line"/>
      <point x="178" y="-166"/>
      <point x="315" y="2"/>
      <point x="286" y="123" type="qcurve" smooth="yes"/>
      <point x="236" y="334" type="line" smooth="yes"/>
      <point x="216" y="418"/>
      <point x="291" y="548"/>
      <point x="389" y="574" type="qcurve"/>
      <point x="291" y="600"/>
      <point x="216" y="730"/>
      <point x="236" y="814" type="qcurve" smooth="yes"/>
      <point x="286" y="1025" type="line" smooth="yes"/>
      <point x="315" y="1146"/>
      <point x="178" y="1314"/>
      <point x="30" y="1314" type="qcurve"/>
      <point x="30" y="1460" type="line"/>
      <point x="256" y="1460"/>
      <point x="330" y="1180"/>
      <point x="293" y="1025" type="qcurve" smooth="yes"/>
      <point x="243" y="814" type="line" smooth="yes"/>
      <point x="218" y="707"/>
      <point x="343" y="640"/>
      <point x="455" y="640" type="qcurve"/>
      <point x="455" y="508" type="line"/>
      <point x="343" y="508"/>
      <point x="218" y="441"/>
      <point x="243" y="334" type="qcurve" smooth="yes"/>
      <point x="293" y="123" type="line" smooth="yes"/>
      <point x="330" y="-32"/>
      <point x="256" y="-312"/>
    </contour>
  </outline>
</glyph>
<glyph name="asciitilde" format="2">
	<unicode hex="007E"/>
	<advance width="1024"/>
	<outline>
		<contour>
			<point x="45" y="632" type="qcurve"/>
			<point x="45" y="640" type="line"/>
			<point x="88" y="697"/>
			<point x="224" y="767"/>
			<point x="289" y="767" type="qcurve" smooth="yes"/>
			<point x="356" y="767"/>
			<point x="460" y="725"/>
			<point x="524" y="693" type="qcurve" smooth="yes"/>
			<point x="582" y="664"/>
			<point x="678" y="624"/>
			<point x="742" y="624" type="qcurve" smooth="yes"/>
			<point x="806" y="624"/>
			<point x="925" y="698"/>
			<point x="978" y="753" type="qcurve"/>
			<point x="978" y="746" type="line"/>
			<point x="931" y="694"/>
			<point x="807" y="617"/>
			<point x="742" y="617" type="qcurve" smooth="yes"/>
			<point x="681" y="617"/>
			<point x="583" y="656"/>
			<point x="521" y="687" type="qcurve" smooth="yes"/>
			<point x="461" y="717"/>
			<point x="358" y="760"/>
			<point x="289" y="760" type="qcurve" smooth="yes"/>
			<point x="224" y="760"/>
			<point x="92" y="692"/>
		</contour>
	</outline>
</glyph>
<glyph name="currency" format="2">
	<unicode hex="00A4"/>
	<advance width="1032"/>
	<outline>
		<contour>
			<point x="198" y="713" type="qcurve"/>
			<point x="198" y="565"/>
			<point x="376" y="373"/>
			<point x="513" y="373" type="qcurve" smooth="yes"/>
			<point x="650" y="373"/>
			<point x="826" y="564"/>
			<point x="826" y="712" type="qcurve" smooth="yes"/>
			<point x="826" y="859"/>
			<point x="650" y="1049"/>
			<point x="513" y="1049" type="qcurve" smooth="yes"/>
			<point x="376" y="1049"/>
			<point x="198" y="860"/>
		</contour>
		<contour>
			<point x="191" y="714" type="qcurve"/>
			<point x="191" y="863"/>
			<point x="372" y="1056"/>
			<point x="513" y="1056" type="qcurve" smooth="yes"/>
			<point x="653" y="1056"/>
			<point x="833" y="863"/>
			<point x="833" y="713" type="qcurve" smooth="yes"/>
			<point x="833" y="562"/>
			<point x="653" y="366"/>
			<point x="513" y="366" type="qcurve" smooth="yes"/>
			<point x="372" y="366"/>
			<point x="191" y="562"/>
		</contour>
		<contour>
			<point x="989" y="1105" type="line"/>
			<point x="788" y="899" type="line"/>
			<point x="666" y="1026" type="line"/>
			<point x="867" y="1232" type="line"/>
		</contour>
		<contour>
			<point x="335" y="421" type="line"/>
			<point x="133" y="215" type="line"/>
			<point x="12" y="341" type="line"/>
			<point x="214" y="546" type="line"/>
		</contour>
		<contour>
			<point x="897" y="221" type="line"/>
			<point x="695" y="427" type="line"/>
			<point x="818" y="553" type="line"/>
			<point x="1020" y="348" type="line"/>
		</contour>
		<contour>
			<point x="244" y="907" type="line"/>
			<point x="42" y="1113" type="line"/>
			<point x="163" y="1239" type="line"/>
			<point x="365" y="1033" type="line"/>
		</contour>
	</outline>
	<guideline y="901" identifier="bRYxxRaQQf"/>
	<guideline y="555" identifier="917FhrihjR"/>
</glyph>
<glyph name="yen" format="2">
  <advance width="820"/>
  <unicode hex="00A5"/>
  <outline>
    <contour>
      <point x="46" y="303" type="line"/>
      <point x="46" y="462" type="line"/>
      <point x="786" y="462" type="line"/>
      <point x="786" y="303" type="line"/>
    </contour>
    <contour>
      <point x="46" y="628" type="line"/>
      <point x="46" y="788" type="line"/>
      <point x="284" y="788" type="line"/>
      <point x="343" y="669" type="line"/>
      <point x="377" y="669" type="line"/>
      <point x="425" y="788" type="line"/>
      <point x="786" y="788" type="line"/>
      <point x="786" y="628" type="line"/>
    </contour>
    <contour>
      <point x="395" y="0" type="line"/>
      <point x="395" y="548" type="line"/>
      <point x="-35" y="1456" type="line"/>
      <point x="-30" y="1456" type="line"/>
      <point x="257" y="849" type="line" smooth="yes"/>
      <point x="271" y="819"/>
      <point x="325" y="715"/>
      <point x="343" y="679" type="qcurve"/>
      <point x="363" y="679" type="line"/>
      <point x="362" y="715"/>
      <point x="379" y="860"/>
      <point x="395" y="895" type="qcurve" smooth="yes"/>
      <point x="654" y="1456" type="line"/>
      <point x="855" y="1456" type="line"/>
      <point x="400" y="548" type="line"/>
      <point x="400" y="0" type="line"/>
    </contour>
  </outline>
</glyph>
<glyph name="section" format="2">
  <advance width="913"/>
  <unicode hex="00A7"/>
  <guideline y="1658" identifier="QzZ5gIiCyn"/>
  <guideline y="578" identifier="9Hxjf2sdFw"/>
  <outline>
    <contour>
      <point x="522" y="133" type="qcurve"/>
      <point x="522" y="252" type="line"/>
      <point x="632" y="252"/>
      <point x="785" y="376"/>
      <point x="785" y="463" type="qcurve"/>
      <point x="785" y="556"/>
      <point x="618" y="672"/>
      <point x="437" y="734" type="qcurve" smooth="yes"/>
      <point x="268" y="789"/>
      <point x="185" y="962"/>
      <point x="185" y="1140" type="qcurve" smooth="yes"/>
      <point x="185" y="1305"/>
      <point x="312" y="1490"/>
      <point x="454" y="1491" type="qcurve" smooth="yes"/>
      <point x="587" y="1492"/>
      <point x="713" y="1294"/>
      <point x="712" y="1100" type="qcurve"/>
      <point x="705" y="1100" type="line"/>
      <point x="706" y="1200"/>
      <point x="575" y="1337"/>
      <point x="454" y="1337" type="qcurve" smooth="yes"/>
      <point x="314" y="1337"/>
      <point x="192" y="1239"/>
      <point x="192" y="1140" type="qcurve" smooth="yes"/>
      <point x="192" y="1049"/>
      <point x="315" y="961"/>
      <point x="515" y="897" type="qcurve" smooth="yes"/>
      <point x="699" y="839"/>
      <point x="792" y="637"/>
      <point x="792" y="463" type="qcurve" smooth="yes"/>
      <point x="792" y="300"/>
      <point x="701" y="133"/>
    </contour>
    <contour>
      <point x="377" y="894" type="qcurve"/>
      <point x="377" y="756" type="line"/>
      <point x="256" y="756"/>
      <point x="132" y="649"/>
      <point x="132" y="567" type="qcurve" smooth="yes"/>
      <point x="132" y="487"/>
      <point x="278" y="387"/>
      <point x="467" y="317" type="qcurve" smooth="yes"/>
      <point x="643" y="252"/>
      <point x="722" y="39"/>
      <point x="722" y="-136" type="qcurve" smooth="yes"/>
      <point x="722" y="-298"/>
      <point x="565" y="-509"/>
      <point x="430" y="-509" type="qcurve" smooth="yes"/>
      <point x="295" y="-509"/>
      <point x="119" y="-301"/>
      <point x="119" y="-70" type="qcurve"/>
      <point x="126" y="-70" type="line"/>
      <point x="126" y="-230"/>
      <point x="324" y="-355"/>
      <point x="430" y="-355" type="qcurve" smooth="yes"/>
      <point x="547" y="-355"/>
      <point x="715" y="-244"/>
      <point x="715" y="-136" type="qcurve" smooth="yes"/>
      <point x="715" y="-35"/>
      <point x="573" y="94"/>
      <point x="371" y="161" type="qcurve" smooth="yes"/>
      <point x="186" y="222"/>
      <point x="125" y="410"/>
      <point x="125" y="567" type="qcurve" smooth="yes"/>
      <point x="125" y="717"/>
      <point x="206" y="894"/>
    </contour>
  </outline>
</glyph>
<glyph name="copyright" format="2">
	<unicode hex="00A9"/>
	<advance width="1373"/>
	<outline>
		<contour>
			<point x="985" y="546" type="qcurve"/>
			<point x="992" y="546" type="line"/>
			<point x="992" y="390"/>
			<point x="846" y="205"/>
			<point x="688" y="205" type="qcurve" smooth="yes"/>
			<point x="548" y="205"/>
			<point x="374" y="437"/>
			<point x="374" y="664" type="qcurve" smooth="yes"/>
			<point x="374" y="703" type="line" smooth="yes"/>
			<point x="374" y="931"/>
			<point x="548" y="1170"/>
			<point x="689" y="1170" type="qcurve" smooth="yes"/>
			<point x="845" y="1170"/>
			<point x="993" y="983"/>
			<point x="993" y="829" type="qcurve"/>
			<point x="986" y="829" type="line"/>
			<point x="986" y="914"/>
			<point x="832" y="1006"/>
			<point x="689" y="1006" type="qcurve" smooth="yes"/>
			<point x="541" y="1006"/>
			<point x="381" y="849"/>
			<point x="381" y="703" type="qcurve" smooth="yes"/>
			<point x="381" y="664" type="line" smooth="yes"/>
			<point x="381" y="518"/>
			<point x="540" y="362"/>
			<point x="688" y="362" type="qcurve" smooth="yes"/>
			<point x="831" y="362"/>
			<point x="985" y="457"/>
		</contour>
		<contour>
			<point x="45" y="687" type="qcurve" smooth="yes"/>
			<point x="45" y="400"/>
			<point x="422" y="4"/>
			<point x="687" y="4" type="qcurve" smooth="yes"/>
			<point x="951" y="4"/>
			<point x="1328" y="400"/>
			<point x="1328" y="687" type="qcurve" smooth="yes"/>
			<point x="1328" y="975"/>
			<point x="951" y="1367"/>
			<point x="687" y="1367" type="qcurve" smooth="yes"/>
			<point x="422" y="1367"/>
			<point x="45" y="975"/>
		</contour>
		<contour>
			<point x="38" y="687" type="qcurve" smooth="yes"/>
			<point x="38" y="1039"/>
			<point x="360" y="1519"/>
			<point x="686" y="1519" type="qcurve" smooth="yes"/>
			<point x="1011" y="1519"/>
			<point x="1335" y="1039"/>
			<point x="1335" y="687" type="qcurve" smooth="yes"/>
			<point x="1335" y="337"/>
			<point x="1011" y="-147"/>
			<point x="686" y="-147" type="qcurve" smooth="yes"/>
			<point x="360" y="-147"/>
			<point x="38" y="337"/>
		</contour>
	</outline>
	<guideline y="901" identifier="0Pjz0qKr8z"/>
	<guideline y="555" identifier="sJo8BlDiJ7"/>
</glyph>
<glyph name="ordfeminine" format="2">
  <advance width="621"/>
  <unicode hex="00AA"/>
  <guideline y="1681" identifier="3CJlALCfkl"/>
  <guideline y="909" identifier="Zdl6NZVQAy"/>
  <outline>
    <contour>
      <point x="459" y="870" type="line" smooth="yes"/>
      <point x="459" y="821"/>
      <point x="470" y="748"/>
      <point x="485" y="706" type="qcurve"/>
      <point x="492" y="706" type="line"/>
      <point x="478" y="749"/>
      <point x="466" y="826"/>
      <point x="466" y="870" type="qcurve" smooth="yes"/>
      <point x="466" y="1201" type="line" smooth="yes"/>
      <point x="466" y="1338"/>
      <point x="395" y="1477"/>
      <point x="317" y="1477" type="qcurve" smooth="yes"/>
      <point x="239" y="1477"/>
      <point x="166" y="1356"/>
      <point x="166" y="1261" type="qcurve" smooth="yes"/>
      <point x="166" y="1234" type="line"/>
      <point x="173" y="1234" type="line"/>
      <point x="173" y="1247" type="line" smooth="yes"/>
      <point x="173" y="1289"/>
      <point x="241" y="1346"/>
      <point x="319" y="1346" type="qcurve" smooth="yes"/>
      <point x="389" y="1346"/>
      <point x="459" y="1276"/>
      <point x="459" y="1202" type="qcurve" smooth="yes"/>
    </contour>
    <contour>
      <point x="462" y="1149" type="line"/>
      <point x="330" y="1149" type="line" smooth="yes"/>
      <point x="242" y="1149"/>
      <point x="144" y="1028"/>
      <point x="144" y="920" type="qcurve" smooth="yes"/>
      <point x="144" y="816"/>
      <point x="212" y="692"/>
      <point x="278" y="692" type="qcurve" smooth="yes"/>
      <point x="353" y="692"/>
      <point x="439" y="794"/>
      <point x="463" y="852" type="qcurve"/>
      <point x="463" y="974" type="line"/>
      <point x="424" y="909"/>
      <point x="342" y="822"/>
      <point x="278" y="822" type="qcurve" smooth="yes"/>
      <point x="215" y="822"/>
      <point x="151" y="879"/>
      <point x="151" y="920" type="qcurve" smooth="yes"/>
      <point x="151" y="969"/>
      <point x="241" y="1042"/>
      <point x="331" y="1042" type="qcurve" smooth="yes"/>
      <point x="462" y="1042" type="line"/>
    </contour>
  </outline>
</glyph>
<glyph name="guillemotleft" format="2">
  <advance width="712"/>
  <unicode hex="00AB"/>
  <guideline y="901" identifier="ZftBQarVKw"/>
  <guideline y="555" identifier="MVJpdoVRVd"/>
  <outline>
    <contour>
      <point x="108" y="547" type="line"/>
      <point x="108" y="555" type="line"/>
      <point x="213" y="949" type="line"/>
      <point x="375" y="949" type="line"/>
      <point x="117" y="551" type="line"/>
      <point x="375" y="153" type="line"/>
      <point x="213" y="153" type="line"/>
    </contour>
    <contour>
      <point x="358" y="548" type="line"/>
      <point x="358" y="554" type="line"/>
      <point x="463" y="949" type="line"/>
      <point x="625" y="949" type="line"/>
      <point x="367" y="551" type="line"/>
      <point x="625" y="153" type="line"/>
      <point x="463" y="153" type="line"/>
    </contour>
  </outline>
</glyph>
<glyph name="logicalnot" format="2">
	<unicode hex="00AC"/>
	<advance width="850"/>
	<outline>
		<contour>
			<point x="754" y="801" type="line"/>
			<point x="754" y="376" type="line"/>
			<point x="747" y="376" type="line"/>
			<point x="747" y="637" type="line"/>
			<point x="58" y="637" type="line"/>
			<point x="58" y="801" type="line"/>
		</contour>
	</outline>
</glyph>
<glyph name="registered" format="2">
	<unicode hex="00AE"/>
	<advance width="1373"/>
	<outline>
		<contour>
			<point x="38" y="687" type="qcurve" smooth="yes"/>
			<point x="38" y="1039"/>
			<point x="360" y="1519"/>
			<point x="686" y="1519" type="qcurve" smooth="yes"/>
			<point x="1011" y="1519"/>
			<point x="1335" y="1039"/>
			<point x="1335" y="687" type="qcurve" smooth="yes"/>
			<point x="1335" y="337"/>
			<point x="1011" y="-147"/>
			<point x="686" y="-147" type="qcurve" smooth="yes"/>
			<point x="360" y="-147"/>
			<point x="38" y="337"/>
		</contour>
		<contour>
			<point x="45" y="687" type="qcurve" smooth="yes"/>
			<point x="45" y="400"/>
			<point x="422" y="4"/>
			<point x="687" y="4" type="qcurve" smooth="yes"/>
			<point x="951" y="4"/>
			<point x="1328" y="400"/>
			<point x="1328" y="687" type="qcurve" smooth="yes"/>
			<point x="1328" y="975"/>
			<point x="951" y="1367"/>
			<point x="687" y="1367" type="qcurve" smooth="yes"/>
			<point x="422" y="1367"/>
			<point x="45" y="975"/>
		</contour>
		<contour>
			<point x="515" y="225" type="line"/>
			<point x="515" y="1158" type="line"/>
			<point x="679" y="1158" type="line" smooth="yes"/>
			<point x="774" y="1158"/>
			<point x="881" y="1010"/>
			<point x="881" y="859" type="qcurve" smooth="yes"/>
			<point x="881" y="709"/>
			<point x="789" y="597"/>
			<point x="744" y="597" type="qcurve" smooth="yes"/>
			<point x="519" y="597" type="line"/>
			<point x="519" y="738" type="line"/>
			<point x="705" y="738" type="line" smooth="yes"/>
			<point x="784" y="738"/>
			<point x="874" y="787"/>
			<point x="874" y="859" type="qcurve" smooth="yes"/>
			<point x="874" y="940"/>
			<point x="798" y="1006"/>
			<point x="680" y="1007" type="qcurve" smooth="yes"/>
			<point x="522" y="1007" type="line"/>
			<point x="522" y="225" type="line"/>
		</contour>
		<contour>
			<point x="900" y="225" type="line"/>
			<point x="681" y="672" type="line"/>
			<point x="683" y="672" type="line"/>
			<point x="705" y="638"/>
			<point x="744" y="559"/>
			<point x="758" y="530" type="qcurve" smooth="yes"/>
			<point x="904" y="233" type="line"/>
			<point x="904" y="225" type="line"/>
		</contour>
	</outline>
</glyph>
<glyph name="degree" format="2">
	<unicode hex="00B0"/>
	<advance width="531"/>
	<outline>
		<contour>
			<point x="130" y="1217" type="qcurve"/>
			<point x="130" y="1342"/>
			<point x="202" y="1477"/>
			<point x="268" y="1477" type="qcurve" smooth="yes"/>
			<point x="333" y="1477"/>
			<point x="402" y="1342"/>
			<point x="402" y="1217" type="qcurve"/>
			<point x="402" y="1093"/>
			<point x="333" y="960"/>
			<point x="268" y="960" type="qcurve" smooth="yes"/>
			<point x="202" y="960"/>
			<point x="130" y="1093"/>
		</contour>
		<contour>
			<point x="137" y="1217" type="qcurve"/>
			<point x="137" y="1162"/>
			<point x="214" y="1088"/>
			<point x="268" y="1088" type="qcurve" smooth="yes"/>
			<point x="322" y="1088"/>
			<point x="395" y="1162"/>
			<point x="395" y="1217" type="qcurve" smooth="yes"/>
			<point x="395" y="1273"/>
			<point x="322" y="1349"/>
			<point x="268" y="1349" type="qcurve" smooth="yes"/>
			<point x="214" y="1349"/>
			<point x="137" y="1273"/>
		</contour>
	</outline>
</glyph>
<glyph name="plusminus" format="2">
  <advance width="1024"/>
  <unicode hex="00B1"/>
  <outline>
    <contour>
      <point x="154" y="689" type="line"/>
      <point x="154" y="696" type="line"/>
      <point x="865" y="696" type="line"/>
      <point x="865" y="689" type="line"/>
    </contour>
    <contour>
      <point x="510" y="321" type="line"/>
      <point x="510" y="1064" type="line"/>
      <point x="517" y="1064" type="line"/>
      <point x="517" y="321" type="line"/>
    </contour>
    <contour>
      <point x="145" y="157" type="line"/>
      <point x="145" y="164" type="line"/>
      <point x="879" y="164" type="line"/>
      <point x="879" y="157" type="line"/>
    </contour>
  </outline>
</glyph>
<glyph name="twosuperior" format="2">
	<unicode hex="00B2"/>
	<advance width="423"/>
	<outline>
		<contour>
			<point x="80" y="697" type="line"/>
			<point x="80" y="805" type="line"/>
			<point x="253" y="1005" type="line" smooth="yes"/>
			<point x="293" y="1051"/>
			<point x="320" y="1176"/>
			<point x="320" y="1249" type="qcurve" smooth="yes"/>
			<point x="320" y="1297"/>
			<point x="268" y="1347"/>
			<point x="209" y="1347" type="qcurve" smooth="yes"/>
			<point x="144" y="1347"/>
			<point x="84" y="1283"/>
			<point x="84" y="1208" type="qcurve" smooth="yes"/>
			<point x="84" y="1198" type="line"/>
			<point x="77" y="1198" type="line"/>
			<point x="77" y="1208" type="line" smooth="yes"/>
			<point x="77" y="1342"/>
			<point x="145" y="1487"/>
			<point x="210" y="1487" type="qcurve" smooth="yes"/>
			<point x="266" y="1487"/>
			<point x="327" y="1364"/>
			<point x="327" y="1249" type="qcurve" smooth="yes"/>
			<point x="327" y="1173"/>
			<point x="299" y="1048"/>
			<point x="259" y="1002" type="qcurve" smooth="yes"/>
			<point x="122" y="845" type="line"/>
			<point x="355" y="845" type="line"/>
			<point x="355" y="697" type="line"/>
		</contour>
	</outline>
</glyph>
<glyph name="threesuperior" format="2">
  <advance width="440"/>
  <unicode hex="00B3"/>
  <outline>
    <contour>
      <point x="63" y="920" type="qcurve" smooth="yes"/>
      <point x="63" y="923" type="line"/>
      <point x="70" y="923" type="line"/>
      <point x="70" y="920" type="line" smooth="yes"/>
      <point x="70" y="875"/>
      <point x="146" y="824"/>
      <point x="212" y="824" type="qcurve" smooth="yes"/>
      <point x="281" y="824"/>
      <point x="349" y="876"/>
      <point x="349" y="921" type="qcurve" smooth="yes"/>
      <point x="349" y="978"/>
      <point x="273" y="1028"/>
      <point x="200" y="1029" type="qcurve" smooth="yes"/>
      <point x="116" y="1029" type="line"/>
      <point x="116" y="1151" type="line"/>
      <point x="200" y="1151" type="line" smooth="yes"/>
      <point x="272" y="1151"/>
      <point x="336" y="1207"/>
      <point x="336" y="1258" type="qcurve" smooth="yes"/>
      <point x="336" y="1299"/>
      <point x="279" y="1349"/>
      <point x="210" y="1349" type="qcurve" smooth="yes"/>
      <point x="153" y="1349"/>
      <point x="81" y="1299"/>
      <point x="81" y="1256" type="qcurve" smooth="yes"/>
      <point x="81" y="1252" type="line"/>
      <point x="74" y="1252" type="line"/>
      <point x="74" y="1256" type="line" smooth="yes"/>
      <point x="74" y="1367"/>
      <point x="143" y="1487"/>
      <point x="207" y="1487" type="qcurve" smooth="yes"/>
      <point x="273" y="1487"/>
      <point x="343" y="1368"/>
      <point x="343" y="1258" type="qcurve" smooth="yes"/>
      <point x="343" y="1203"/>
      <point x="299" y="1118"/>
      <point x="266" y="1098" type="qcurve"/>
      <point x="266" y="1097" type="line"/>
      <point x="307" y="1076"/>
      <point x="356" y="988"/>
      <point x="356" y="921" type="qcurve" smooth="yes"/>
      <point x="356" y="808"/>
      <point x="279" y="686"/>
      <point x="208" y="686" type="qcurve" smooth="yes"/>
      <point x="138" y="686"/>
      <point x="63" y="807"/>
    </contour>
  </outline>
</glyph>
<glyph name="micro" format="2">
  <advance width="834"/>
  <unicode hex="00B5"/>
  <outline>
    <contour>
      <point x="242" y="1052" type="line"/>
      <point x="246" y="1052" type="line"/>
      <point x="114" y="371" type="line" smooth="yes"/>
      <point x="89" y="245"/>
      <point x="181" y="136"/>
      <point x="285" y="136" type="qcurve" smooth="yes"/>
      <point x="374" y="136"/>
      <point x="529" y="232"/>
      <point x="582" y="308" type="qcurve"/>
      <point x="726" y="1052" type="line"/>
      <point x="730" y="1052" type="line"/>
      <point x="527" y="0" type="line"/>
      <point x="523" y="0" type="line"/>
      <point x="549" y="135" type="line"/>
      <point x="549" y="135" type="line"/>
      <point x="480" y="62"/>
      <point x="300" y="-20"/>
      <point x="200" y="-20" type="qcurve" smooth="yes"/>
      <point x="154" y="-20"/>
      <point x="79" y="15"/>
      <point x="50" y="42" type="qcurve"/>
      <point x="-38" y="-416" type="line"/>
      <point x="-42" y="-416" type="line"/>
    </contour>
  </outline>
</glyph>
<glyph name="paragraph" format="2">
	<unicode hex="00B6"/>
	<advance width="603"/>
	<outline>
		<contour>
			<point x="254" y="-146" type="line"/>
			<point x="247" y="-146" type="line"/>
			<point x="247" y="1160" type="line"/>
			<point x="213" y="1160" type="line" smooth="yes"/>
			<point x="137" y="1160"/>
			<point x="56" y="1244"/>
			<point x="56" y="1308" type="qcurve" smooth="yes"/>
			<point x="56" y="1371"/>
			<point x="137" y="1456"/>
			<point x="213" y="1456" type="qcurve" smooth="yes"/>
			<point x="254" y="1456" type="line"/>
		</contour>
		<contour>
			<point x="396" y="1459" type="line"/>
			<point x="403" y="1459" type="line"/>
			<point x="403" y="-146" type="line"/>
			<point x="396" y="-146" type="line"/>
		</contour>
	</outline>
	<guideline y="901" identifier="27539Lsr1A"/>
	<guideline y="555" identifier="e34wUdCmXR"/>
</glyph>
<glyph name="periodcentered" format="2">
  <advance width="402"/>
  <unicode hex="00B7"/>
  <outline>
    <contour>
      <point x="176" y="749" type="qcurve" smooth="yes"/>
      <point x="176" y="759"/>
      <point x="189" y="773"/>
      <point x="201" y="773" type="qcurve" smooth="yes"/>
      <point x="213" y="773"/>
      <point x="226" y="759"/>
      <point x="226" y="749" type="qcurve" smooth="yes"/>
      <point x="226" y="739"/>
      <point x="213" y="725"/>
      <point x="201" y="725" type="qcurve" smooth="yes"/>
      <point x="189" y="725"/>
      <point x="176" y="739"/>
    </contour>
  </outline>
</glyph>
<glyph name="onesuperior" format="2">
  <advance width="593"/>
  <unicode hex="00B9"/>
  <outline>
    <contour>
      <point x="123" y="1255" type="line"/>
      <point x="123" y="1411" type="line"/>
      <point x="330" y="1486" type="line"/>
      <point x="343" y="1486" type="line"/>
      <point x="343" y="697" type="line"/>
      <point x="336" y="697" type="line"/>
      <point x="336" y="1332" type="line"/>
    </contour>
  </outline>
</glyph>
<glyph name="ordmasculine" format="2">
  <advance width="615"/>
  <unicode hex="00BA"/>
  <guideline y="1975" identifier="Jnt0R9CyOf"/>
  <outline>
    <contour>
      <point x="124" y="1043" type="qcurve"/>
      <point x="124" y="1124" type="line"/>
      <point x="124" y="1278"/>
      <point x="223" y="1477"/>
      <point x="307" y="1477" type="qcurve" smooth="yes"/>
      <point x="392" y="1477"/>
      <point x="491" y="1278"/>
      <point x="491" y="1124" type="qcurve"/>
      <point x="491" y="1043" type="line"/>
      <point x="491" y="889"/>
      <point x="393" y="691"/>
      <point x="309" y="691" type="qcurve" smooth="yes"/>
      <point x="224" y="691"/>
      <point x="124" y="889"/>
    </contour>
    <contour>
      <point x="128" y="1124" type="qcurve"/>
      <point x="128" y="1043" type="line"/>
      <point x="128" y="952"/>
      <point x="217" y="830"/>
      <point x="309" y="830" type="qcurve" smooth="yes"/>
      <point x="398" y="830"/>
      <point x="487" y="952"/>
      <point x="487" y="1043" type="qcurve"/>
      <point x="487" y="1124" type="line"/>
      <point x="487" y="1213"/>
      <point x="397" y="1336"/>
      <point x="307" y="1336" type="qcurve" smooth="yes"/>
      <point x="217" y="1336"/>
      <point x="128" y="1213"/>
    </contour>
  </outline>
</glyph>
<glyph name="questiondown" format="2">
  <advance width="609"/>
  <unicode hex="00BF"/>
  <guideline y="-181" identifier="apukwP5ffL"/>
  <guideline y="921" identifier="5ZPZZL8Rim"/>
  <outline>
    <contour>
      <point x="371" y="1043" type="qcurve" smooth="yes"/>
      <point x="371" y="1033"/>
      <point x="358" y="1019"/>
      <point x="346" y="1019" type="qcurve" smooth="yes"/>
      <point x="334" y="1019"/>
      <point x="321" y="1033"/>
      <point x="321" y="1043" type="qcurve" smooth="yes"/>
      <point x="321" y="1053"/>
      <point x="334" y="1067"/>
      <point x="346" y="1067" type="qcurve" smooth="yes"/>
      <point x="358" y="1067"/>
      <point x="371" y="1053"/>
    </contour>
    <contour>
      <point x="549" y="53" type="line"/>
      <point x="549" y="33" type="line" smooth="yes"/>
      <point x="549" y="-132"/>
      <point x="425" y="-328"/>
      <point x="319" y="-328" type="qcurve" smooth="yes"/>
      <point x="214" y="-328"/>
      <point x="94" y="-122"/>
      <point x="94" y="48" type="qcurve" smooth="yes"/>
      <point x="94" y="180"/>
      <point x="158" y="312"/>
      <point x="239" y="393" type="qcurve" smooth="yes"/>
      <point x="308" y="462"/>
      <point x="349" y="573"/>
      <point x="349" y="668" type="qcurve" smooth="yes"/>
      <point x="349" y="738" type="line"/>
      <point x="356" y="738" type="line"/>
      <point x="356" y="668" type="line" smooth="yes"/>
      <point x="356" y="573"/>
      <point x="318" y="464"/>
      <point x="246" y="389" type="qcurve" smooth="yes"/>
      <point x="163" y="306"/>
      <point x="101" y="179"/>
      <point x="101" y="48" type="qcurve" smooth="yes"/>
      <point x="101" y="-52"/>
      <point x="207" y="-166"/>
      <point x="317" y="-166" type="qcurve" smooth="yes"/>
      <point x="427" y="-166"/>
      <point x="542" y="-62"/>
      <point x="542" y="33" type="qcurve" smooth="yes"/>
      <point x="542" y="53" type="line"/>
    </contour>
  </outline>
</glyph>
<glyph name="multiply" format="2">
  <advance width="907"/>
  <unicode hex="00D7"/>
  <outline>
    <contour>
      <point x="93" y="295" type="line"/>
      <point x="88" y="299" type="line"/>
      <point x="815" y="1043" type="line"/>
      <point x="820" y="1038" type="line"/>
    </contour>
    <contour>
      <point x="815" y="295" type="line"/>
      <point x="88" y="1038" type="line"/>
      <point x="93" y="1043" type="line"/>
      <point x="820" y="299" type="line"/>
    </contour>
  </outline>
</glyph>
<glyph name="Thorn" format="2">
  <advance width="808"/>
  <unicode hex="00DE"/>
  <guideline y="901" identifier="i9jYwjBDP4"/>
  <guideline y="555" identifier="T8KKW8oxop"/>
  <outline>
    <contour>
      <point x="170" y="0" type="line"/>
      <point x="170" y="1456" type="line"/>
      <point x="174" y="1456" type="line"/>
      <point x="174" y="0" type="line"/>
    </contour>
    <contour>
      <point x="172" y="315" type="line"/>
      <point x="172" y="465" type="line"/>
      <point x="452" y="465" type="line" smooth="yes"/>
      <point x="612" y="465"/>
      <point x="754" y="604"/>
      <point x="754" y="738" type="qcurve" smooth="yes"/>
      <point x="754" y="868"/>
      <point x="612" y="1012"/>
      <point x="452" y="1012" type="qcurve" smooth="yes"/>
      <point x="172" y="1012" type="line"/>
      <point x="172" y="1163" type="line"/>
      <point x="419" y="1163" type="line" smooth="yes"/>
      <point x="583" y="1163"/>
      <point x="758" y="936"/>
      <point x="758" y="738" type="qcurve" smooth="yes"/>
      <point x="758" y="542"/>
      <point x="583" y="315"/>
      <point x="419" y="315" type="qcurve" smooth="yes"/>
    </contour>
  </outline>
</glyph>
<glyph name="germandbls" format="2">
  <advance width="841"/>
  <unicode hex="00DF"/>
  <outline>
    <contour>
      <point x="155" y="1032" type="qcurve" name="hr00"/>
      <point x="155" y="0" type="line"/>
      <point x="148" y="0" type="line"/>
      <point x="148" y="1032" type="line" smooth="yes"/>
      <point x="148" y="1251"/>
      <point x="271" y="1474"/>
      <point x="374" y="1474" type="qcurve" smooth="yes"/>
      <point x="471" y="1474"/>
      <point x="572" y="1303"/>
      <point x="572" y="1155" type="qcurve" smooth="yes"/>
      <point x="572" y="1098"/>
      <point x="545" y="1015"/>
      <point x="506" y="962" type="qcurve" smooth="yes"/>
      <point x="464" y="905"/>
      <point x="433" y="822"/>
      <point x="433" y="771" type="qcurve"/>
      <point x="433" y="724"/>
      <point x="522" y="645"/>
      <point x="645" y="547" type="qcurve" smooth="yes"/>
      <point x="703" y="501"/>
      <point x="793" y="376"/>
      <point x="793" y="302" type="qcurve" smooth="yes"/>
      <point x="793" y="143"/>
      <point x="678" y="-20"/>
      <point x="578" y="-20" type="qcurve" smooth="yes"/>
      <point x="479" y="-20"/>
      <point x="371" y="147"/>
      <point x="371" y="295" type="qcurve" smooth="yes"/>
      <point x="371" y="304" type="line"/>
      <point x="378" y="304" type="line"/>
      <point x="378" y="295" type="line" smooth="yes"/>
      <point x="378" y="211"/>
      <point x="483" y="131"/>
      <point x="578" y="131" type="qcurve" smooth="yes"/>
      <point x="679" y="131"/>
      <point x="786" y="218"/>
      <point x="786" y="302" type="qcurve" smooth="yes"/>
      <point x="786" y="375"/>
      <point x="697" y="496"/>
      <point x="640" y="542" type="qcurve" smooth="yes"/>
      <point x="517" y="639"/>
      <point x="426" y="721"/>
      <point x="426" y="771" type="qcurve"/>
      <point x="426" y="823"/>
      <point x="458" y="908"/>
      <point x="501" y="966" type="qcurve" smooth="yes"/>
      <point x="538" y="1017"/>
      <point x="565" y="1097"/>
      <point x="565" y="1155" type="qcurve" smooth="yes"/>
      <point x="565" y="1233"/>
      <point x="456" y="1323"/>
      <point x="374" y="1323" type="qcurve" smooth="yes"/>
      <point x="273" y="1323"/>
      <point x="155" y="1180"/>
    </contour>
  </outline>
</glyph>
<glyph name="ae" format="2">
  <advance width="1238"/>
  <unicode hex="00E6"/>
  <anchor x="633" y="1052" name="top"/>
  <outline>
    <contour>
      <point x="271" y="-20" type="qcurve" smooth="yes"/>
      <point x="202" y="-20"/>
      <point x="90" y="146"/>
      <point x="90" y="320" type="qcurve" smooth="yes"/>
      <point x="90" y="470"/>
      <point x="216" y="648"/>
      <point x="361" y="648" type="qcurve" smooth="yes"/>
      <point x="602" y="648" type="line"/>
      <point x="602" y="516" type="line"/>
      <point x="381" y="516" type="line" smooth="yes"/>
      <point x="241" y="516"/>
      <point x="97" y="410"/>
      <point x="97" y="320" type="qcurve" smooth="yes"/>
      <point x="97" y="230"/>
      <point x="201" y="128"/>
      <point x="311" y="128" type="qcurve" smooth="yes"/>
      <point x="421" y="128"/>
      <point x="599" y="280"/>
      <point x="599" y="365" type="qcurve"/>
      <point x="599" y="720" type="line" smooth="yes"/>
      <point x="599" y="815"/>
      <point x="501" y="934"/>
      <point x="381" y="934" type="qcurve" smooth="yes"/>
      <point x="261" y="934"/>
      <point x="158" y="835"/>
      <point x="158" y="770" type="qcurve" smooth="yes"/>
      <point x="158" y="765" type="line"/>
      <point x="151" y="765" type="line"/>
      <point x="151" y="770" type="line" smooth="yes"/>
      <point x="151" y="940"/>
      <point x="267" y="1082"/>
      <point x="382" y="1082" type="qcurve" smooth="yes"/>
      <point x="529" y="1082"/>
      <point x="608" y="839"/>
      <point x="606" y="680" type="qcurve"/>
      <point x="625" y="855"/>
      <point x="766" y="1082"/>
      <point x="900" y="1082" type="qcurve" smooth="yes"/>
      <point x="1031" y="1082"/>
      <point x="1156" y="854"/>
      <point x="1159" y="656" type="qcurve"/>
      <point x="1159" y="484" type="line"/>
      <point x="616" y="484" type="line"/>
      <point x="616" y="632" type="line"/>
      <point x="1152" y="632" type="line"/>
      <point x="1152" y="656" type="line" smooth="yes"/>
      <point x="1152" y="770"/>
      <point x="1022" y="930"/>
      <point x="900" y="930" type="qcurve" smooth="yes"/>
      <point x="752" y="930"/>
      <point x="606" y="705"/>
      <point x="606" y="542" type="qcurve" smooth="yes"/>
      <point x="606" y="510" type="line" smooth="yes"/>
      <point x="606" y="347"/>
      <point x="760" y="122"/>
      <point x="922" y="122" type="qcurve" smooth="yes"/>
      <point x="1022" y="122"/>
      <point x="1121" y="210"/>
      <point x="1167" y="270" type="qcurve"/>
      <point x="1173" y="268" type="line"/>
      <point x="1145" y="137"/>
      <point x="1037" y="-30"/>
      <point x="922" y="-30" type="qcurve" smooth="yes"/>
      <point x="817" y="-30"/>
      <point x="625" y="173"/>
      <point x="605" y="365" type="qcurve"/>
      <point x="605" y="143"/>
      <point x="433" y="-20"/>
    </contour>
  </outline>
</glyph>
<glyph name="eth" format="2">
  <advance width="763"/>
  <unicode hex="00F0"/>
  <outline>
    <contour>
      <point x="130" y="1316" type="qcurve"/>
      <point x="189" y="1476" type="line"/>
      <point x="401" y="1401"/>
      <point x="671" y="1008"/>
      <point x="671" y="633" type="qcurve"/>
      <point x="671" y="535" type="line"/>
      <point x="671" y="289"/>
      <point x="527" y="-20"/>
      <point x="385" y="-20" type="qcurve" smooth="yes"/>
      <point x="258" y="-20"/>
      <point x="85" y="265"/>
      <point x="85" y="468" type="qcurve" smooth="yes"/>
      <point x="85" y="708"/>
      <point x="263" y="978"/>
      <point x="388" y="978" type="qcurve" smooth="yes"/>
      <point x="502" y="978"/>
      <point x="669" y="749"/>
      <point x="669" y="614" type="qcurve"/>
      <point x="665" y="614" type="line"/>
      <point x="665" y="685"/>
      <point x="522" y="826"/>
      <point x="388" y="826" type="qcurve" smooth="yes"/>
      <point x="250" y="826"/>
      <point x="92" y="632"/>
      <point x="92" y="468" type="qcurve" smooth="yes"/>
      <point x="92" y="345"/>
      <point x="245" y="132"/>
      <point x="386" y="132" type="qcurve" smooth="yes"/>
      <point x="514" y="132"/>
      <point x="664" y="363"/>
      <point x="664" y="535" type="qcurve" smooth="yes"/>
      <point x="664" y="635" type="line" smooth="yes"/>
      <point x="664" y="984"/>
      <point x="346" y="1250"/>
    </contour>
    <contour>
      <point x="664" y="1274" type="line"/>
      <point x="178" y="1037" type="line"/>
      <point x="113" y="1168" type="line"/>
      <point x="598" y="1404" type="line"/>
    </contour>
  </outline>
</glyph>
<glyph name="divide" format="2">
  <advance width="1024"/>
  <unicode hex="00F7"/>
  <outline>
    <contour>
      <point x="487" y="922" type="qcurve" smooth="yes"/>
      <point x="487" y="933"/>
      <point x="499" y="947"/>
      <point x="512" y="947" type="qcurve" smooth="yes"/>
      <point x="524" y="947"/>
      <point x="537" y="933"/>
      <point x="537" y="922" type="qcurve" smooth="yes"/>
      <point x="537" y="912"/>
      <point x="524" y="898"/>
      <point x="512" y="898" type="qcurve" smooth="yes"/>
      <point x="499" y="898"/>
      <point x="487" y="912"/>
    </contour>
    <contour>
      <point x="487" y="426" type="qcurve" smooth="yes"/>
      <point x="487" y="437"/>
      <point x="499" y="451"/>
      <point x="512" y="451" type="qcurve" smooth="yes"/>
      <point x="524" y="451"/>
      <point x="537" y="437"/>
      <point x="537" y="426" type="qcurve" smooth="yes"/>
      <point x="537" y="416"/>
      <point x="524" y="402"/>
      <point x="512" y="402" type="qcurve" smooth="yes"/>
      <point x="499" y="402"/>
      <point x="487" y="416"/>
    </contour>
    <contour>
      <point x="143" y="671" type="line"/>
      <point x="143" y="678" type="line"/>
      <point x="880" y="678" type="line"/>
      <point x="880" y="671" type="line"/>
    </contour>
  </outline>
</glyph>
<glyph name="thorn" format="2">
  <advance width="808"/>
  <unicode hex="00FE"/>
  <outline>
    <contour>
      <point x="155" y="-416" type="line"/>
      <point x="148" y="-416" type="line"/>
      <point x="148" y="1536" type="line"/>
      <point x="155" y="1536" type="line"/>
      <point x="155" y="928" type="line"/>
    </contour>
    <contour>
      <point x="446" y="132" type="qcurve" smooth="yes"/>
      <point x="586" y="132"/>
      <point x="716" y="350"/>
      <point x="716" y="510" type="qcurve" smooth="yes"/>
      <point x="716" y="542" type="line" smooth="yes"/>
      <point x="716" y="702"/>
      <point x="586" y="920"/>
      <point x="446" y="920" type="qcurve" smooth="yes"/>
      <point x="315" y="920"/>
      <point x="155" y="756"/>
      <point x="155" y="645" type="qcurve" smooth="yes"/>
      <point x="155" y="408" type="line" smooth="yes"/>
      <point x="155" y="285"/>
      <point x="320" y="132"/>
    </contour>
    <contour>
      <point x="430" y="-20" type="qcurve" smooth="yes"/>
      <point x="303" y="-20"/>
      <point x="152" y="147"/>
      <point x="152" y="296" type="qcurve" smooth="yes"/>
      <point x="152" y="761" type="line" smooth="yes"/>
      <point x="152" y="888"/>
      <point x="295" y="1072"/>
      <point x="430" y="1072" type="qcurve" smooth="yes"/>
      <point x="562" y="1072"/>
      <point x="723" y="772"/>
      <point x="723" y="542" type="qcurve" smooth="yes"/>
      <point x="723" y="510" type="line" smooth="yes"/>
      <point x="723" y="280"/>
      <point x="562" y="-20"/>
    </contour>
  </outline>
</glyph>
<glyph name="idotless" format="2">
  <advance width="321"/>
  <unicode hex="0131"/>
  <anchor x="160" y="1052" name="top"/>
  <anchor x="160" y="0" name="bottom"/>
  <anchor x="161" y="0" name="ogonek"/>
  <anchor x="160" y="542" name="yu_dash"/>
  <outline>
    <contour>
      <point x="157" y="0" type="line"/>
      <point x="157" y="1052" type="line"/>
      <point x="164" y="1052" type="line"/>
      <point x="164" y="0" type="line"/>
    </contour>
  </outline>
</glyph>
<glyph name="kgreenlandic" format="2">
  <advance width="833"/>
  <unicode hex="0138"/>
  <outline>
    <contour>
      <point x="162" y="1052" type="line"/>
      <point x="162" y="0" type="line"/>
      <point x="155" y="0" type="line"/>
      <point x="155" y="1052" type="line"/>
    </contour>
    <contour>
      <point x="849" y="1052" type="line"/>
      <point x="339" y="462" type="line"/>
      <point x="159" y="462" type="line"/>
      <point x="159" y="624" type="line"/>
      <point x="254" y="624" type="line"/>
      <point x="625" y="1052" type="line"/>
    </contour>
    <contour>
      <point x="794" y="0" type="line"/>
      <point x="308" y="547" type="line"/>
      <point x="314" y="550" type="line"/>
      <point x="803" y="0" type="line"/>
    </contour>
  </outline>
</glyph>
<glyph name="OE" format="2">
  <advance width="1505"/>
  <unicode hex="0152"/>
  <outline>
    <contour>
      <point x="482" y="-21" type="qcurve" smooth="yes"/>
      <point x="317" y="-21"/>
      <point x="115" y="363"/>
      <point x="115" y="682" type="qcurve" smooth="yes"/>
      <point x="115" y="772" type="line" smooth="yes"/>
      <point x="115" y="1092"/>
      <point x="326" y="1477"/>
      <point x="525" y="1477" type="qcurve" smooth="yes"/>
      <point x="559" y="1477"/>
      <point x="710" y="1464"/>
      <point x="777" y="1456" type="qcurve"/>
      <point x="1427" y="1456" type="line"/>
      <point x="1427" y="1298" type="line"/>
      <point x="705" y="1298" type="line"/>
      <point x="705" y="157" type="line"/>
      <point x="1437" y="157" type="line"/>
      <point x="1437" y="0" type="line"/>
      <point x="777" y="0" type="line"/>
      <point x="710" y="-7"/>
      <point x="561" y="-21"/>
    </contour>
    <contour>
      <point x="527" y="128" type="qcurve" smooth="yes"/>
      <point x="580" y="128"/>
      <point x="660" y="137"/>
      <point x="698" y="143" type="qcurve"/>
      <point x="698" y="1310" type="line"/>
      <point x="646" y="1317"/>
      <point x="551" y="1325"/>
      <point x="529" y="1325" type="qcurve" smooth="yes"/>
      <point x="352" y="1325"/>
      <point x="122" y="1018"/>
      <point x="122" y="774" type="qcurve" smooth="yes"/>
      <point x="122" y="682" type="line" smooth="yes"/>
      <point x="122" y="435"/>
      <point x="355" y="128"/>
    </contour>
    <contour>
      <point x="702" y="673" type="line"/>
      <point x="702" y="830" type="line"/>
      <point x="1335" y="830" type="line"/>
      <point x="1335" y="673" type="line"/>
    </contour>
  </outline>
</glyph>
<glyph name="oe" format="2">
  <advance width="1358"/>
  <unicode hex="0153"/>
  <outline>
    <contour>
      <point x="369" y="-30" type="qcurve" smooth="yes"/>
      <point x="247" y="-30"/>
      <point x="85" y="272"/>
      <point x="85" y="510" type="qcurve" smooth="yes"/>
      <point x="85" y="542" type="line" smooth="yes"/>
      <point x="85" y="780"/>
      <point x="247" y="1081"/>
      <point x="386" y="1081" type="qcurve" smooth="yes"/>
      <point x="533" y="1081"/>
      <point x="692" y="817"/>
      <point x="707" y="638" type="qcurve"/>
      <point x="722" y="817"/>
      <point x="880" y="1082"/>
      <point x="1025" y="1082" type="qcurve" smooth="yes"/>
      <point x="1131" y="1082"/>
      <point x="1261" y="854"/>
      <point x="1264" y="656" type="qcurve"/>
      <point x="1264" y="484" type="line"/>
      <point x="720" y="484" type="line"/>
      <point x="720" y="632" type="line"/>
      <point x="1257" y="632" type="line"/>
      <point x="1257" y="656" type="line" smooth="yes"/>
      <point x="1257" y="770"/>
      <point x="1127" y="930"/>
      <point x="1005" y="930" type="qcurve" smooth="yes"/>
      <point x="857" y="930"/>
      <point x="711" y="705"/>
      <point x="711" y="542" type="qcurve" smooth="yes"/>
      <point x="711" y="510" type="line" smooth="yes"/>
      <point x="711" y="347"/>
      <point x="863" y="122"/>
      <point x="998" y="122" type="qcurve" smooth="yes"/>
      <point x="1117" y="122"/>
      <point x="1208" y="210"/>
      <point x="1254" y="270" type="qcurve"/>
      <point x="1266" y="268" type="line"/>
      <point x="1238" y="137"/>
      <point x="1130" y="-30"/>
      <point x="1028" y="-30" type="qcurve" smooth="yes"/>
      <point x="880" y="-30"/>
      <point x="721" y="223"/>
      <point x="707" y="416" type="qcurve"/>
      <point x="692" y="222"/>
      <point x="533" y="-30"/>
    </contour>
    <contour>
      <point x="398" y="122" type="qcurve" smooth="yes"/>
      <point x="550" y="122"/>
      <point x="704" y="347"/>
      <point x="704" y="510" type="qcurve" smooth="yes"/>
      <point x="704" y="542" type="line" smooth="yes"/>
      <point x="704" y="705"/>
      <point x="550" y="930"/>
      <point x="398" y="930" type="qcurve" smooth="yes"/>
      <point x="246" y="930"/>
      <point x="92" y="705"/>
      <point x="92" y="542" type="qcurve" smooth="yes"/>
      <point x="92" y="510" type="line" smooth="yes"/>
      <point x="92" y="347"/>
      <point x="246" y="122"/>
    </contour>
  </outline>
</glyph>
<glyph name="Schwa" format="2">
  <advance width="1070"/>
  <unicode hex="018F"/>
  <outline>
    <contour>
      <point x="527" y="-30" type="qcurve" smooth="yes"/>
      <point x="330" y="-30"/>
      <point x="102" y="311"/>
      <point x="102" y="726" type="qcurve" smooth="yes"/>
      <point x="102" y="784" type="line"/>
      <point x="950" y="784" type="line"/>
      <point x="948" y="622" type="line"/>
      <point x="546" y="627" type="line"/>
      <point x="113" y="624" type="line"/>
      <point x="115" y="567" type="line" smooth="yes"/>
      <point x="123" y="342"/>
      <point x="340" y="129"/>
      <point x="527" y="129" type="qcurve" smooth="yes"/>
      <point x="717" y="129"/>
      <point x="950" y="462"/>
      <point x="948" y="749" type="qcurve" smooth="yes"/>
      <point x="946" y="1056"/>
      <point x="695" y="1316"/>
      <point x="509" y="1316" type="qcurve" smooth="yes"/>
      <point x="333" y="1316"/>
      <point x="130" y="1127"/>
      <point x="121" y="984" type="qcurve" smooth="yes"/>
      <point x="120" y="968" type="line"/>
      <point x="113" y="968" type="line"/>
      <point x="114" y="982" type="line" smooth="yes"/>
      <point x="130" y="1212"/>
      <point x="344" y="1489"/>
      <point x="519" y="1489" type="qcurve" smooth="yes"/>
      <point x="713" y="1489"/>
      <point x="955" y="1128"/>
      <point x="955" y="749" type="qcurve" smooth="yes"/>
      <point x="955" y="384"/>
      <point x="730" y="-30"/>
    </contour>
  </outline>
</glyph>
<glyph name="schwa" format="2">
	<unicode hex="0259"/>
	<advance width="739"/>
	<outline>
		<contour>
			<point x="654" y="542" type="qcurve" smooth="yes"/>
			<point x="654" y="510" type="line" smooth="yes"/>
			<point x="654" y="272"/>
			<point x="506" y="-30"/>
			<point x="361" y="-30" type="qcurve" smooth="yes"/>
			<point x="230" y="-30"/>
			<point x="97" y="198"/>
			<point x="94" y="396" type="qcurve"/>
			<point x="94" y="568" type="line"/>
			<point x="650" y="568" type="line"/>
			<point x="650" y="420" type="line"/>
			<point x="101" y="420" type="line"/>
			<point x="101" y="396" type="line" smooth="yes"/>
			<point x="101" y="282"/>
			<point x="231" y="122"/>
			<point x="353" y="122" type="qcurve" smooth="yes"/>
			<point x="501" y="122"/>
			<point x="647" y="347"/>
			<point x="647" y="510" type="qcurve" smooth="yes"/>
			<point x="647" y="542" type="line" smooth="yes"/>
			<point x="647" y="705"/>
			<point x="493" y="930"/>
			<point x="331" y="930" type="qcurve" smooth="yes"/>
			<point x="231" y="930"/>
			<point x="132" y="842"/>
			<point x="86" y="782" type="qcurve"/>
			<point x="80" y="784" type="line"/>
			<point x="108" y="915"/>
			<point x="216" y="1082"/>
			<point x="331" y="1082" type="qcurve" smooth="yes"/>
			<point x="493" y="1082"/>
			<point x="654" y="787"/>
		</contour>
	</outline>
</glyph>
<glyph name="primemod" format="2">
	<unicode hex="02B9"/>
	<advance width="511"/>
	<outline>
		<contour>
			<point x="317" y="1502" type="line"/>
			<point x="324" y="1502" type="line"/>
			<point x="294" y="991" type="line"/>
			<point x="172" y="996" type="line"/>
		</contour>
	</outline>
</glyph>
<glyph name="doubleprimemod" format="2">
  <advance width="698"/>
  <unicode hex="02BA"/>
  <outline>
    <contour>
      <point x="361" y="1502" type="line"/>
      <point x="368" y="1502" type="line"/>
      <point x="340" y="1004" type="line"/>
      <point x="218" y="1009" type="line"/>
    </contour>
    <contour>
      <point x="479" y="1502" type="line"/>
      <point x="486" y="1502" type="line"/>
      <point x="458" y="1004" type="line"/>
      <point x="336" y="1009" type="line"/>
    </contour>
  </outline>
</glyph>
<glyph name="apostrophemod" format="2">
  <advance width="555"/>
  <unicode hex="02BC"/>
  <outline>
    <contour>
      <point x="155" y="1062" type="line"/>
      <point x="223" y="1118"/>
      <point x="387" y="1301"/>
      <point x="389" y="1495" type="qcurve"/>
      <point x="374" y="1495"/>
      <point x="360" y="1509"/>
      <point x="360" y="1519" type="qcurve" smooth="yes"/>
      <point x="360" y="1532"/>
      <point x="374" y="1546"/>
      <point x="387" y="1546" type="qcurve" smooth="yes"/>
      <point x="399" y="1546"/>
      <point x="417" y="1528"/>
      <point x="417" y="1513" type="qcurve" smooth="yes"/>
      <point x="417" y="1289"/>
      <point x="304" y="1067"/>
      <point x="198" y="1013" type="qcurve"/>
    </contour>
  </outline>
</glyph>
<glyph name="gravecomb" format="2">
	<unicode hex="0300"/>
	<outline>
		<contour>
			<point x="66" y="1215" type="line"/>
			<point x="-171" y="1546" type="line"/>
			<point x="-167" y="1550" type="line"/>
			<point x="171" y="1295" type="line"/>
		</contour>
	</outline>
	<anchor name="_top" x="0" y="1052"/>
	<anchor name="top" x="0" y="1599"/>
</glyph>
<glyph name="circumflexcomb" format="2">
	<unicode hex="0302"/>
	<outline>
		<contour>
			<point x="2" y="1533" type="line"/>
			<point x="303" y="1220" type="line"/>
			<point x="150" y="1220" type="line"/>
			<point x="0" y="1526" type="line"/>
			<point x="-150" y="1220" type="line"/>
			<point x="-303" y="1220" type="line"/>
			<point x="-2" y="1533" type="line"/>
		</contour>
	</outline>
	<anchor name="_top" x="0" y="1052"/>
	<anchor name="top" x="0" y="1533"/>
</glyph>
<glyph name="tildecomb" format="2">
	<unicode hex="0303"/>
	<outline>
		<contour>
			<point x="-378" y="1321" type="line"/>
			<point x="-342" y="1358"/>
			<point x="-207" y="1427"/>
			<point x="-159" y="1427" type="qcurve" smooth="yes"/>
			<point x="-113" y="1427"/>
			<point x="-32" y="1370"/>
			<point x="-5" y="1351" type="qcurve" smooth="yes"/>
			<point x="24" y="1330"/>
			<point x="122" y="1276"/>
			<point x="164" y="1276" type="qcurve" smooth="yes"/>
			<point x="204" y="1276"/>
			<point x="274" y="1390"/>
			<point x="297" y="1456" type="qcurve"/>
			<point x="378" y="1358" type="line"/>
			<point x="341" y="1322"/>
			<point x="210" y="1269"/>
			<point x="164" y="1269" type="qcurve" smooth="yes"/>
			<point x="118" y="1269"/>
			<point x="20" y="1324"/>
			<point x="-9" y="1345" type="qcurve" smooth="yes"/>
			<point x="-38" y="1366"/>
			<point x="-116" y="1420"/>
			<point x="-159" y="1420" type="qcurve" smooth="yes"/>
			<point x="-204" y="1420"/>
			<point x="-277" y="1290"/>
			<point x="-302" y="1229" type="qcurve"/>
		</contour>
	</outline>
	<anchor name="_top" x="0" y="1052"/>
	<anchor name="top" x="0" y="1487"/>
</glyph>
<glyph name="dotaccentcomb" format="2">
	<unicode hex="0307"/>
	<outline>
		<contour>
			<point x="-25" y="1337" type="qcurve" smooth="yes"/>
			<point x="-25" y="1349"/>
			<point x="-12" y="1362"/>
			<point x="0" y="1362" type="qcurve" smooth="yes"/>
			<point x="12" y="1362"/>
			<point x="25" y="1349"/>
			<point x="25" y="1337" type="qcurve" smooth="yes"/>
			<point x="25" y="1325"/>
			<point x="12" y="1312"/>
			<point x="0" y="1312" type="qcurve" smooth="yes"/>
			<point x="-12" y="1312"/>
			<point x="-25" y="1325"/>
		</contour>
	</outline>
	<anchor name="_top" x="0" y="1052"/>
	<anchor name="top" x="0" y="1458"/>
</glyph>
<glyph name="dieresiscomb" format="2">
	<unicode hex="0308"/>
	<outline>
		<contour>
			<point x="-241" y="1240" type="qcurve" smooth="yes"/>
			<point x="-241" y="1250"/>
			<point x="-228" y="1265"/>
			<point x="-216" y="1265" type="qcurve" smooth="yes"/>
			<point x="-203" y="1265"/>
			<point x="-190" y="1250"/>
			<point x="-190" y="1240" type="qcurve" smooth="yes"/>
			<point x="-190" y="1230"/>
			<point x="-203" y="1216"/>
			<point x="-216" y="1216" type="qcurve" smooth="yes"/>
			<point x="-228" y="1216"/>
			<point x="-241" y="1230"/>
		</contour>
		<contour>
			<point x="191" y="1240" type="qcurve" smooth="yes"/>
			<point x="191" y="1250"/>
			<point x="203" y="1264"/>
			<point x="216" y="1264" type="qcurve" smooth="yes"/>
			<point x="228" y="1264"/>
			<point x="241" y="1250"/>
			<point x="241" y="1240" type="qcurve" smooth="yes"/>
			<point x="241" y="1230"/>
			<point x="228" y="1216"/>
			<point x="216" y="1216" type="qcurve" smooth="yes"/>
			<point x="203" y="1216"/>
			<point x="191" y="1230"/>
		</contour>
	</outline>
	<anchor name="_GRK_top" x="0" y="1052"/>
	<anchor name="_top" x="0" y="1052"/>
	<anchor name="top" x="0" y="1431"/>
</glyph>
<glyph name="hookabovecomb" format="2">
  <unicode hex="0309"/>
  <anchor x="0" y="1052" name="_top"/>
  <anchor x="0" y="1692" name="top"/>
  <outline>
    <contour>
      <point x="-4" y="1220" type="line"/>
      <point x="-4" y="1259" type="line" smooth="yes"/>
      <point x="-4" y="1329"/>
      <point x="-2" y="1333"/>
      <point x="47" y="1339" type="qcurve" smooth="yes"/>
      <point x="180" y="1355"/>
      <point x="299" y="1434"/>
      <point x="299" y="1508" type="qcurve" smooth="yes"/>
      <point x="299" y="1576"/>
      <point x="167" y="1685"/>
      <point x="49" y="1685" type="qcurve" smooth="yes"/>
      <point x="-49" y="1685"/>
      <point x="-167" y="1652"/>
      <point x="-219" y="1625" type="qcurve"/>
      <point x="-222" y="1632" type="line"/>
      <point x="-171" y="1657"/>
      <point x="-51" y="1692"/>
      <point x="49" y="1692" type="qcurve" smooth="yes"/>
      <point x="169" y="1692"/>
      <point x="306" y="1578"/>
      <point x="306" y="1508" type="qcurve" smooth="yes"/>
      <point x="306" y="1433"/>
      <point x="185" y="1349"/>
      <point x="3" y="1327" type="qcurve"/>
      <point x="3" y="1220" type="line"/>
    </contour>
  </outline>
</glyph>
<glyph name="ringcomb" format="2">
  <unicode hex="030A"/>
  <anchor x="0" y="1052" name="_top"/>
  <anchor x="0" y="1647" name="top"/>
  <outline>
    <contour>
      <point x="-226" y="1437" type="qcurve"/>
      <point x="-226" y="1525"/>
      <point x="-96" y="1657"/>
      <point x="0" y="1657" type="qcurve" smooth="yes"/>
      <point x="97" y="1657"/>
      <point x="226" y="1525"/>
      <point x="226" y="1437" type="qcurve" smooth="yes"/>
      <point x="226" y="1346"/>
      <point x="97" y="1215"/>
      <point x="0" y="1215" type="qcurve" smooth="yes"/>
      <point x="-97" y="1215"/>
      <point x="-226" y="1346"/>
    </contour>
    <contour>
      <point x="-219" y="1437" type="qcurve"/>
      <point x="-219" y="1349"/>
      <point x="-96" y="1222"/>
      <point x="0" y="1222" type="qcurve" smooth="yes"/>
      <point x="94" y="1222"/>
      <point x="219" y="1349"/>
      <point x="219" y="1437" type="qcurve" smooth="yes"/>
      <point x="219" y="1521"/>
      <point x="95" y="1650"/>
      <point x="0" y="1650" type="qcurve" smooth="yes"/>
      <point x="-96" y="1650"/>
      <point x="-219" y="1521"/>
    </contour>
  </outline>
</glyph>
<glyph name="hungarumlautcomb" format="2">
	<unicode hex="030B"/>
	<outline>
		<contour>
			<point x="-256" y="1295" type="line"/>
			<point x="49" y="1530" type="line"/>
			<point x="54" y="1527" type="line"/>
			<point x="-158" y="1218" type="line"/>
		</contour>
		<contour>
			<point x="54" y="1295" type="line"/>
			<point x="359" y="1530" type="line"/>
			<point x="364" y="1527" type="line"/>
			<point x="152" y="1218" type="line"/>
		</contour>
	</outline>
	<anchor name="_top" x="0" y="1052"/>
	<anchor name="top" x="0" y="1581"/>
</glyph>
<glyph name="caroncomb" format="2">
	<unicode hex="030C"/>
	<outline>
		<contour>
			<point x="-2" y="1213" type="line"/>
			<point x="-303" y="1526" type="line"/>
			<point x="-149" y="1526" type="line"/>
			<point x="0" y="1217" type="line"/>
			<point x="151" y="1526" type="line"/>
			<point x="303" y="1526" type="line"/>
			<point x="2" y="1213" type="line"/>
		</contour>
	</outline>
	<anchor name="_top" x="0" y="1052"/>
	<anchor name="top" x="0" y="1533"/>
</glyph>
<glyph name="breveinvertedcomb" format="2">
  <unicode hex="030F"/>
  <anchor x="0" y="1052" name="_top"/>
  <anchor x="0" y="1540" name="top"/>
  <outline>
    <contour>
      <point x="-236" y="1220" type="qcurve"/>
      <point x="-336" y="1272" type="line"/>
      <point x="-294" y="1386"/>
      <point x="-113" y="1540"/>
      <point x="0" y="1540" type="qcurve"/>
      <point x="113" y="1540"/>
      <point x="294" y="1386"/>
      <point x="336" y="1272" type="qcurve"/>
      <point x="236" y="1220" type="line"/>
      <point x="208" y="1281"/>
      <point x="79" y="1533"/>
      <point x="0" y="1533" type="qcurve"/>
      <point x="-79" y="1533"/>
      <point x="-208" y="1281"/>
    </contour>
  </outline>
</glyph>
<glyph name="commaaccentturnedcomb" format="2">
  <unicode hex="0312"/>
  <anchor x="0" y="1052" name="_top"/>
  <outline>
    <contour>
      <point x="163" y="1652" type="line"/>
      <point x="-16" y="1302" type="line"/>
      <point x="-23" y="1303" type="line"/>
      <point x="6" y="1676" type="line"/>
    </contour>
  </outline>
</glyph>
<glyph name="horncomb" format="2">
	<unicode hex="031B"/>
	<outline>
		<contour>
			<point x="0" y="1052" type="line"/>
			<point x="84" y="1052" type="line" smooth="yes"/>
			<point x="132" y="1052"/>
			<point x="204" y="1086"/>
			<point x="204" y="1126" type="qcurve" smooth="yes"/>
			<point x="204" y="1176"/>
			<point x="191" y="1257"/>
			<point x="181" y="1293" type="qcurve"/>
			<point x="188" y="1293" type="line"/>
			<point x="198" y="1258"/>
			<point x="211" y="1175"/>
			<point x="211" y="1126" type="qcurve" smooth="yes"/>
			<point x="211" y="1005"/>
			<point x="132" y="920"/>
			<point x="79" y="920" type="qcurve" smooth="yes"/>
			<point x="54" y="920"/>
			<point x="14" y="932"/>
			<point x="0" y="941" type="qcurve"/>
		</contour>
	</outline>
	<anchor name="_topright" x="0" y="1052"/>
	<anchor name="topright" x="0" y="1293"/>
</glyph>
<glyph name="dotbelowcomb" format="2">
  <unicode hex="0323"/>
  <anchor x="0" y="0" name="_bottom"/>
  <anchor x="0" y="-194" name="bottom"/>
  <outline>
    <contour>
      <point x="-9" y="-213" type="qcurve" smooth="yes"/>
      <point x="-9" y="-209"/>
      <point x="-4" y="-204"/>
      <point x="0" y="-204" type="qcurve" smooth="yes"/>
      <point x="4" y="-204"/>
      <point x="9" y="-209"/>
      <point x="9" y="-213" type="qcurve" smooth="yes"/>
      <point x="9" y="-217"/>
      <point x="4" y="-222"/>
      <point x="0" y="-222" type="qcurve" smooth="yes"/>
      <point x="-4" y="-222"/>
      <point x="-9" y="-217"/>
    </contour>
  </outline>
</glyph>
<glyph name="commaaccentcomb" format="2">
	<unicode hex="0326"/>
	<outline>
		<contour>
			<point x="-157" y="-597" type="line"/>
			<point x="16" y="-224" type="line"/>
			<point x="23" y="-224" type="line"/>
			<point x="6" y="-600" type="line"/>
		</contour>
	</outline>
	<anchor name="_bottom" x="0" y="0"/>
	<anchor name="bottom" x="0" y="-600"/>
</glyph>
<glyph name="ogonekcomb" format="2">
  <unicode hex="0328"/>
  <anchor x="88" y="0" name="_ogonek"/>
  <anchor x="21" y="-434" name="bottom"/>
  <outline>
    <contour>
      <point x="84" y="3" type="qcurve"/>
      <point x="88" y="0" type="line"/>
      <point x="26" y="-42"/>
      <point x="-49" y="-137"/>
      <point x="-49" y="-203" type="qcurve" smooth="yes"/>
      <point x="-49" y="-252"/>
      <point x="8" y="-296"/>
      <point x="45" y="-295" type="qcurve" smooth="yes"/>
      <point x="78" y="-294"/>
      <point x="126" y="-276"/>
      <point x="140" y="-268" type="qcurve"/>
      <point x="175" y="-390" type="line"/>
      <point x="152" y="-405"/>
      <point x="85" y="-434"/>
      <point x="52" y="-434" type="qcurve"/>
      <point x="19" y="-434"/>
      <point x="-56" y="-310"/>
      <point x="-56" y="-203" type="qcurve" smooth="yes"/>
      <point x="-56" y="-136"/>
      <point x="23" y="-36"/>
    </contour>
  </outline>
</glyph>
<glyph name="brevebelowcomb" format="2">
	<unicode hex="032E"/>
	<outline>
		<contour>
			<point x="236" y="-143" type="qcurve"/>
			<point x="337" y="-197" type="line"/>
			<point x="302" y="-296"/>
			<point x="126" y="-463"/>
			<point x="0" y="-463" type="qcurve" smooth="yes"/>
			<point x="-113" y="-463"/>
			<point x="-294" y="-309"/>
			<point x="-336" y="-195" type="qcurve"/>
			<point x="-236" y="-143" type="line"/>
			<point x="-221" y="-204"/>
			<point x="-99" y="-456"/>
			<point x="0" y="-456" type="qcurve" smooth="yes"/>
			<point x="110" y="-456"/>
			<point x="213" y="-212"/>
		</contour>
	</outline>
	<anchor name="_bottom" x="0" y="0"/>
	<anchor name="bottom" x="0" y="-463"/>
</glyph>
<glyph name="numeralsign" format="2">
	<unicode hex="0374"/>
	<advance width="423"/>
	<outline>
		<contour>
			<point x="233" y="1073" type="line"/>
			<point x="110" y="1103" type="line"/>
			<point x="199" y="1556" type="line"/>
			<point x="206" y="1555" type="line"/>
		</contour>
	</outline>
</glyph>
<glyph name="lownumeralsign" format="2">
  <advance width="423"/>
  <unicode hex="0375"/>
  <outline>
    <contour>
      <point x="110" y="285" type="line"/>
      <point x="233" y="255" type="line"/>
      <point x="144" y="-198" type="line"/>
      <point x="137" y="-197" type="line"/>
    </contour>
  </outline>
</glyph>
<glyph name="Gamma" format="2">
  <advance width="770"/>
  <unicode hex="0393"/>
  <anchor x="447" y="1456" name="top"/>
  <anchor x="174" y="708" name="center"/>
  <outline>
    <contour>
      <point x="170" y="0" type="line"/>
      <point x="170" y="1456" type="line"/>
      <point x="745" y="1456" type="line"/>
      <point x="745" y="1298" type="line"/>
      <point x="177" y="1298" type="line"/>
      <point x="177" y="0" type="line"/>
    </contour>
  </outline>
</glyph>
<glyph name="Delta" format="2">
  <advance width="1135"/>
  <unicode hex="0394"/>
  <outline>
    <contour>
      <point x="29" y="0" type="line"/>
      <point x="29" y="107" type="line"/>
      <point x="561" y="1466" type="line"/>
      <point x="574" y="1466" type="line"/>
      <point x="1107" y="107" type="line"/>
      <point x="1107" y="0" type="line"/>
    </contour>
    <contour>
      <point x="56" y="158" type="line"/>
      <point x="1079" y="158" type="line"/>
      <point x="620" y="1337" type="line" smooth="yes"/>
      <point x="607" y="1369"/>
      <point x="579" y="1438"/>
      <point x="571" y="1462" type="qcurve"/>
      <point x="564" y="1462" type="line"/>
      <point x="553" y="1432"/>
      <point x="527" y="1367"/>
      <point x="514" y="1334" type="qcurve" smooth="yes"/>
    </contour>
  </outline>
</glyph>
<glyph name="Lambda" format="2">
  <advance width="1078"/>
  <unicode hex="039B"/>
  <outline>
    <contour>
      <point x="0" y="0" type="line"/>
      <point x="534" y="1466" type="line"/>
      <point x="548" y="1466" type="line"/>
      <point x="1078" y="0" type="line"/>
      <point x="1071" y="0" type="line"/>
      <point x="590" y="1334" type="line" smooth="yes"/>
      <point x="578" y="1367"/>
      <point x="555" y="1431"/>
      <point x="545" y="1461" type="qcurve"/>
      <point x="537" y="1461" type="line"/>
      <point x="525" y="1428"/>
      <point x="503" y="1366"/>
      <point x="491" y="1334" type="qcurve" smooth="yes"/>
      <point x="7" y="0" type="line"/>
    </contour>
  </outline>
</glyph>
<glyph name="Pi" format="2">
  <advance width="1024"/>
  <unicode hex="03A0"/>
  <outline>
    <contour>
      <point x="148" y="0" type="line"/>
      <point x="148" y="1456" type="line"/>
      <point x="876" y="1456" type="line"/>
      <point x="876" y="0" type="line"/>
      <point x="869" y="0" type="line"/>
      <point x="869" y="1298" type="line"/>
      <point x="155" y="1298" type="line"/>
      <point x="155" y="0" type="line"/>
    </contour>
  </outline>
</glyph>
<glyph name="Phi" format="2">
  <advance width="1208"/>
  <unicode hex="03A6"/>
  <outline>
    <contour>
      <point x="602" y="-20" type="line"/>
      <point x="602" y="242" type="line"/>
      <point x="602" y="285" type="line"/>
      <point x="602" y="1192" type="line"/>
      <point x="602" y="1228" type="line"/>
      <point x="602" y="1476" type="line"/>
      <point x="609" y="1476" type="line"/>
      <point x="609" y="1228" type="line"/>
      <point x="609" y="1192" type="line"/>
      <point x="609" y="285" type="line"/>
      <point x="609" y="242" type="line"/>
      <point x="609" y="-20" type="line"/>
    </contour>
    <contour>
      <point x="574" y="194" type="line" smooth="yes"/>
      <point x="345" y="194"/>
      <point x="105" y="500"/>
      <point x="105" y="741" type="qcurve" smooth="yes"/>
      <point x="105" y="992"/>
      <point x="345" y="1283"/>
      <point x="574" y="1283" type="qcurve" smooth="yes"/>
      <point x="634" y="1283" type="line" smooth="yes"/>
      <point x="863" y="1283"/>
      <point x="1103" y="991"/>
      <point x="1103" y="738" type="qcurve" smooth="yes"/>
      <point x="1103" y="485"/>
      <point x="863" y="194"/>
      <point x="634" y="194" type="qcurve" smooth="yes"/>
    </contour>
    <contour>
      <point x="574" y="345" type="qcurve" smooth="yes"/>
      <point x="634" y="345" type="line" smooth="yes"/>
      <point x="885" y="345"/>
      <point x="1096" y="545"/>
      <point x="1096" y="738" type="qcurve" smooth="yes"/>
      <point x="1096" y="925"/>
      <point x="885" y="1132"/>
      <point x="634" y="1132" type="qcurve" smooth="yes"/>
      <point x="574" y="1132" type="line" smooth="yes"/>
      <point x="323" y="1132"/>
      <point x="112" y="932"/>
      <point x="112" y="741" type="qcurve" smooth="yes"/>
      <point x="112" y="552"/>
      <point x="323" y="345"/>
    </contour>
  </outline>
</glyph>
<glyph name="Omega" format="2">
	<unicode hex="03A9"/>
	<advance width="1123"/>
	<outline>
		<contour>
			<point x="115" y="0" type="line"/>
			<point x="115" y="159" type="line"/>
			<point x="434" y="159" type="line"/>
			<point x="434" y="309" type="line"/>
			<point x="280" y="377"/>
			<point x="125" y="661"/>
			<point x="125" y="857" type="qcurve"/>
			<point x="125" y="870" type="line"/>
			<point x="125" y="1167"/>
			<point x="341" y="1486"/>
			<point x="552" y="1486" type="qcurve" smooth="yes"/>
			<point x="763" y="1486"/>
			<point x="999" y="1166"/>
			<point x="999" y="869" type="qcurve"/>
			<point x="999" y="858" type="line"/>
			<point x="999" y="657"/>
			<point x="833" y="373"/>
			<point x="688" y="309" type="qcurve"/>
			<point x="688" y="159" type="line"/>
			<point x="1008" y="159" type="line"/>
			<point x="1008" y="0" type="line"/>
			<point x="681" y="0" type="line"/>
			<point x="681" y="437" type="line"/>
			<point x="840" y="469"/>
			<point x="992" y="696"/>
			<point x="992" y="858" type="qcurve"/>
			<point x="992" y="869" type="line"/>
			<point x="992" y="1087"/>
			<point x="753" y="1322"/>
			<point x="552" y="1322" type="qcurve"/>
			<point x="351" y="1322"/>
			<point x="132" y="1088"/>
			<point x="132" y="870" type="qcurve"/>
			<point x="132" y="857" type="line"/>
			<point x="132" y="696"/>
			<point x="282" y="469"/>
			<point x="441" y="437" type="qcurve"/>
			<point x="441" y="0" type="line"/>
		</contour>
	</outline>
	<anchor name="tonos" x="-3" y="1074"/>
</glyph>
<glyph name="alpha" format="2">
  <advance width="873"/>
  <unicode hex="03B1"/>
  <anchor x="367" y="1052" name="top"/>
  <outline>
    <contour>
      <point x="378" y="-20" type="qcurve" smooth="yes"/>
      <point x="247" y="-20"/>
      <point x="85" y="280"/>
      <point x="85" y="510" type="qcurve" smooth="yes"/>
      <point x="85" y="542" type="line" smooth="yes"/>
      <point x="85" y="772"/>
      <point x="247" y="1072"/>
      <point x="378" y="1072" type="qcurve" smooth="yes"/>
      <point x="513" y="1072"/>
      <point x="655" y="806"/>
      <point x="655" y="561" type="qcurve" smooth="yes"/>
      <point x="655" y="475" type="line" smooth="yes"/>
      <point x="655" y="252"/>
      <point x="510" y="-20"/>
    </contour>
    <contour>
      <point x="362" y="132" type="qcurve" smooth="yes"/>
      <point x="493" y="132"/>
      <point x="654" y="324"/>
      <point x="654" y="473" type="qcurve" smooth="yes"/>
      <point x="654" y="561" type="line"/>
      <point x="654" y="734"/>
      <point x="489" y="920"/>
      <point x="362" y="920" type="qcurve" smooth="yes"/>
      <point x="222" y="920"/>
      <point x="92" y="702"/>
      <point x="92" y="542" type="qcurve" smooth="yes"/>
      <point x="92" y="510" type="line" smooth="yes"/>
      <point x="92" y="350"/>
      <point x="222" y="132"/>
    </contour>
    <contour>
      <point x="731" y="-30" type="qcurve" smooth="yes"/>
      <point x="695" y="-30"/>
      <point x="653" y="74"/>
      <point x="653" y="255" type="qcurve"/>
      <point x="653" y="255" type="line"/>
      <point x="653" y="562" type="line"/>
      <point x="653" y="562" type="line"/>
      <point x="653" y="1052" type="line"/>
      <point x="659" y="1052" type="line"/>
      <point x="659" y="262" type="line" smooth="yes"/>
      <point x="659" y="187"/>
      <point x="704" y="130"/>
      <point x="754" y="130" type="qcurve"/>
      <point x="769" y="130"/>
      <point x="806" y="137"/>
      <point x="823" y="144" type="qcurve"/>
      <point x="823" y="-8" type="line"/>
      <point x="804" y="-17"/>
      <point x="765" y="-30"/>
    </contour>
  </outline>
</glyph>
<glyph name="beta" format="2">
  <advance width="829"/>
  <unicode hex="03B2"/>
  <outline>
    <contour>
      <point x="146" y="-416" type="line"/>
      <point x="146" y="978" type="line" smooth="yes"/>
      <point x="146" y="1231"/>
      <point x="278" y="1476"/>
      <point x="414" y="1476" type="qcurve" smooth="yes"/>
      <point x="551" y="1476"/>
      <point x="665" y="1271"/>
      <point x="665" y="1076" type="qcurve" smooth="yes"/>
      <point x="665" y="956"/>
      <point x="553" y="779"/>
      <point x="479" y="754" type="qcurve"/>
      <point x="479" y="770" type="line"/>
      <point x="592" y="750"/>
      <point x="742" y="560"/>
      <point x="742" y="423" type="qcurve" smooth="yes"/>
      <point x="742" y="233"/>
      <point x="593" y="-21"/>
      <point x="465" y="-21" type="qcurve" smooth="yes"/>
      <point x="317" y="-21"/>
      <point x="183" y="148"/>
      <point x="151" y="254" type="qcurve"/>
      <point x="151" y="491" type="line"/>
      <point x="192" y="309"/>
      <point x="322" y="132"/>
      <point x="452" y="132" type="qcurve" smooth="yes"/>
      <point x="587" y="132"/>
      <point x="735" y="306"/>
      <point x="735" y="423" type="qcurve" smooth="yes"/>
      <point x="735" y="540"/>
      <point x="582" y="685"/>
      <point x="389" y="685" type="qcurve" smooth="yes"/>
      <point x="291" y="685" type="line"/>
      <point x="291" y="827" type="line"/>
      <point x="390" y="827" type="line" smooth="yes"/>
      <point x="532" y="827"/>
      <point x="658" y="967"/>
      <point x="658" y="1076" type="qcurve" smooth="yes"/>
      <point x="658" y="1189"/>
      <point x="548" y="1324"/>
      <point x="414" y="1324" type="qcurve" smooth="yes"/>
      <point x="281" y="1324"/>
      <point x="153" y="1156"/>
      <point x="153" y="985" type="qcurve" smooth="yes"/>
      <point x="153" y="-416" type="line"/>
    </contour>
  </outline>
</glyph>
<glyph name="gamma" format="2">
  <advance width="757"/>
  <unicode hex="03B3"/>
  <outline>
    <contour>
      <point x="368" y="-366" type="line"/>
      <point x="368" y="58" type="line"/>
      <point x="79" y="1052" type="line"/>
      <point x="87" y="1052" type="line"/>
      <point x="324" y="232" type="line" smooth="yes"/>
      <point x="336" y="191"/>
      <point x="363" y="94"/>
      <point x="369" y="74" type="qcurve"/>
      <point x="374" y="74" type="line"/>
      <point x="380" y="94"/>
      <point x="409" y="191"/>
      <point x="422" y="232" type="qcurve" smooth="yes"/>
      <point x="674" y="1052" type="line"/>
      <point x="682" y="1052" type="line"/>
      <point x="375" y="58" type="line"/>
      <point x="375" y="-366" type="line"/>
    </contour>
  </outline>
</glyph>
<glyph name="delta" format="2">
  <advance width="778"/>
  <unicode hex="03B4"/>
  <outline>
    <contour>
      <point x="380" y="-30" type="qcurve" smooth="yes"/>
      <point x="244" y="-30"/>
      <point x="85" y="226"/>
      <point x="85" y="475" type="qcurve"/>
      <point x="85" y="482" type="line"/>
      <point x="85" y="679"/>
      <point x="204" y="892"/>
      <point x="382" y="954" type="qcurve"/>
      <point x="524" y="880" type="line"/>
      <point x="312" y="870"/>
      <point x="92" y="674"/>
      <point x="92" y="483" type="qcurve"/>
      <point x="92" y="473" type="line"/>
      <point x="92" y="310"/>
      <point x="234" y="122"/>
      <point x="380" y="122" type="qcurve" smooth="yes"/>
      <point x="523" y="122"/>
      <point x="686" y="318"/>
      <point x="686" y="475" type="qcurve"/>
      <point x="686" y="482" type="line"/>
      <point x="686" y="619"/>
      <point x="572" y="775"/>
      <point x="402" y="850" type="qcurve" smooth="yes"/>
      <point x="299" y="893"/>
      <point x="180" y="1062"/>
      <point x="180" y="1171" type="qcurve" smooth="yes"/>
      <point x="180" y="1305"/>
      <point x="309" y="1476"/>
      <point x="429" y="1476" type="qcurve" smooth="yes"/>
      <point x="501" y="1476"/>
      <point x="624" y="1438"/>
      <point x="672" y="1407" type="qcurve"/>
      <point x="643" y="1253" type="line"/>
      <point x="601" y="1284"/>
      <point x="490" y="1324"/>
      <point x="429" y="1324" type="qcurve" smooth="yes"/>
      <point x="314" y="1324"/>
      <point x="187" y="1234"/>
      <point x="187" y="1171" type="qcurve" smooth="yes"/>
      <point x="187" y="1116"/>
      <point x="338" y="1058"/>
      <point x="489" y="979" type="qcurve" smooth="yes"/>
      <point x="623" y="904"/>
      <point x="693" y="677"/>
      <point x="693" y="481" type="qcurve"/>
      <point x="693" y="476" type="line"/>
      <point x="693" y="224"/>
      <point x="514" y="-30"/>
    </contour>
  </outline>
</glyph>
<glyph name="zeta" format="2">
  <advance width="756"/>
  <unicode hex="03B6"/>
  <guideline x="809" y="291" angle="90" identifier="Hhem4nGbLg"/>
  <guideline x="856" y="823" angle="90" identifier="UwRnHAo0ZQ"/>
  <outline>
    <contour>
      <point x="559" y="-348" type="line"/>
      <point x="582" y="-295"/>
      <point x="613" y="-195"/>
      <point x="613" y="-143" type="qcurve" smooth="yes"/>
      <point x="613" y="-84"/>
      <point x="555" y="44"/>
      <point x="471" y="65" type="qcurve" smooth="yes"/>
      <point x="349" y="95" type="line" smooth="yes"/>
      <point x="206" y="130"/>
      <point x="65" y="256"/>
      <point x="65" y="352" type="qcurve"/>
      <point x="65" y="450"/>
      <point x="168" y="720"/>
      <point x="361" y="1000" type="qcurve" smooth="yes"/>
      <point x="728" y="1529" type="line"/>
      <point x="729" y="1529" type="line"/>
      <point x="101" y="1529" type="line"/>
      <point x="101" y="1536" type="line"/>
      <point x="796" y="1536" type="line"/>
      <point x="796" y="1379" type="line"/>
      <point x="426" y="896" type="line" smooth="yes"/>
      <point x="229" y="638"/>
      <point x="72" y="430"/>
      <point x="72" y="352" type="qcurve"/>
      <point x="72" y="259"/>
      <point x="208" y="137"/>
      <point x="355" y="101" type="qcurve" smooth="yes"/>
      <point x="468" y="73" type="line" smooth="yes"/>
      <point x="651" y="28"/>
      <point x="791" y="-66"/>
      <point x="791" y="-143" type="qcurve" smooth="yes"/>
      <point x="791" y="-200"/>
      <point x="756" y="-297"/>
      <point x="729" y="-348" type="qcurve"/>
    </contour>
  </outline>
</glyph>
<glyph name="iota" format="2">
  <advance width="418"/>
  <unicode hex="03B9"/>
  <anchor x="141" y="1052" name="top"/>
  <outline>
    <contour>
      <point x="279" y="-30" type="qcurve" smooth="yes"/>
      <point x="215" y="-30"/>
      <point x="138" y="110"/>
      <point x="138" y="260" type="qcurve" smooth="yes"/>
      <point x="138" y="1052" type="line"/>
      <point x="145" y="1052" type="line"/>
      <point x="145" y="260" type="line" smooth="yes"/>
      <point x="145" y="190"/>
      <point x="198" y="130"/>
      <point x="258" y="130" type="qcurve" smooth="yes"/>
      <point x="286" y="130"/>
      <point x="340" y="142"/>
      <point x="368" y="152" type="qcurve"/>
      <point x="368" y="0" type="line"/>
      <point x="353" y="-12"/>
      <point x="307" y="-30"/>
    </contour>
  </outline>
</glyph>
<glyph name="kappa" format="2">
  <advance width="861"/>
  <unicode hex="03BA"/>
  <outline>
    <contour>
      <point x="781" y="0" type="line"/>
      <point x="298" y="550" type="line"/>
      <point x="301" y="552" type="line"/>
      <point x="786" y="0" type="line"/>
    </contour>
    <contour>
      <point x="150" y="610" type="line"/>
      <point x="238" y="610" type="line"/>
      <point x="623" y="1052" type="line"/>
      <point x="841" y="1052" type="line"/>
      <point x="326" y="465" type="line"/>
      <point x="150" y="465" type="line"/>
    </contour>
    <contour>
      <point x="152" y="1052" type="line"/>
      <point x="152" y="0" type="line"/>
      <point x="148" y="0" type="line"/>
      <point x="148" y="1052" type="line"/>
    </contour>
  </outline>
</glyph>
<glyph name="lambda" format="2">
  <advance width="765"/>
  <unicode hex="03BB"/>
  <outline>
    <contour>
      <point x="0" y="0" type="line"/>
      <point x="397" y="1041" type="line"/>
      <point x="374" y="1107" type="line" smooth="yes"/>
      <point x="316" y="1273"/>
      <point x="237" y="1396"/>
      <point x="159" y="1396" type="qcurve" smooth="yes"/>
      <point x="133" y="1396"/>
      <point x="66" y="1389"/>
      <point x="40" y="1381" type="qcurve"/>
      <point x="40" y="1535" type="line"/>
      <point x="57" y="1545"/>
      <point x="113" y="1556"/>
      <point x="134" y="1556" type="qcurve" smooth="yes"/>
      <point x="197" y="1556"/>
      <point x="270" y="1427"/>
      <point x="331" y="1252" type="qcurve" smooth="yes"/>
      <point x="765" y="0" type="line"/>
      <point x="758" y="0" type="line"/>
      <point x="464" y="846" type="line" smooth="yes"/>
      <point x="444" y="902"/>
      <point x="420" y="972"/>
      <point x="404" y="1021" type="qcurve"/>
      <point x="396" y="1021" type="line"/>
      <point x="378" y="972"/>
      <point x="346" y="886"/>
      <point x="331" y="846" type="qcurve" smooth="yes"/>
      <point x="7" y="0" type="line"/>
    </contour>
  </outline>
</glyph>
<glyph name="xi" format="2">
  <advance width="765"/>
  <unicode hex="03BE"/>
  <outline>
    <contour>
      <point x="526" y="-348" type="line"/>
      <point x="549" y="-295"/>
      <point x="580" y="-207"/>
      <point x="580" y="-155" type="qcurve" smooth="yes"/>
      <point x="580" y="-74"/>
      <point x="497" y="16"/>
      <point x="341" y="52" type="qcurve" smooth="yes"/>
      <point x="311" y="59" type="line" smooth="yes"/>
      <point x="151" y="96"/>
      <point x="55" y="242"/>
      <point x="55" y="390" type="qcurve" smooth="yes"/>
      <point x="55" y="517"/>
      <point x="196" y="724"/>
      <point x="378" y="777" type="qcurve"/>
      <point x="378" y="753" type="line"/>
      <point x="242" y="801"/>
      <point x="104" y="905"/>
      <point x="104" y="1042" type="qcurve" smooth="yes"/>
      <point x="104" y="1147"/>
      <point x="260" y="1270"/>
      <point x="432" y="1313" type="qcurve"/>
      <point x="432" y="1304" type="line"/>
      <point x="61" y="1304" type="line"/>
      <point x="61" y="1456" type="line"/>
      <point x="634" y="1456" type="line"/>
      <point x="634" y="1304" type="line"/>
      <point x="340" y="1304"/>
      <point x="111" y="1161"/>
      <point x="111" y="1042" type="qcurve" smooth="yes"/>
      <point x="111" y="935"/>
      <point x="262" y="846"/>
      <point x="392" y="846" type="qcurve" smooth="yes"/>
      <point x="572" y="846" type="line"/>
      <point x="572" y="694" type="line"/>
      <point x="392" y="694" type="line" smooth="yes"/>
      <point x="227" y="694"/>
      <point x="62" y="538"/>
      <point x="62" y="390" type="qcurve" smooth="yes"/>
      <point x="62" y="243"/>
      <point x="158" y="101"/>
      <point x="313" y="65" type="qcurve" smooth="yes"/>
      <point x="343" y="58" type="line" smooth="yes"/>
      <point x="501" y="21"/>
      <point x="587" y="-73"/>
      <point x="587" y="-155" type="qcurve" smooth="yes"/>
      <point x="587" y="-209"/>
      <point x="549" y="-313"/>
      <point x="531" y="-348" type="qcurve"/>
    </contour>
  </outline>
</glyph>
<glyph name="pi" format="2">
	<unicode hex="03C0"/>
	<advance width="819"/>
	<outline>
		<contour>
			<point x="0" y="900" type="line"/>
			<point x="0" y="1052" type="line"/>
			<point x="769" y="1052" type="line"/>
			<point x="769" y="900" type="line"/>
		</contour>
		<contour>
			<point x="163" y="0" type="line"/>
			<point x="163" y="971" type="line"/>
			<point x="170" y="971" type="line"/>
			<point x="170" y="0" type="line"/>
		</contour>
		<contour>
			<point x="702" y="-30" type="qcurve" smooth="yes"/>
			<point x="650" y="-30"/>
			<point x="598" y="58"/>
			<point x="598" y="240" type="qcurve" smooth="yes"/>
			<point x="598" y="971" type="line"/>
			<point x="605" y="971" type="line"/>
			<point x="605" y="240" type="line" smooth="yes"/>
			<point x="605" y="196"/>
			<point x="646" y="130"/>
			<point x="702" y="130" type="qcurve"/>
			<point x="716" y="130"/>
			<point x="758" y="139"/>
			<point x="769" y="144" type="qcurve"/>
			<point x="769" y="-8" type="line"/>
			<point x="751" y="-17"/>
			<point x="718" y="-30"/>
		</contour>
	</outline>
</glyph>
<glyph name="finalsigma" format="2">
  <advance width="694"/>
  <unicode hex="03C2"/>
  <outline>
    <contour>
      <point x="413" y="-348" type="line"/>
      <point x="446" y="-295"/>
      <point x="497" y="-175"/>
      <point x="497" y="-113" type="qcurve" smooth="yes"/>
      <point x="497" y="-44"/>
      <point x="448" y="57"/>
      <point x="371" y="88" type="qcurve" smooth="yes"/>
      <point x="324" y="107" type="line" smooth="yes"/>
      <point x="201" y="157"/>
      <point x="85" y="306"/>
      <point x="85" y="504" type="qcurve" smooth="yes"/>
      <point x="85" y="541" type="line" smooth="yes"/>
      <point x="85" y="781"/>
      <point x="220" y="1082"/>
      <point x="374" y="1082" type="qcurve" smooth="yes"/>
      <point x="539" y="1082"/>
      <point x="637" y="852"/>
      <point x="637" y="715" type="qcurve" smooth="yes"/>
      <point x="637" y="710" type="line"/>
      <point x="633" y="710" type="line"/>
      <point x="633" y="715" type="line" smooth="yes"/>
      <point x="633" y="800"/>
      <point x="508" y="930"/>
      <point x="387" y="930" type="qcurve" smooth="yes"/>
      <point x="266" y="930"/>
      <point x="89" y="720"/>
      <point x="89" y="541" type="qcurve" smooth="yes"/>
      <point x="89" y="502" type="line" smooth="yes"/>
      <point x="89" y="311"/>
      <point x="202" y="162"/>
      <point x="329" y="110" type="qcurve" smooth="yes"/>
      <point x="375" y="91" type="line" smooth="yes"/>
      <point x="535" y="25"/>
      <point x="645" y="-61"/>
      <point x="645" y="-142" type="qcurve" smooth="yes"/>
      <point x="645" y="-205"/>
      <point x="614" y="-293"/>
      <point x="583" y="-348" type="qcurve"/>
    </contour>
  </outline>
</glyph>
<glyph name="sigma" format="2">
  <advance width="822"/>
  <unicode hex="03C3"/>
  <outline>
    <contour>
      <point x="399" y="-30" type="qcurve" smooth="yes"/>
      <point x="257" y="-30"/>
      <point x="85" y="250"/>
      <point x="85" y="491" type="qcurve" smooth="yes"/>
      <point x="85" y="523" type="line" smooth="yes"/>
      <point x="85" y="740"/>
      <point x="275" y="1052"/>
      <point x="467" y="1052" type="qcurve"/>
      <point x="772" y="1052" type="line"/>
      <point x="772" y="900" type="line"/>
      <point x="515" y="900" type="line"/>
      <point x="518" y="900" type="line"/>
      <point x="603" y="867"/>
      <point x="712" y="685"/>
      <point x="712" y="526" type="qcurve" smooth="yes"/>
      <point x="712" y="495" type="line" smooth="yes"/>
      <point x="712" y="264"/>
      <point x="540" y="-30"/>
    </contour>
    <contour>
      <point x="399" y="122" type="qcurve" smooth="yes"/>
      <point x="551" y="122"/>
      <point x="705" y="337"/>
      <point x="705" y="495" type="qcurve" smooth="yes"/>
      <point x="705" y="526" type="line" smooth="yes"/>
      <point x="705" y="683"/>
      <point x="597" y="865"/>
      <point x="509" y="899" type="qcurve"/>
      <point x="282" y="906"/>
      <point x="93" y="671"/>
      <point x="93" y="522" type="qcurve" smooth="yes"/>
      <point x="93" y="491" type="line" smooth="yes"/>
      <point x="93" y="333"/>
      <point x="247" y="122"/>
    </contour>
  </outline>
</glyph>
<glyph name="upsilon" format="2">
  <advance width="770"/>
  <unicode hex="03C5"/>
  <anchor x="386" y="1052" name="top"/>
  <outline>
    <contour>
      <point x="387" y="-20" type="qcurve" smooth="yes"/>
      <point x="258" y="-20"/>
      <point x="138" y="201"/>
      <point x="138" y="403" type="qcurve" smooth="yes"/>
      <point x="138" y="1052" type="line"/>
      <point x="145" y="1052" type="line"/>
      <point x="145" y="401" type="line" smooth="yes"/>
      <point x="145" y="275"/>
      <point x="261" y="136"/>
      <point x="387" y="136" type="qcurve" smooth="yes"/>
      <point x="509" y="136"/>
      <point x="625" y="275"/>
      <point x="625" y="401" type="qcurve" smooth="yes"/>
      <point x="625" y="1052" type="line"/>
      <point x="632" y="1052" type="line"/>
      <point x="632" y="403" type="line" smooth="yes"/>
      <point x="632" y="201"/>
      <point x="513" y="-20"/>
    </contour>
  </outline>
</glyph>
<glyph name="chi" format="2">
  <advance width="597"/>
  <unicode hex="03C7"/>
  <outline>
    <contour>
      <point x="570" y="-416" type="line"/>
      <point x="301" y="332" type="line"/>
      <point x="301" y="332" type="line"/>
      <point x="43" y="1052" type="line"/>
      <point x="50" y="1052" type="line"/>
      <point x="304" y="340" type="line"/>
      <point x="304" y="340" type="line"/>
      <point x="577" y="-416" type="line"/>
    </contour>
    <contour>
      <point x="20" y="-416" type="line"/>
      <point x="301" y="340" type="line"/>
      <point x="301" y="340" type="line"/>
      <point x="552" y="1052" type="line"/>
      <point x="559" y="1052" type="line"/>
      <point x="304" y="332" type="line"/>
      <point x="304" y="332" type="line"/>
      <point x="27" y="-416" type="line"/>
    </contour>
  </outline>
</glyph>
<glyph name="omega" format="2">
  <advance width="1024"/>
  <unicode hex="03C9"/>
  <anchor x="512" y="1052" name="top"/>
  <outline>
    <contour>
      <point x="299" y="-30" type="qcurve" smooth="yes"/>
      <point x="195" y="-30"/>
      <point x="95" y="219"/>
      <point x="95" y="471" type="qcurve"/>
      <point x="95" y="623"/>
      <point x="187" y="898"/>
      <point x="289" y="1052" type="qcurve"/>
      <point x="296" y="1052" type="line"/>
      <point x="192" y="896"/>
      <point x="102" y="621"/>
      <point x="102" y="471" type="qcurve"/>
      <point x="102" y="289"/>
      <point x="195" y="126"/>
      <point x="299" y="126" type="qcurve" smooth="yes"/>
      <point x="397" y="126"/>
      <point x="509" y="272"/>
      <point x="509" y="408" type="qcurve" smooth="yes"/>
      <point x="509" y="722" type="line"/>
      <point x="515" y="722" type="line"/>
      <point x="515" y="408" type="line" smooth="yes"/>
      <point x="515" y="272"/>
      <point x="628" y="126"/>
      <point x="725" y="126" type="qcurve" smooth="yes"/>
      <point x="829" y="126"/>
      <point x="922" y="289"/>
      <point x="922" y="471" type="qcurve"/>
      <point x="922" y="621"/>
      <point x="832" y="896"/>
      <point x="728" y="1052" type="qcurve"/>
      <point x="735" y="1052" type="line"/>
      <point x="837" y="898"/>
      <point x="929" y="623"/>
      <point x="929" y="471" type="qcurve"/>
      <point x="929" y="219"/>
      <point x="833" y="-30"/>
      <point x="725" y="-30" type="qcurve" smooth="yes"/>
      <point x="625" y="-30"/>
      <point x="519" y="107"/>
      <point x="512" y="282" type="qcurve"/>
      <point x="512" y="282" type="line"/>
      <point x="505" y="107"/>
      <point x="400" y="-30"/>
    </contour>
  </outline>
</glyph>
<glyph name="Kaisymbol" format="2">
  <advance width="1081"/>
  <unicode hex="03CF"/>
  <outline>
    <contour>
      <point x="170" y="0" type="line"/>
      <point x="170" y="1456" type="line"/>
      <point x="177" y="1456" type="line"/>
      <point x="177" y="0" type="line"/>
    </contour>
    <contour>
      <point x="175" y="501" type="line"/>
      <point x="175" y="738" type="line"/>
      <point x="825" y="1456" type="line"/>
      <point x="1057" y="1456" type="line"/>
      <point x="409" y="752" type="line"/>
    </contour>
    <contour>
      <point x="903" y="83" type="line"/>
      <point x="368" y="800" type="line"/>
      <point x="373" y="804" type="line"/>
      <point x="1011" y="-51" type="line"/>
      <point x="342" y="-590" type="line"/>
      <point x="228" y="-456" type="line"/>
    </contour>
  </outline>
</glyph>
<glyph name="kaisymbol" format="2">
  <advance width="631"/>
  <unicode hex="03D7"/>
  <outline>
    <contour>
      <point x="148" y="0" type="line"/>
      <point x="148" y="1052" type="line"/>
      <point x="155" y="1052" type="line"/>
      <point x="155" y="0" type="line"/>
    </contour>
    <contour>
      <point x="152" y="538" type="line"/>
      <point x="152" y="545" type="line"/>
      <point x="243" y="545" type="line"/>
      <point x="619" y="1052" type="line"/>
      <point x="627" y="1052" type="line"/>
      <point x="247" y="541" type="line"/>
      <point x="636" y="0" type="line"/>
      <point x="85" y="-460" type="line"/>
      <point x="80" y="-454" type="line"/>
      <point x="626" y="0" type="line"/>
      <point x="243" y="538" type="line"/>
    </contour>
  </outline>
</glyph>
<glyph name="Nje" format="2">
  <advance width="1467"/>
  <unicode hex="040A"/>
  <outline>
    <contour>
      <point x="170" y="0" type="line"/>
      <point x="176" y="0" type="line"/>
      <point x="176" y="1456" type="line"/>
      <point x="170" y="1456" type="line"/>
    </contour>
    <contour>
      <point x="810" y="0" type="line"/>
      <point x="1064" y="0" type="line"/>
      <point x="1264" y="0"/>
      <point x="1417" y="241"/>
      <point x="1417" y="437" type="qcurve" smooth="yes"/>
      <point x="1417" y="633"/>
      <point x="1264" y="870"/>
      <point x="1064" y="870" type="qcurve"/>
      <point x="813" y="870" type="line"/>
      <point x="813" y="712" type="line"/>
      <point x="1104" y="712" type="line" smooth="yes"/>
      <point x="1274" y="712"/>
      <point x="1410" y="554"/>
      <point x="1410" y="437" type="qcurve" smooth="yes"/>
      <point x="1410" y="320"/>
      <point x="1274" y="158"/>
      <point x="1104" y="158" type="qcurve" smooth="yes"/>
      <point x="816" y="158" type="line"/>
      <point x="816" y="1456" type="line"/>
      <point x="810" y="1456" type="line"/>
    </contour>
    <contour>
      <point x="174" y="712" type="line"/>
      <point x="811" y="712" type="line"/>
      <point x="811" y="870" type="line"/>
      <point x="174" y="870" type="line"/>
    </contour>
  </outline>
</glyph>
<glyph name="Zhe" format="2">
  <advance width="1590"/>
  <unicode hex="0416"/>
  <anchor x="797" y="1456" name="top"/>
  <anchor x="1398" y="0" name="cy_descender"/>
  <outline>
    <contour>
      <point x="794" y="0" type="line"/>
      <point x="794" y="1456" type="line"/>
      <point x="798" y="1456" type="line"/>
      <point x="798" y="0" type="line"/>
    </contour>
    <contour>
      <point x="1396" y="0" type="line"/>
      <point x="858" y="740" type="line"/>
      <point x="861" y="742" type="line"/>
      <point x="1400" y="0" type="line"/>
    </contour>
    <contour>
      <point x="796" y="830" type="line"/>
      <point x="906" y="830" type="line"/>
      <point x="1363" y="1456" type="line"/>
      <point x="1580" y="1456" type="line"/>
      <point x="990" y="673" type="line"/>
      <point x="796" y="673" type="line"/>
    </contour>
    <contour>
      <point x="193" y="0" type="line"/>
      <point x="733" y="742" type="line"/>
      <point x="736" y="740" type="line"/>
      <point x="198" y="0" type="line"/>
    </contour>
    <contour>
      <point x="796" y="830" type="line"/>
      <point x="796" y="673" type="line"/>
      <point x="599" y="673" type="line"/>
      <point x="10" y="1456" type="line"/>
      <point x="229" y="1456" type="line"/>
      <point x="686" y="830" type="line"/>
    </contour>
  </outline>
</glyph>
<glyph name="Ka" format="2">
  <advance width="1065"/>
  <unicode hex="041A"/>
  <guideline x="480" y="796" angle="90" identifier="LxfLwWU0sJ"/>
  <anchor x="565" y="1456" name="top"/>
  <anchor x="952" y="0" name="cy_descender"/>
  <outline>
    <contour>
      <point x="950" y="0" type="line"/>
      <point x="453" y="725" type="line"/>
      <point x="417" y="778" type="line"/>
      <point x="958" y="0" type="line"/>
    </contour>
    <contour>
      <point x="175" y="830" type="line"/>
      <point x="295" y="830" type="line"/>
      <point x="840" y="1456" type="line"/>
      <point x="1057" y="1456" type="line"/>
      <point x="373" y="672" type="line"/>
      <point x="175" y="672" type="line"/>
    </contour>
    <contour>
      <point x="170" y="0" type="line"/>
      <point x="170" y="1456" type="line"/>
      <point x="177" y="1456" type="line"/>
      <point x="177" y="0" type="line"/>
    </contour>
  </outline>
</glyph>
<glyph name="El" format="2">
  <advance width="1084"/>
  <unicode hex="041B"/>
  <outline>
    <contour>
      <point x="339" y="1456" type="line"/>
      <point x="914" y="1456" type="line"/>
      <point x="914" y="0" type="line"/>
      <point x="910" y="0" type="line"/>
      <point x="910" y="1298" type="line"/>
      <point x="334" y="1298" type="line"/>
      <point x="293" y="561" type="line" smooth="yes"/>
      <point x="276" y="258"/>
      <point x="213" y="-30"/>
      <point x="119" y="-30" type="qcurve" smooth="yes"/>
      <point x="95" y="-30"/>
      <point x="39" y="-23"/>
      <point x="10" y="-13" type="qcurve"/>
      <point x="10" y="151" type="line"/>
      <point x="34" y="143"/>
      <point x="74" y="138"/>
      <point x="95" y="138" type="qcurve" smooth="yes"/>
      <point x="197" y="138"/>
      <point x="276" y="336"/>
      <point x="289" y="562" type="qcurve" smooth="yes"/>
    </contour>
  </outline>
</glyph>
<glyph name="Ucyr" format="2">
  <advance width="839"/>
  <unicode hex="0423"/>
  <anchor x="444" y="1456" name="top"/>
  <outline>
    <contour>
      <point x="109" y="-4" type="line"/>
      <point x="129" y="-12"/>
      <point x="191" y="-23"/>
      <point x="223" y="-23" type="qcurve" smooth="yes"/>
      <point x="296" y="-23"/>
      <point x="412" y="108"/>
      <point x="450" y="227" type="qcurve"/>
      <point x="444" y="227" type="line"/>
      <point x="15" y="1456" type="line"/>
      <point x="22" y="1456" type="line"/>
      <point x="399" y="375" type="line" smooth="yes"/>
      <point x="417" y="323"/>
      <point x="436" y="270"/>
      <point x="448" y="234" type="qcurve"/>
      <point x="454" y="234" type="line"/>
      <point x="466" y="270"/>
      <point x="483" y="322"/>
      <point x="499" y="375" type="qcurve" smooth="yes"/>
      <point x="817" y="1456" type="line"/>
      <point x="824" y="1456" type="line"/>
      <point x="506" y="375" type="line" smooth="yes"/>
      <point x="435" y="134"/>
      <point x="305" y="-30"/>
      <point x="223" y="-30" type="qcurve" smooth="yes"/>
      <point x="178" y="-30"/>
      <point x="130" y="-20"/>
      <point x="109" y="-10" type="qcurve"/>
    </contour>
  </outline>
</glyph>
<glyph name="Hard" format="2">
  <advance width="959"/>
  <unicode hex="042A"/>
  <outline>
    <contour>
      <point x="299" y="0" type="line"/>
      <point x="299" y="1298" type="line"/>
      <point x="24" y="1298" type="line"/>
      <point x="24" y="1456" type="line"/>
      <point x="306" y="1456" type="line"/>
      <point x="306" y="158" type="line"/>
      <point x="596" y="158" type="line" smooth="yes"/>
      <point x="766" y="158"/>
      <point x="902" y="325"/>
      <point x="902" y="445" type="qcurve" smooth="yes"/>
      <point x="902" y="565"/>
      <point x="766" y="728"/>
      <point x="596" y="728" type="qcurve" smooth="yes"/>
      <point x="301" y="728" type="line"/>
      <point x="301" y="886" type="line"/>
      <point x="556" y="886" type="line"/>
      <point x="726" y="886"/>
      <point x="909" y="645"/>
      <point x="909" y="445" type="qcurve" smooth="yes"/>
      <point x="909" y="245"/>
      <point x="726" y="0"/>
      <point x="556" y="0" type="qcurve"/>
    </contour>
  </outline>
</glyph>
<glyph name="Soft" format="2">
  <advance width="830"/>
  <unicode hex="042C"/>
  <outline>
    <contour>
      <point x="170" y="0" type="line"/>
      <point x="170" y="1456" type="line"/>
      <point x="177" y="1456" type="line"/>
      <point x="177" y="158" type="line"/>
      <point x="467" y="158" type="line" smooth="yes"/>
      <point x="637" y="158"/>
      <point x="773" y="325"/>
      <point x="773" y="445" type="qcurve" smooth="yes"/>
      <point x="773" y="565"/>
      <point x="637" y="728"/>
      <point x="467" y="728" type="qcurve" smooth="yes"/>
      <point x="175" y="728" type="line"/>
      <point x="175" y="886" type="line"/>
      <point x="427" y="886" type="line"/>
      <point x="597" y="886"/>
      <point x="780" y="645"/>
      <point x="780" y="445" type="qcurve" smooth="yes"/>
      <point x="780" y="245"/>
      <point x="597" y="0"/>
      <point x="427" y="0" type="qcurve"/>
    </contour>
  </outline>
</glyph>
<glyph name="Ecyr" format="2">
  <advance width="981"/>
  <unicode hex="042D"/>
  <guideline x="1147" y="753" angle="90" identifier="Ovo68woMtl"/>
  <anchor x="471" y="1456" name="top"/>
  <outline>
    <contour>
      <point x="864" y="830" type="line"/>
      <point x="864" y="672" type="line"/>
      <point x="235" y="672" type="line"/>
      <point x="235" y="830" type="line"/>
    </contour>
    <contour>
      <point x="862" y="674" type="qcurve" smooth="yes"/>
      <point x="862" y="797" type="line" smooth="yes"/>
      <point x="862" y="1052"/>
      <point x="650" y="1322"/>
      <point x="471" y="1322" type="qcurve" smooth="yes"/>
      <point x="288" y="1322"/>
      <point x="88" y="1139"/>
      <point x="88" y="1000" type="qcurve" smooth="yes"/>
      <point x="88" y="990" type="line"/>
      <point x="84" y="990" type="line"/>
      <point x="84" y="1000" type="line" smooth="yes"/>
      <point x="84" y="1201"/>
      <point x="304" y="1486"/>
      <point x="479" y="1486" type="qcurve" smooth="yes"/>
      <point x="654" y="1486"/>
      <point x="866" y="1110"/>
      <point x="866" y="774" type="qcurve" smooth="yes"/>
      <point x="866" y="682" type="line" smooth="yes"/>
      <point x="866" y="346"/>
      <point x="654" y="-30"/>
      <point x="479" y="-30" type="qcurve" smooth="yes"/>
      <point x="304" y="-30"/>
      <point x="105" y="256"/>
      <point x="85" y="456" type="qcurve"/>
      <point x="84" y="466" type="line"/>
      <point x="88" y="466" type="line"/>
      <point x="89" y="456" type="line"/>
      <point x="106" y="312"/>
      <point x="299" y="134"/>
      <point x="471" y="134" type="qcurve" smooth="yes"/>
      <point x="651" y="134"/>
      <point x="862" y="426"/>
    </contour>
  </outline>
</glyph>
<glyph name="be" format="2">
	<unicode hex="0431"/>
	<advance width="806"/>
	<outline>
		<contour>
			<point x="102" y="535" type="qcurve" smooth="yes"/>
			<point x="102" y="525" type="line" smooth="yes"/>
			<point x="102" y="335"/>
			<point x="256" y="122"/>
			<point x="408" y="122" type="qcurve" smooth="yes"/>
			<point x="560" y="122"/>
			<point x="714" y="335"/>
			<point x="714" y="490" type="qcurve" smooth="yes"/>
			<point x="714" y="522" type="line" smooth="yes"/>
			<point x="714" y="677"/>
			<point x="560" y="890"/>
			<point x="408" y="890" type="qcurve" smooth="yes"/>
			<point x="256" y="890"/>
			<point x="102" y="677"/>
		</contour>
		<contour>
			<point x="408" y="1042" type="qcurve" smooth="yes"/>
			<point x="565" y="1043"/>
			<point x="721" y="748"/>
			<point x="721" y="522" type="qcurve" smooth="yes"/>
			<point x="721" y="490" type="line" smooth="yes"/>
			<point x="721" y="261"/>
			<point x="549" y="-30"/>
			<point x="407" y="-30" type="qcurve" smooth="yes"/>
			<point x="260" y="-30"/>
			<point x="95" y="263"/>
			<point x="95" y="525" type="qcurve" smooth="yes"/>
			<point x="95" y="631" type="line" smooth="yes"/>
			<point x="95" y="1016"/>
			<point x="238" y="1325"/>
			<point x="427" y="1356" type="qcurve" smooth="yes"/>
			<point x="599" y="1384"/>
			<point x="678" y="1464"/>
			<point x="687" y="1536" type="qcurve"/>
			<point x="692" y="1536" type="line"/>
			<point x="683" y="1461"/>
			<point x="602" y="1379"/>
			<point x="429" y="1350" type="qcurve" smooth="yes"/>
			<point x="246" y="1319"/>
			<point x="106" y="1036"/>
			<point x="102" y="677" type="qcurve"/>
			<point x="106" y="676" type="line"/>
			<point x="140" y="865"/>
			<point x="285" y="1041"/>
		</contour>
	</outline>
</glyph>
<glyph name="ve" format="2">
  <advance width="716"/>
  <unicode hex="0432"/>
  <outline>
    <contour>
      <point x="122" y="0" type="line"/>
      <point x="122" y="1052" type="line"/>
      <point x="397" y="1052" type="line" smooth="yes"/>
      <point x="501" y="1052"/>
      <point x="592" y="912"/>
      <point x="592" y="771" type="qcurve" smooth="yes"/>
      <point x="592" y="682"/>
      <point x="526" y="563"/>
      <point x="457" y="544" type="qcurve"/>
      <point x="457" y="541" type="line"/>
      <point x="546" y="525"/>
      <point x="630" y="402"/>
      <point x="630" y="306" type="qcurve" smooth="yes"/>
      <point x="630" y="161"/>
      <point x="531" y="0"/>
      <point x="427" y="0" type="qcurve" smooth="yes"/>
    </contour>
    <contour>
      <point x="129" y="145" type="line"/>
      <point x="427" y="145" type="line" smooth="yes"/>
      <point x="528" y="145"/>
      <point x="623" y="234"/>
      <point x="623" y="306" type="qcurve" smooth="yes"/>
      <point x="623" y="377"/>
      <point x="529" y="463"/>
      <point x="427" y="463" type="qcurve" smooth="yes"/>
      <point x="127" y="463" type="line"/>
      <point x="127" y="607" type="line"/>
      <point x="397" y="607" type="line" smooth="yes"/>
      <point x="497" y="607"/>
      <point x="585" y="690"/>
      <point x="585" y="771" type="qcurve" smooth="yes"/>
      <point x="585" y="831"/>
      <point x="497" y="907"/>
      <point x="397" y="907" type="qcurve" smooth="yes"/>
      <point x="129" y="907" type="line"/>
    </contour>
  </outline>
</glyph>
<glyph name="de" format="2">
  <advance width="808"/>
  <unicode hex="0434"/>
  <outline>
    <contour>
      <point x="620" y="-270" type="line"/>
      <point x="620" y="0" type="line"/>
      <point x="178" y="0" type="line"/>
      <point x="178" y="-270" type="line"/>
      <point x="10" y="-270" type="line"/>
      <point x="10" y="145" type="line"/>
      <point x="788" y="145" type="line"/>
      <point x="788" y="-270" type="line"/>
    </contour>
    <contour>
      <point x="242" y="907" type="line"/>
      <point x="225" y="509" type="line" smooth="yes"/>
      <point x="218" y="346"/>
      <point x="184" y="173"/>
      <point x="149" y="79" type="qcurve"/>
      <point x="145" y="79" type="line"/>
      <point x="177" y="173"/>
      <point x="215" y="350"/>
      <point x="222" y="518" type="qcurve" smooth="yes"/>
      <point x="243" y="1052" type="line"/>
      <point x="633" y="1052" type="line"/>
      <point x="633" y="79" type="line"/>
      <point x="629" y="79" type="line"/>
      <point x="629" y="907" type="line"/>
    </contour>
  </outline>
</glyph>
<glyph name="zhe" format="2">
	<unicode hex="0436"/>
	<advance width="1209"/>
	<outline>
		<contour>
			<point x="609" y="0" type="line"/>
			<point x="602" y="0" type="line"/>
			<point x="602" y="1052" type="line"/>
			<point x="609" y="1052" type="line"/>
		</contour>
		<contour>
			<point x="1220" y="0" type="line"/>
			<point x="882" y="472" type="line"/>
			<point x="807" y="591" type="line"/>
			<point x="1229" y="0" type="line"/>
		</contour>
		<contour>
			<point x="604" y="610" type="line"/>
			<point x="696" y="610" type="line"/>
			<point x="1001" y="1052" type="line"/>
			<point x="1207" y="1052" type="line"/>
			<point x="795" y="465" type="line"/>
			<point x="604" y="465" type="line"/>
		</contour>
		<contour>
			<point x="-11" y="0" type="line"/>
			<point x="-20" y="0" type="line"/>
			<point x="402" y="591" type="line"/>
			<point x="327" y="472" type="line"/>
		</contour>
		<contour>
			<point x="605" y="610" type="line"/>
			<point x="605" y="465" type="line"/>
			<point x="414" y="465" type="line"/>
			<point x="2" y="1052" type="line"/>
			<point x="208" y="1052" type="line"/>
			<point x="513" y="610" type="line"/>
		</contour>
	</outline>
	<anchor name="top" x="605" y="1052"/>
	<anchor name="cy_descender" x="1225" y="0"/>
</glyph>
<glyph name="ze" format="2">
  <advance width="742"/>
  <unicode hex="0437"/>
  <anchor x="383" y="-1" name="bottom"/>
  <outline>
    <contour>
      <point x="362" y="-30" type="qcurve" smooth="yes"/>
      <point x="211" y="-30"/>
      <point x="89" y="197"/>
      <point x="89" y="337" type="qcurve" smooth="yes"/>
      <point x="89" y="342" type="line"/>
      <point x="96" y="342" type="line"/>
      <point x="96" y="337" type="line" smooth="yes"/>
      <point x="96" y="245"/>
      <point x="214" y="122"/>
      <point x="363" y="122" type="qcurve" smooth="yes"/>
      <point x="489" y="122"/>
      <point x="625" y="222"/>
      <point x="625" y="309" type="qcurve" smooth="yes"/>
      <point x="625" y="379"/>
      <point x="531" y="463"/>
      <point x="429" y="463" type="qcurve" smooth="yes"/>
      <point x="244" y="463" type="line"/>
      <point x="244" y="607" type="line"/>
      <point x="399" y="607" type="line" smooth="yes"/>
      <point x="501" y="607"/>
      <point x="592" y="688"/>
      <point x="592" y="776" type="qcurve" smooth="yes"/>
      <point x="592" y="842"/>
      <point x="479" y="930"/>
      <point x="377" y="930" type="qcurve" smooth="yes"/>
      <point x="246" y="930"/>
      <point x="116" y="809"/>
      <point x="116" y="715" type="qcurve" smooth="yes"/>
      <point x="116" y="710" type="line"/>
      <point x="109" y="710" type="line"/>
      <point x="109" y="715" type="line" smooth="yes"/>
      <point x="109" y="882"/>
      <point x="242" y="1082"/>
      <point x="377" y="1082" type="qcurve" smooth="yes"/>
      <point x="483" y="1082"/>
      <point x="599" y="916"/>
      <point x="599" y="776" type="qcurve" smooth="yes"/>
      <point x="599" y="695"/>
      <point x="551" y="563"/>
      <point x="461" y="544" type="qcurve"/>
      <point x="461" y="541" type="line"/>
      <point x="566" y="527"/>
      <point x="632" y="407"/>
      <point x="632" y="309" type="qcurve" smooth="yes"/>
      <point x="632" y="145"/>
      <point x="492" y="-30"/>
    </contour>
  </outline>
</glyph>
<glyph name="icyr" format="2">
  <advance width="806"/>
  <unicode hex="0438"/>
  <anchor x="412" y="1052" name="top"/>
  <outline>
    <contour>
      <point x="148" y="0" type="line"/>
      <point x="148" y="1052" type="line"/>
      <point x="155" y="1052" type="line"/>
      <point x="155" y="157" type="line" smooth="yes"/>
      <point x="155" y="127"/>
      <point x="154" y="52"/>
      <point x="153" y="22" type="qcurve"/>
      <point x="163" y="22" type="line"/>
      <point x="174" y="47"/>
      <point x="199" y="104"/>
      <point x="215" y="137" type="qcurve" smooth="yes"/>
      <point x="648" y="1052" type="line"/>
      <point x="658" y="1052" type="line"/>
      <point x="658" y="0" type="line"/>
      <point x="651" y="0" type="line"/>
      <point x="651" y="885" type="line" smooth="yes"/>
      <point x="651" y="915"/>
      <point x="651" y="995"/>
      <point x="653" y="1025" type="qcurve"/>
      <point x="641" y="1025" type="line"/>
      <point x="629" y="1000"/>
      <point x="602" y="938"/>
      <point x="586" y="905" type="qcurve" smooth="yes"/>
      <point x="158" y="0" type="line"/>
    </contour>
  </outline>
</glyph>
<glyph name="ka" format="2">
	<unicode hex="043A"/>
	<advance width="829"/>
	<outline>
		<contour>
			<point x="758" y="0" type="line"/>
			<point x="296" y="526" type="line"/>
			<point x="302" y="528" type="line"/>
			<point x="766" y="0" type="line"/>
		</contour>
		<contour>
			<point x="152" y="610" type="line"/>
			<point x="241" y="610" type="line"/>
			<point x="626" y="1052" type="line"/>
			<point x="844" y="1052" type="line"/>
			<point x="329" y="465" type="line"/>
			<point x="152" y="465" type="line"/>
		</contour>
		<contour>
			<point x="155" y="1052" type="line"/>
			<point x="155" y="0" type="line"/>
			<point x="148" y="0" type="line"/>
			<point x="148" y="1052" type="line"/>
		</contour>
	</outline>
	<anchor name="top" x="409" y="1052"/>
	<anchor name="cy_descender" x="761" y="0"/>
	<guideline x="241" y="553" angle="90" identifier="lmgRx0QBdK"/>
</glyph>
<glyph name="el" format="2">
  <advance width="779"/>
  <unicode hex="043B"/>
  <outline>
    <contour>
      <point x="247" y="907" type="line"/>
      <point x="229" y="490" type="line" smooth="yes"/>
      <point x="217" y="217"/>
      <point x="144" y="-22"/>
      <point x="68" y="-22" type="qcurve" smooth="yes"/>
      <point x="48" y="-22"/>
      <point x="21" y="-11"/>
      <point x="10" y="-4" type="qcurve"/>
      <point x="10" y="152" type="line"/>
      <point x="27" y="145"/>
      <point x="64" y="139"/>
      <point x="86" y="139" type="qcurve" smooth="yes"/>
      <point x="165" y="139"/>
      <point x="213" y="301"/>
      <point x="223" y="516" type="qcurve" smooth="yes"/>
      <point x="246" y="1052" type="line"/>
      <point x="631" y="1052" type="line"/>
      <point x="631" y="0" type="line"/>
      <point x="624" y="0" type="line"/>
      <point x="624" y="907" type="line"/>
    </contour>
  </outline>
</glyph>
